Mekorot-Vilna-Bold-Italic.ufo
<glyph name="exclam" format="2">
  <advance width="333"/>
  <unicode hex="0021"/>
  <outline>
    <contour>
      <point x="287.257" y="70" type="curve" smooth="yes"/>
      <point x="272.258" y="14.0225"/>
      <point x="213.927" y="-30.5"/>
      <point x="156.827" y="-30.5" type="curve" smooth="yes"/>
      <point x="96.5273" y="-30.5"/>
      <point x="69.333" y="18.0371"/>
      <point x="83.792" y="72" type="curve" smooth="yes"/>
      <point x="98.5" y="126.888"/>
      <point x="156.427" y="173.5"/>
      <point x="212.489" y="173.5" type="curve" smooth="yes"/>
      <point x="269.423" y="173.5"/>
      <point x="302.402" y="126.527"/>
    </contour>
    <contour>
      <point x="253.759" y="216.5" type="line"/>
      <point x="193.263" y="216.5" type="line"/>
      <point x="195.804" y="232.16" type="line" smooth="yes"/>
      <point x="215.722" y="354.912"/>
      <point x="219.105" y="402.444"/>
      <point x="215.406" y="496.846" type="curve" smooth="yes"/>
      <point x="213.637" y="541.962"/>
      <point x="214.565" y="563.783"/>
      <point x="221.858" y="591" type="curve" smooth="yes"/>
      <point x="241.555" y="664.511"/>
      <point x="292.446" y="708.5"/>
      <point x="355.842" y="708.5" type="curve" smooth="yes"/>
      <point x="418.557" y="708.5"/>
      <point x="445.463" y="664.167"/>
      <point x="425.322" y="589" type="curve" smooth="yes"/>
      <point x="418.52" y="563.611"/>
      <point x="407.589" y="541.047"/>
      <point x="381.789" y="496.737" type="curve" smooth="yes"/>
      <point x="326.314" y="401.459"/>
      <point x="305.52" y="355.03"/>
      <point x="259.61" y="232.16" type="curve" smooth="yes"/>
    </contour>
  </outline>
</glyph>
<glyph name="quotedbl" format="2">
  <advance width="555"/>
  <unicode hex="0022"/>
  <outline>
    <contour>
      <point x="285.477" y="386.5" type="line"/>
      <point x="216.594" y="386.5" type="line"/>
      <point x="217.148" y="400.122" type="line" smooth="yes"/>
      <point x="217.85" y="417.361"/>
      <point x="218.94" y="441.96"/>
      <point x="218.997" y="447.45" type="curve" smooth="yes"/>
      <point x="219.359" y="481.968"/>
      <point x="222.396" y="585.541"/>
      <point x="231.629" y="620" type="curve" smooth="yes"/>
      <point x="245.311" y="671.062"/>
      <point x="287.941" y="708.5"/>
      <point x="336.842" y="708.5" type="curve" smooth="yes"/>
      <point x="383.436" y="708.5"/>
      <point x="409.505" y="671.789"/>
      <point x="396.7" y="624" type="curve" smooth="yes"/>
      <point x="389.565" y="597.371"/>
      <point x="354.984" y="525.727"/>
      <point x="292.245" y="400.057" type="curve" smooth="yes"/>
    </contour>
    <contour>
      <point x="545.452" y="386.5" type="line"/>
      <point x="476.74" y="386.5" type="line"/>
      <point x="477.142" y="399.946" type="line" smooth="yes"/>
      <point x="477.611" y="415.708"/>
      <point x="478.634" y="438.669"/>
      <point x="479.013" y="448.55" type="curve" smooth="yes"/>
      <point x="480.371" y="484.048"/>
      <point x="482.468" y="585.811"/>
      <point x="491.629" y="620" type="curve" smooth="yes"/>
      <point x="505.311" y="671.062"/>
      <point x="547.942" y="708.5"/>
      <point x="596.842" y="708.5" type="curve" smooth="yes"/>
      <point x="643.436" y="708.5"/>
      <point x="669.505" y="671.789"/>
      <point x="656.7" y="624" type="curve" smooth="yes"/>
      <point x="649.454" y="596.958"/>
      <point x="608.309" y="511.952"/>
      <point x="552.229" y="400.027" type="curve" smooth="yes"/>
    </contour>
  </outline>
</glyph>
<glyph name="ampersand" format="2">
  <advance width="833"/>
  <unicode hex="0026"/>
  <outline>
    <contour>
      <point x="676.46" y="436.5" type="line"/>
      <point x="917.46" y="436.5" type="line"/>
      <point x="902.067" y="379.053" type="line"/>
      <point x="885.792" y="377.575" type="line" smooth="yes"/>
      <point x="849.85" y="374.312"/>
      <point x="839.941" y="371.006"/>
      <point x="817.553" y="345.81" type="curve" smooth="yes"/>
      <point x="778.728" y="301.771" type="line" smooth="yes"/>
      <point x="741.898" y="260.66"/>
      <point x="725.491" y="243.359"/>
      <point x="659.188" y="176.433" type="curve"/>
      <point x="691.482" y="114.982"/>
      <point x="708.051" y="102.5"/>
      <point x="736.465" y="102.5" type="curve" smooth="yes"/>
      <point x="753.741" y="102.5"/>
      <point x="767.297" y="109.652"/>
      <point x="787.647" y="132.324" type="curve" smooth="yes"/>
      <point x="800.656" y="146.818" type="line"/>
      <point x="842.503" y="116.9" type="line"/>
      <point x="806.249" y="75.8584" type="line" smooth="yes"/>
      <point x="770" y="34.5596"/>
      <point x="750.422" y="15.6035"/>
      <point x="728.092" y="1.20898" type="curve" smooth="yes"/>
      <point x="703.419" y="-14.6953"/>
      <point x="656.424" y="-33.5"/>
      <point x="615.023" y="-33.5" type="curve" smooth="yes"/>
      <point x="559.505" y="-33.5"/>
      <point x="526.631" y="-11.9102"/>
      <point x="485.771" y="48.6904" type="curve"/>
      <point x="392.83" y="-6.98145"/>
      <point x="318.646" y="-32.5"/>
      <point x="244.292" y="-32.5" type="curve" smooth="yes"/>
      <point x="122.233" y="-32.5"/>
      <point x="57.4414" y="48.2988"/>
      <point x="87.6396" y="161" type="curve" smooth="yes"/>
      <point x="114.001" y="259.381"/>
      <point x="186.01" y="325.904"/>
      <point x="339.575" y="395.353" type="curve"/>
      <point x="322.307" y="454.37"/>
      <point x="319.539" y="489.045"/>
      <point x="331.317" y="533" type="curve" smooth="yes"/>
      <point x="360.142" y="640.574"/>
      <point x="462.148" y="708.5"/>
      <point x="590.842" y="708.5" type="curve" smooth="yes"/>
      <point x="702.414" y="708.5"/>
      <point x="760.391" y="652.7"/>
      <point x="737.963" y="569" type="curve" smooth="yes"/>
      <point x="719.565" y="500.34"/>
      <point x="659.637" y="453.347"/>
      <point x="554.365" y="414.763" type="curve"/>
      <point x="631.645" y="238.187" type="line"/>
      <point x="693.399" y="297.11"/>
      <point x="712.408" y="323.486"/>
      <point x="720.354" y="354" type="curve" smooth="yes"/>
      <point x="724.165" y="368.632"/>
      <point x="724.299" y="368.081"/>
      <point x="713.936" y="371.175" type="curve" smooth="yes"/>
      <point x="706.824" y="373.297"/>
      <point x="695.142" y="375.291"/>
      <point x="676.121" y="377.622" type="curve" smooth="yes"/>
      <point x="661.174" y="379.453" type="line"/>
    </contour>
    <contour>
      <point x="382.478" y="276.277" type="curve" smooth="yes"/>
      <point x="359.324" y="334.348" type="line"/>
      <point x="313.24" y="309.34"/>
      <point x="296.364" y="290.592"/>
      <point x="289.238" y="264" type="curve" smooth="yes"/>
      <point x="277.01" y="218.363"/>
      <point x="286.706" y="158.299"/>
      <point x="316.478" y="115.109" type="curve" smooth="yes"/>
      <point x="328.478" y="97.7002"/>
      <point x="352.48" y="78.5"/>
      <point x="383.034" y="78.5" type="curve" smooth="yes"/>
      <point x="400.749" y="78.5"/>
      <point x="420.508" y="84.6631"/>
      <point x="454.919" y="104.015" type="curve"/>
      <point x="437.456" y="140.518"/>
      <point x="422.189" y="177.418"/>
    </contour>
    <contour>
      <point x="529.533" y="472.782" type="curve"/>
      <point x="566.178" y="486"/>
      <point x="584.051" y="502.151"/>
      <point x="592.316" y="533" type="curve" smooth="yes"/>
      <point x="606.88" y="587.35"/>
      <point x="587.29" y="640.5"/>
      <point x="546.621" y="640.5" type="curve" smooth="yes"/>
      <point x="519.021" y="640.5"/>
      <point x="506.856" y="620.85"/>
      <point x="501.806" y="602" type="curve" smooth="yes"/>
      <point x="493.059" y="569.355"/>
      <point x="499.101" y="532.18"/>
    </contour>
  </outline>
</glyph>
<glyph name="quotesingle" format="2">
  <advance width="278"/>
  <unicode hex="0027"/>
  <outline>
    <contour>
      <point x="277.506" y="386.5" type="line"/>
      <point x="208.74" y="386.5" type="line"/>
      <point x="209.142" y="399.946" type="line" smooth="yes"/>
      <point x="209.611" y="415.694"/>
      <point x="210.654" y="438.635"/>
      <point x="211.01" y="448.523" type="curve" smooth="yes"/>
      <point x="212.288" y="484.025"/>
      <point x="214.467" y="585.809"/>
      <point x="223.629" y="620" type="curve" smooth="yes"/>
      <point x="237.311" y="671.062"/>
      <point x="279.941" y="708.5"/>
      <point x="328.842" y="708.5" type="curve" smooth="yes"/>
      <point x="375.436" y="708.5"/>
      <point x="401.505" y="671.789"/>
      <point x="388.7" y="624" type="curve" smooth="yes"/>
      <point x="382.815" y="602.036"/>
      <point x="361.036" y="554.531"/>
      <point x="284.262" y="400.091" type="curve" smooth="yes"/>
    </contour>
  </outline>
</glyph>
<glyph name="parenleft" format="2">
  <advance width="333"/>
  <unicode hex="0028"/>
  <outline>
    <contour>
      <point x="517.265" y="723.139" type="line"/>
      <point x="499.713" y="657.635" type="line"/>
      <point x="490.527" y="652.439" type="line" smooth="yes"/>
      <point x="423.99" y="614.804"/>
      <point x="394.812" y="591.107"/>
      <point x="364.072" y="549.531" type="curve" smooth="yes"/>
      <point x="326.445" y="498.641"/>
      <point x="286.307" y="409.804"/>
      <point x="245.631" y="258" type="curve" smooth="yes"/>
      <point x="209.23" y="122.153"/>
      <point x="199.891" y="32.4336"/>
      <point x="211.977" y="-25.4883" type="curve" smooth="yes"/>
      <point x="220.766" y="-67.6143"/>
      <point x="237.496" y="-91.5264"/>
      <point x="281.797" y="-125.204" type="curve" smooth="yes"/>
      <point x="288.571" y="-130.354" type="line"/>
      <point x="270.188" y="-198.963" type="line"/>
      <point x="247.941" y="-182.992" type="line" smooth="yes"/>
      <point x="162.846" y="-121.907"/>
      <point x="129.664" y="-80.3193"/>
      <point x="102.519" y="-6.38379" type="curve" smooth="yes"/>
      <point x="73.5938" y="72.3926"/>
      <point x="72.6582" y="164.801"/>
      <point x="97.8984" y="259" type="curve" smooth="yes"/>
      <point x="130.623" y="381.13"/>
      <point x="204.88" y="508.396"/>
      <point x="327.941" y="610.969" type="curve" smooth="yes"/>
      <point x="378.677" y="653.256"/>
      <point x="416.363" y="676.137"/>
      <point x="487.873" y="709.448" type="curve" smooth="yes"/>
    </contour>
  </outline>
</glyph>
<glyph name="plus" format="2">
  <advance width="570"/>
  <unicode hex="002B"/>
  <outline>
    <contour>
      <point x="307.77" y="314.5" type="line"/>
      <point x="363.771" y="523.5" type="line"/>
      <point x="486.771" y="523.5" type="line"/>
      <point x="430.77" y="314.5" type="line"/>
      <point x="638.77" y="314.5" type="line"/>
      <point x="605.812" y="191.5" type="line"/>
      <point x="397.812" y="191.5" type="line"/>
      <point x="341.811" y="-17.5" type="line"/>
      <point x="218.811" y="-17.5" type="line"/>
      <point x="274.812" y="191.5" type="line"/>
      <point x="66.8125" y="191.5" type="line"/>
      <point x="99.7695" y="314.5" type="line"/>
    </contour>
  </outline>
</glyph>
<glyph name="comma" format="2">
  <advance width="250"/>
  <unicode hex="002C"/>
  <outline>
    <contour>
      <point x="-5.12305" y="-204.449" type="line"/>
      <point x="-17.2334" y="-152.261" type="line"/>
      <point x="-2.45312" y="-143.618" type="line" smooth="yes"/>
      <point x="96.9473" y="-85.4971"/>
      <point x="124.42" y="-49.5225"/>
      <point x="130.533" y="-26" type="curve" smooth="yes"/>
      <point x="130.949" y="-24.4004"/>
      <point x="131.301" y="-22.2979"/>
      <point x="130.57" y="-21.5293" type="curve"/>
      <point x="130.405" y="-21.4648" type="line"/>
      <point x="130.396" y="-21.4863"/>
      <point x="130.346" y="-21.5"/>
      <point x="130.239" y="-21.5" type="curve" smooth="yes"/>
      <point x="129.046" y="-21.5"/>
      <point x="129.031" y="-21.5146"/>
      <point x="128.746" y="-21.6016" type="curve" smooth="yes"/>
      <point x="127.326" y="-22.0361" type="line"/>
      <point x="125.912" y="-22.2617" type="line" smooth="yes"/>
      <point x="117.746" y="-23.5635"/>
      <point x="109.679" y="-23.5"/>
      <point x="105.703" y="-23.5" type="curve" smooth="yes"/>
      <point x="53.2939" y="-23.5"/>
      <point x="25.7939" y="16.0264"/>
      <point x="40.792" y="72" type="curve" smooth="yes"/>
      <point x="56.6133" y="131.044"/>
      <point x="107.922" y="172.5"/>
      <point x="168.222" y="172.5" type="curve" smooth="yes"/>
      <point x="239.321" y="172.5"/>
      <point x="271.619" y="116.138"/>
      <point x="250.95" y="39" type="curve" smooth="yes"/>
      <point x="225.854" y="-54.6611"/>
      <point x="152.562" y="-125.579"/>
      <point x="13.4619" y="-195.154" type="curve" smooth="yes"/>
    </contour>
  </outline>
</glyph>
<glyph name="hyphen" format="2">
  <advance width="333"/>
  <unicode hex="002D"/>
  <outline>
    <contour>
      <point x="386.091" y="304.5" type="line"/>
      <point x="345.63" y="153.5" type="line"/>
      <point x="67.6299" y="153.5" type="line"/>
      <point x="108.091" y="304.5" type="line"/>
    </contour>
  </outline>
</glyph>
<glyph name="period" format="2">
  <advance width="250"/>
  <unicode hex="002E"/>
  <outline>
    <contour>
      <point x="246.257" y="70" type="curve" smooth="yes"/>
      <point x="231.258" y="14.0225"/>
      <point x="172.927" y="-30.5"/>
      <point x="115.827" y="-30.5" type="curve" smooth="yes"/>
      <point x="55.5273" y="-30.5"/>
      <point x="28.333" y="18.0371"/>
      <point x="42.792" y="72" type="curve" smooth="yes"/>
      <point x="57.5" y="126.888"/>
      <point x="115.427" y="173.5"/>
      <point x="171.489" y="173.5" type="curve" smooth="yes"/>
      <point x="228.423" y="173.5"/>
      <point x="261.402" y="126.527"/>
    </contour>
  </outline>
</glyph>
<glyph name="three" format="2">
  <advance width="570"/>
  <unicode hex="0033"/>
  <outline>
    <contour>
      <point x="210.583" y="481.947" type="line"/>
      <point x="167.905" y="510.742" type="line"/>
      <point x="179.935" y="525.743" type="line" smooth="yes"/>
      <point x="273.343" y="642.222"/>
      <point x="374.716" y="688"/>
      <point x="490.13" y="688" type="curve" smooth="yes"/>
      <point x="615.126" y="688"/>
      <point x="668.345" y="632.002"/>
      <point x="643.917" y="540.837" type="curve" smooth="yes"/>
      <point x="629.946" y="488.699"/>
      <point x="606.307" y="456.581"/>
      <point x="546.966" y="422.114" type="curve"/>
      <point x="565.124" y="411.389"/>
      <point x="578.67" y="399.854"/>
      <point x="591.438" y="379.239" type="curve" smooth="yes"/>
      <point x="613.77" y="343.189"/>
      <point x="617.782" y="297.753"/>
      <point x="605.073" y="250.321" type="curve" smooth="yes"/>
      <point x="564.915" y="100.448"/>
      <point x="392.404" y="-14"/>
      <point x="187.529" y="-14" type="curve" smooth="yes"/>
      <point x="80.4492" y="-14"/>
      <point x="23.7705" y="29"/>
      <point x="41.0537" y="93.5" type="curve" smooth="yes"/>
      <point x="52.8984" y="137.707"/>
      <point x="96.6572" y="169"/>
      <point x="143.783" y="169" type="curve" smooth="yes"/>
      <point x="180.641" y="169"/>
      <point x="210.907" y="148.861"/>
      <point x="247.957" y="108.969" type="curve" smooth="yes"/>
      <point x="277.633" y="77.0156"/>
      <point x="292.242" y="71"/>
      <point x="313.001" y="71" type="curve" smooth="yes"/>
      <point x="371.57" y="71"/>
      <point x="417.604" y="106.754"/>
      <point x="433.195" y="164.938" type="curve" smooth="yes"/>
      <point x="444.134" y="205.763"/>
      <point x="434.522" y="243.518"/>
      <point x="409.226" y="267.053" type="curve" smooth="yes"/>
      <point x="377.135" y="296.908"/>
      <point x="346.759" y="311.253"/>
      <point x="256.229" y="338.306" type="curve" smooth="yes"/>
      <point x="244.675" y="342.136" type="line"/>
      <point x="255.256" y="381.625" type="line"/>
      <point x="269.397" y="385.235" type="line" smooth="yes"/>
      <point x="378.973" y="410.915"/>
      <point x="422.521" y="437.881"/>
      <point x="437.044" y="492.083" type="curve" smooth="yes"/>
      <point x="449.851" y="539.878"/>
      <point x="423.679" y="572"/>
      <point x="358.713" y="572" type="curve" smooth="yes"/>
      <point x="308.508" y="572"/>
      <point x="275.372" y="554.67"/>
      <point x="223.322" y="496.247" type="curve" smooth="yes"/>
    </contour>
  </outline>
</glyph>
<glyph name="five" format="2">
  <advance width="535"/>
  <unicode hex="0035"/>
  <outline>
    <contour>
      <point x="317.606" y="514" type="line"/>
      <point x="292.831" y="469.58" type="line"/>
      <point x="358.432" y="465.395"/>
      <point x="387.855" y="461.156"/>
      <point x="421.308" y="451.511" type="curve" smooth="yes"/>
      <point x="529.188" y="420.405"/>
      <point x="576.789" y="338.829"/>
      <point x="548.769" y="234.257" type="curve" smooth="yes"/>
      <point x="510.657" y="92.0234"/>
      <point x="357.744" y="-8"/>
      <point x="184.356" y="-8" type="curve" smooth="yes"/>
      <point x="84.3379" y="-8"/>
      <point x="31.1641" y="34.2002"/>
      <point x="48.125" y="97.5" type="curve" smooth="yes"/>
      <point x="59.9736" y="141.721"/>
      <point x="102.145" y="175"/>
      <point x="148.391" y="175" type="curve" smooth="yes"/>
      <point x="170.281" y="175"/>
      <point x="199.981" y="168.424"/>
      <point x="244.875" y="126.52" type="curve" smooth="yes"/>
      <point x="278.218" y="95.3965"/>
      <point x="298.18" y="88"/>
      <point x="314.079" y="88" type="curve" smooth="yes"/>
      <point x="360.661" y="88"/>
      <point x="405.662" y="121.896"/>
      <point x="417.443" y="165.865" type="curve" smooth="yes"/>
      <point x="431.532" y="218.444"/>
      <point x="399.786" y="267.319"/>
      <point x="321.632" y="292.635" type="curve" smooth="yes"/>
      <point x="282.859" y="305.194"/>
      <point x="245.358" y="310.795"/>
      <point x="152.259" y="317.393" type="curve" smooth="yes"/>
      <point x="131.3" y="318.878" type="line"/>
      <point x="333.376" y="676" type="line"/>
      <point x="693.035" y="676" type="line"/>
      <point x="594.777" y="514" type="line"/>
    </contour>
  </outline>
</glyph>
<glyph name="six" format="2">
  <advance width="570"/>
  <unicode hex="0036"/>
  <outline>
    <contour>
      <point x="704.327" y="687.824" type="curve" smooth="yes"/>
      <point x="725.066" y="690.678" type="line"/>
      <point x="709.921" y="634.153" type="line"/>
      <point x="695.224" y="631.468" type="line" smooth="yes"/>
      <point x="558.684" y="606.464"/>
      <point x="454.073" y="543.104"/>
      <point x="372.908" y="431.696" type="curve"/>
      <point x="399.001" y="436.588"/>
      <point x="423.822" y="438.5"/>
      <point x="452.106" y="438.5" type="curve" smooth="yes"/>
      <point x="580.695" y="438.5"/>
      <point x="640.652" y="356.978"/>
      <point x="606.649" y="230.078" type="curve" smooth="yes"/>
      <point x="569.184" y="90.2559"/>
      <point x="443.058" y="-13"/>
      <point x="293.705" y="-13" type="curve" smooth="yes"/>
      <point x="124.316" y="-13"/>
      <point x="55.2998" y="101.883"/>
      <point x="101.971" y="276.062" type="curve" smooth="yes"/>
      <point x="137.25" y="407.728"/>
      <point x="228.789" y="519.942"/>
      <point x="366.432" y="596.493" type="curve" smooth="yes"/>
      <point x="479.986" y="647.391"/>
      <point x="562.087" y="669.151"/>
    </contour>
    <contour>
      <point x="357.161" y="358.5" type="curve" smooth="yes"/>
      <point x="343.275" y="358.5"/>
      <point x="331.96" y="356.045"/>
      <point x="325.327" y="353.839" type="curve"/>
      <point x="315.479" y="339.867"/>
      <point x="299.072" y="298.198"/>
      <point x="285.514" y="248.234" type="curve" smooth="yes"/>
      <point x="264.299" y="169.799"/>
      <point x="256.4" y="97.9951"/>
      <point x="270.538" y="67.5342" type="curve" smooth="yes"/>
      <point x="276.427" y="54.8467"/>
      <point x="291.175" y="49"/>
      <point x="312.99" y="49" type="curve" smooth="yes"/>
      <point x="354.891" y="49"/>
      <point x="373.895" y="59.3193"/>
      <point x="404.226" y="172.516" type="curve" smooth="yes"/>
      <point x="448" y="335.885"/>
      <point x="415.3" y="358.5"/>
    </contour>
  </outline>
</glyph>
<glyph name="seven" format="2">
  <advance width="570"/>
  <unicode hex="0037"/>
  <outline>
    <contour>
      <point x="739.054" y="676" type="line"/>
      <point x="284.804" y="-35" type="line"/>
      <point x="133.771" y="-35" type="line"/>
      <point x="507.45" y="504" type="line"/>
      <point x="296.404" y="504" type="line" smooth="yes"/>
      <point x="247.62" y="504"/>
      <point x="226.343" y="485.755"/>
      <point x="195.71" y="431.52" type="curve" smooth="yes"/>
      <point x="188.639" y="419" type="line"/>
      <point x="129.271" y="419" type="line"/>
      <point x="249.07" y="676" type="line"/>
    </contour>
  </outline>
</glyph>
<glyph name="nine" format="2">
  <advance width="570"/>
  <unicode hex="0039"/>
  <outline>
    <contour>
      <point x="426.229" y="320.719" type="curve"/>
      <point x="426.792" y="322.026"/>
      <point x="427.599" y="324.098"/>
      <point x="429.566" y="328.969" type="curve" smooth="yes"/>
      <point x="440.139" y="353.493" type="line" smooth="yes"/>
      <point x="455.55" y="396.056"/>
      <point x="466.066" y="425.7"/>
      <point x="472.691" y="450.428" type="curve" smooth="yes"/>
      <point x="492.092" y="522.83"/>
      <point x="492.035" y="582.298"/>
      <point x="482.663" y="602.899" type="curve" smooth="yes"/>
      <point x="476.175" y="617.162"/>
      <point x="465.19" y="626"/>
      <point x="438.875" y="626" type="curve" smooth="yes"/>
      <point x="397.185" y="626"/>
      <point x="378.03" y="615.902"/>
      <point x="348.147" y="504.377" type="curve" smooth="yes"/>
      <point x="305.521" y="345.291"/>
      <point x="333.893" y="316.5"/>
      <point x="388.021" y="316.5" type="curve" smooth="yes"/>
      <point x="400.458" y="316.5"/>
      <point x="417.544" y="318.791"/>
    </contour>
    <contour>
      <point x="47.5381" y="-12.8242" type="curve" smooth="yes"/>
      <point x="26.7988" y="-15.6777" type="line"/>
      <point x="41.959" y="40.9004" type="line"/>
      <point x="56.7129" y="43.5459" type="line" smooth="yes"/>
      <point x="190.742" y="67.627"/>
      <point x="291.773" y="128.913"/>
      <point x="379.743" y="243.629" type="curve"/>
      <point x="352.942" y="238.561"/>
      <point x="325.043" y="236.5"/>
      <point x="293.077" y="236.5" type="curve" smooth="yes"/>
      <point x="170.448" y="236.5"/>
      <point x="112.008" y="320.984"/>
      <point x="144.958" y="443.959" type="curve" smooth="yes"/>
      <point x="182.64" y="584.586"/>
      <point x="307.827" y="688"/>
      <point x="458.161" y="688" type="curve" smooth="yes"/>
      <point x="627.549" y="688"/>
      <point x="696.566" y="573.117"/>
      <point x="649.895" y="398.938" type="curve" smooth="yes"/>
      <point x="616.203" y="273.198"/>
      <point x="531.224" y="166.176"/>
      <point x="404.014" y="89.4316" type="curve" smooth="yes"/>
      <point x="290.714" y="31.6777"/>
      <point x="197.336" y="6.84082"/>
    </contour>
  </outline>
</glyph>
<glyph name="greater" format="2">
  <advance width="570"/>
  <unicode hex="003E"/>
  <outline>
    <contour>
      <point x="3.10547" y="-38.7939" type="line"/>
      <point x="39.0703" y="95.4297" type="line"/>
      <point x="440.252" y="253" type="line"/>
      <point x="123.512" y="410.57" type="line"/>
      <point x="159.478" y="544.794" type="line"/>
      <point x="638.607" y="306.43" type="line"/>
      <point x="609.975" y="199.57" type="line"/>
    </contour>
  </outline>
</glyph>
<glyph name="at" format="2">
  <advance width="930"/>
  <unicode hex="0040"/>
  <outline>
    <contour>
      <point x="724.932" y="508.762" type="curve"/>
      <point x="732.935" y="523.5" type="line"/>
      <point x="839.769" y="523.5" type="line"/>
      <point x="692.94" y="242.131" type="line" smooth="yes"/>
      <point x="692.267" y="240.694"/>
      <point x="689.034" y="233.826"/>
      <point x="687.593" y="228" type="curve" smooth="yes"/>
      <point x="686.193" y="222.347"/>
      <point x="684.39" y="215.503"/>
      <point x="685.351" y="208.292" type="curve" smooth="yes"/>
      <point x="686.093" y="202.716"/>
      <point x="688.319" y="198.862"/>
      <point x="695.632" y="197.787" type="curve" smooth="yes"/>
      <point x="696.463" y="197.665"/>
      <point x="695.357" y="197.5"/>
      <point x="699.92" y="197.5" type="curve" smooth="yes"/>
      <point x="751.444" y="197.5"/>
      <point x="833.454" y="283.464"/>
      <point x="860.66" y="385" type="curve" smooth="yes"/>
      <point x="896.267" y="517.883"/>
      <point x="803.775" y="634.5"/>
      <point x="656.014" y="634.5" type="curve" smooth="yes"/>
      <point x="500.593" y="634.5"/>
      <point x="353.125" y="506.16"/>
      <point x="304.584" y="325" type="curve" smooth="yes"/>
      <point x="260.295" y="159.712"/>
      <point x="346.322" y="44.5"/>
      <point x="510.924" y="44.5" type="curve" smooth="yes"/>
      <point x="575.697" y="44.5"/>
      <point x="624.545" y="55.3613"/>
      <point x="715.441" y="91.9512" type="curve" smooth="yes"/>
      <point x="734.584" y="99.6572" type="line"/>
      <point x="741.579" y="32.0596" type="line"/>
      <point x="725.247" y="25.1875" type="line" smooth="yes"/>
      <point x="615.181" y="-21.124"/>
      <point x="553.652" y="-36.5"/>
      <point x="477.22" y="-36.5" type="curve" smooth="yes"/>
      <point x="255.33" y="-36.5"/>
      <point x="123.603" y="123.539"/>
      <point x="178.923" y="330" type="curve" smooth="yes"/>
      <point x="235.482" y="541.083"/>
      <point x="455.893" y="708.5"/>
      <point x="674.842" y="708.5" type="curve" smooth="yes"/>
      <point x="873.702" y="708.5"/>
      <point x="992.449" y="570.815"/>
      <point x="944" y="390" type="curve" smooth="yes"/>
      <point x="905.112" y="244.867"/>
      <point x="776.843" y="125.5"/>
      <point x="666.628" y="125.5" type="curve" smooth="yes"/>
      <point x="620.883" y="125.5"/>
      <point x="589.531" y="147.8"/>
      <point x="581.04" y="183.259" type="curve"/>
      <point x="537.542" y="148.758"/>
      <point x="488.52" y="126.5"/>
      <point x="446.896" y="126.5" type="curve" smooth="yes"/>
      <point x="381.828" y="126.5"/>
      <point x="351.646" y="187.145"/>
      <point x="370.898" y="259" type="curve" smooth="yes"/>
      <point x="392.071" y="338.018"/>
      <point x="447.599" y="420.922"/>
      <point x="518.735" y="479.103" type="curve" smooth="yes"/>
      <point x="563.325" y="515.571"/>
      <point x="616.683" y="536.5"/>
      <point x="665.755" y="536.5" type="curve" smooth="yes"/>
      <point x="694.507" y="536.5"/>
      <point x="712.464" y="530.757"/>
    </contour>
    <contour>
      <point x="655.229" y="453.549" type="curve" smooth="yes"/>
      <point x="654.816" y="453.578"/>
      <point x="653.476" y="453.637"/>
      <point x="653.055" y="453.637" type="curve" smooth="yes"/>
      <point x="637.582" y="453.637"/>
      <point x="606.344" y="439.8"/>
      <point x="570.65" y="408.505" type="curve" smooth="yes"/>
      <point x="530.92" y="373.669"/>
      <point x="501.158" y="327.146"/>
      <point x="487.722" y="277" type="curve" smooth="yes"/>
      <point x="480.102" y="248.562"/>
      <point x="477.667" y="208.5"/>
      <point x="510.867" y="208.5" type="curve" smooth="yes"/>
      <point x="530.471" y="208.5"/>
      <point x="560.468" y="225.314"/>
      <point x="592.959" y="266.975" type="curve" smooth="yes"/>
      <point x="632.332" y="317.46"/>
      <point x="659.696" y="378.595"/>
      <point x="668.532" y="406.837" type="curve" smooth="yes"/>
      <point x="669.155" y="408.832"/>
      <point x="669.783" y="410.923"/>
      <point x="670.275" y="412.76" type="curve" smooth="yes"/>
      <point x="678.935" y="445.076"/>
      <point x="667.72" y="452.666"/>
    </contour>
  </outline>
</glyph>
<glyph name="B" format="2">
  <advance width="737"/>
  <unicode hex="0042"/>
  <outline>
    <contour>
      <point x="197.134" y="676" type="line"/>
      <point x="536.217" y="676" type="line" smooth="yes"/>
      <point x="731.46" y="676"/>
      <point x="820.629" y="618.135"/>
      <point x="790.914" y="507.237" type="curve" smooth="yes"/>
      <point x="772.973" y="440.281"/>
      <point x="728.148" y="398.101"/>
      <point x="637.535" y="366.067" type="curve"/>
      <point x="666.034" y="356.579"/>
      <point x="692.042" y="343.272"/>
      <point x="714.517" y="319.168" type="curve" smooth="yes"/>
      <point x="760.472" y="269.881"/>
      <point x="745.477" y="210.774"/>
      <point x="741.353" y="195.384" type="curve" smooth="yes"/>
      <point x="709.941" y="78.1533"/>
      <point x="569.6" y="0"/>
      <point x="368.861" y="0" type="curve" smooth="yes"/>
      <point x="16" y="0" type="line"/>
      <point x="22.6992" y="25" type="line"/>
      <point x="38.293" y="25" type="line" smooth="yes"/>
      <point x="106.48" y="32.6758"/>
      <point x="114.882" y="40.6123"/>
      <point x="125.909" y="81.7666" type="curve" smooth="yes"/>
      <point x="263.246" y="594.312" type="line" smooth="yes"/>
      <point x="274.117" y="634.887"/>
      <point x="268.362" y="647.165"/>
      <point x="206.922" y="651" type="curve" smooth="yes"/>
      <point x="190.435" y="651" type="line"/>
    </contour>
    <contour>
      <point x="401.674" y="325.5" type="curve" smooth="yes"/>
      <point x="386.218" y="325.5" type="line"/>
      <point x="323.919" y="93" type="line" smooth="yes"/>
      <point x="314.595" y="58.1992"/>
      <point x="325.176" y="49.5"/>
      <point x="366.051" y="49.5" type="curve" smooth="yes"/>
      <point x="443.578" y="49.5"/>
      <point x="503.953" y="81.9316"/>
      <point x="529.963" y="179" type="curve" smooth="yes"/>
      <point x="560.005" y="291.119"/>
      <point x="502.199" y="325.5"/>
    </contour>
    <contour>
      <point x="458.966" y="597" type="curve" smooth="yes"/>
      <point x="403.805" y="391.137" type="line"/>
      <point x="533.574" y="395.989"/>
      <point x="567.866" y="421.224"/>
      <point x="591.386" y="509" type="curve" smooth="yes"/>
      <point x="617.002" y="604.6"/>
      <point x="579.829" y="628.5"/>
      <point x="514.464" y="628.5" type="curve" smooth="yes"/>
      <point x="499.956" y="628.5"/>
      <point x="489.21" y="627.16"/>
      <point x="482.49" y="625.322" type="curve" smooth="yes"/>
      <point x="474.026" y="623.008"/>
      <point x="470.234" y="619.643"/>
      <point x="467.334" y="615.82" type="curve" smooth="yes"/>
      <point x="462.099" y="608.903"/>
      <point x="460.443" y="601.713"/>
    </contour>
  </outline>
</glyph>
<glyph name="C" format="2">
  <advance width="792"/>
  <unicode hex="0043"/>
  <outline>
    <contour>
      <point x="759.947" y="193.433" type="line"/>
      <point x="803.871" y="146.306" type="line"/>
      <point x="788.09" y="132.793" type="line" smooth="yes"/>
      <point x="729.459" y="82.5928"/>
      <point x="699.873" y="60.5957"/>
      <point x="660.531" y="38.0293" type="curve" smooth="yes"/>
      <point x="581.156" y="-5.37402"/>
      <point x="505.518" y="-19"/>
      <point x="432.603" y="-19" type="curve" smooth="yes"/>
      <point x="197.508" y="-19"/>
      <point x="83.4277" y="128.486"/>
      <point x="138.265" y="333.141" type="curve" smooth="yes"/>
      <point x="192.874" y="536.946"/>
      <point x="391.18" y="691"/>
      <point x="616.201" y="691" type="curve" smooth="yes"/>
      <point x="672.42" y="691"/>
      <point x="725.958" y="679.572"/>
      <point x="785.812" y="654.57" type="curve" smooth="yes"/>
      <point x="800.075" y="648.357"/>
      <point x="814.729" y="641.835"/>
      <point x="822.523" y="642" type="curve" smooth="yes"/>
      <point x="827.295" y="642.101"/>
      <point x="830.117" y="642.099"/>
      <point x="836.501" y="647.79" type="curve" smooth="yes"/>
      <point x="838.772" y="649.815"/>
      <point x="845.626" y="655.999"/>
      <point x="859.653" y="676.999" type="curve" smooth="yes"/>
      <point x="867.001" y="688" type="line"/>
      <point x="923.349" y="688" type="line"/>
      <point x="851.271" y="419" type="line"/>
      <point x="797.563" y="419" type="line"/>
      <point x="795.603" y="429.18" type="line" smooth="yes"/>
      <point x="779.243" y="514.128"/>
      <point x="762.884" y="540.655"/>
      <point x="732.979" y="571.462" type="curve" smooth="yes"/>
      <point x="697.73" y="607.771"/>
      <point x="659.324" y="623"/>
      <point x="612.381" y="623" type="curve" smooth="yes"/>
      <point x="464.822" y="623"/>
      <point x="389.605" y="479.963"/>
      <point x="352.41" y="341.147" type="curve" smooth="yes"/>
      <point x="327.584" y="248.496"/>
      <point x="325.397" y="183.502"/>
      <point x="343.026" y="137.368" type="curve" smooth="yes"/>
      <point x="359.418" y="94.4688"/>
      <point x="414.12" y="64"/>
      <point x="481.431" y="64" type="curve" smooth="yes"/>
      <point x="509.711" y="64"/>
      <point x="545.961" y="70.1279"/>
      <point x="578.408" y="80.7432" type="curve" smooth="yes"/>
      <point x="634.602" y="99.127"/>
      <point x="670.269" y="119.898"/>
      <point x="745.472" y="181.563" type="curve" smooth="yes"/>
    </contour>
  </outline>
</glyph>
<glyph name="D" format="2">
  <advance width="792"/>
  <unicode hex="0044"/>
  <outline>
    <contour>
      <point x="117.465" y="76.376" type="curve" smooth="yes"/>
      <point x="257.366" y="598.495" type="line" smooth="yes"/>
      <point x="266.847" y="633.877"/>
      <point x="260.949" y="645.223"/>
      <point x="204.301" y="651" type="curve" smooth="yes"/>
      <point x="188.435" y="651" type="line"/>
      <point x="195.134" y="676" type="line"/>
      <point x="524.334" y="676" type="line" smooth="yes"/>
      <point x="794.228" y="676"/>
      <point x="907.131" y="549.098"/>
      <point x="852.35" y="344.655" type="curve" smooth="yes"/>
      <point x="797.381" y="139.507"/>
      <point x="609.032" y="0"/>
      <point x="355.935" y="0" type="curve" smooth="yes"/>
      <point x="14" y="0" type="line"/>
      <point x="20.6992" y="25" type="line"/>
      <point x="37.5957" y="25" type="line" smooth="yes"/>
      <point x="93.4014" y="27.0186"/>
      <point x="109.353" y="46.0996"/>
    </contour>
    <contour>
      <point x="452.243" y="590.57" type="curve" smooth="yes"/>
      <point x="322.944" y="108.021" type="line" smooth="yes"/>
      <point x="319.098" y="93.666"/>
      <point x="318.957" y="86.7236"/>
      <point x="319.973" y="81.9863" type="curve" smooth="yes"/>
      <point x="321.116" y="76.6475"/>
      <point x="324.281" y="74.6777"/>
      <point x="328.406" y="73.2471" type="curve" smooth="yes"/>
      <point x="333.752" y="71.3945"/>
      <point x="340.573" y="70.0752"/>
      <point x="359.642" y="70" type="curve" smooth="yes"/>
      <point x="428.298" y="69.7295"/>
      <point x="483.055" y="88.5605"/>
      <point x="528.955" y="127.992" type="curve" smooth="yes"/>
      <point x="565.056" y="159.005"/>
      <point x="612.707" y="230.292"/>
      <point x="639.562" y="330.521" type="curve" smooth="yes"/>
      <point x="649.729" y="368.459"/>
      <point x="668.378" y="453.923"/>
      <point x="645.1" y="520.311" type="curve" smooth="yes"/>
      <point x="624.879" y="577.976"/>
      <point x="581.566" y="607"/>
      <point x="504.688" y="607" type="curve" smooth="yes"/>
      <point x="486.629" y="607"/>
      <point x="474.204" y="604.882"/>
      <point x="466.994" y="602.66" type="curve" smooth="yes"/>
      <point x="453.271" y="598.377"/>
      <point x="453.186" y="593.119"/>
    </contour>
  </outline>
</glyph>
<glyph name="E" format="2">
  <advance width="737"/>
  <unicode hex="0045"/>
  <outline>
    <contour>
      <point x="197.134" y="676" type="line"/>
      <point x="844.134" y="676" type="line"/>
      <point x="784.011" y="451.617" type="line"/>
      <point x="726.993" y="451.617" type="line"/>
      <point x="727.946" y="465.183" type="line" smooth="yes"/>
      <point x="736.043" y="580.544"/>
      <point x="700.455" y="610.659"/>
      <point x="519.139" y="610.396" type="curve" smooth="yes"/>
      <point x="493.39" y="610.359"/>
      <point x="486.086" y="609.28"/>
      <point x="477.938" y="607.476" type="curve" smooth="yes"/>
      <point x="468.445" y="605.373"/>
      <point x="465.146" y="603.304"/>
      <point x="461.083" y="594.214" type="curve" smooth="yes"/>
      <point x="459.697" y="591.113"/>
      <point x="458.323" y="587.139"/>
      <point x="457.04" y="582.349" type="curve" smooth="yes"/>
      <point x="402.441" y="378.585" type="line"/>
      <point x="500.041" y="381.22"/>
      <point x="542.152" y="410.904"/>
      <point x="582.589" y="505.605" type="curve" smooth="yes"/>
      <point x="588.766" y="520.073" type="line"/>
      <point x="656.392" y="520.073" type="line"/>
      <point x="561.366" y="165.435" type="line"/>
      <point x="493.241" y="165.435" type="line"/>
      <point x="495.375" y="180.361" type="line" smooth="yes"/>
      <point x="509.119" y="276.528"/>
      <point x="481.915" y="308.844"/>
      <point x="384.722" y="312.454" type="curve"/>
      <point x="327.622" y="99.3555" type="line" smooth="yes"/>
      <point x="324.075" y="84.1631"/>
      <point x="324.93" y="79.9268"/>
      <point x="326.746" y="76.2002" type="curve" smooth="yes"/>
      <point x="327.456" y="74.7441"/>
      <point x="328.352" y="73.583"/>
      <point x="329.662" y="72.4473" type="curve" smooth="yes"/>
      <point x="336.825" y="66.2441"/>
      <point x="354.746" y="62.751"/>
      <point x="393.082" y="62.751" type="curve" smooth="yes"/>
      <point x="460.197" y="62.751"/>
      <point x="528.8" y="71.2725"/>
      <point x="596.386" y="109.464" type="curve" smooth="yes"/>
      <point x="637.742" y="135.427"/>
      <point x="661.229" y="158.166"/>
      <point x="708.938" y="221.387" type="curve" smooth="yes"/>
      <point x="716.221" y="231.038" type="line"/>
      <point x="776.593" y="231.038" type="line"/>
      <point x="667.955" y="0" type="line"/>
      <point x="16" y="0" type="line"/>
      <point x="22.5098" y="24.2949" type="line"/>
      <point x="38.3174" y="25" type="line" smooth="yes"/>
      <point x="107.088" y="32.6396"/>
      <point x="114.567" y="39.4395"/>
      <point x="125.908" y="81.7637" type="curve" smooth="yes"/>
      <point x="263.246" y="594.312" type="line" smooth="yes"/>
      <point x="274.117" y="634.887"/>
      <point x="268.362" y="647.164"/>
      <point x="206.922" y="651" type="curve" smooth="yes"/>
      <point x="190.542" y="651.398" type="line"/>
    </contour>
  </outline>
</glyph>
<glyph name="F" format="2">
  <advance width="681"/>
  <unicode hex="0046"/>
  <outline>
    <contour>
      <point x="834.134" y="676" type="line"/>
      <point x="770.897" y="440" type="line"/>
      <point x="715.359" y="440" type="line"/>
      <point x="715.986" y="453.704" type="line" smooth="yes"/>
      <point x="718.852" y="516.37"/>
      <point x="715.221" y="538.929"/>
      <point x="701.679" y="560.918" type="curve" smooth="yes"/>
      <point x="674.637" y="604.826"/>
      <point x="569.036" y="607.236"/>
      <point x="519.553" y="607" type="curve" smooth="yes"/>
      <point x="493.141" y="606.874"/>
      <point x="485.023" y="605.663"/>
      <point x="476.607" y="603.551" type="curve" smooth="yes"/>
      <point x="467.271" y="601.207"/>
      <point x="463.697" y="597.962"/>
      <point x="460.051" y="589.994" type="curve" smooth="yes"/>
      <point x="458.923" y="587.532"/>
      <point x="457.39" y="583.654"/>
      <point x="455.741" y="577.501" type="curve" smooth="yes"/>
      <point x="398.375" y="363.409" type="line"/>
      <point x="491.284" y="367.168"/>
      <point x="531.042" y="398.232"/>
      <point x="576.363" y="497.232" type="curve" smooth="yes"/>
      <point x="583.125" y="512.003" type="line"/>
      <point x="651.19" y="512.003" type="line"/>
      <point x="551.249" y="139.014" type="line"/>
      <point x="482.509" y="139.014" type="line"/>
      <point x="484.399" y="154.416" type="line" smooth="yes"/>
      <point x="496.941" y="256.511"/>
      <point x="470.81" y="287.979"/>
      <point x="379.577" y="293.255" type="curve"/>
      <point x="322.038" y="78.5146" type="line" smooth="yes"/>
      <point x="311.233" y="38.1914"/>
      <point x="316.043" y="28.79"/>
      <point x="419.826" y="25" type="curve" smooth="yes"/>
      <point x="439.953" y="25" type="line"/>
      <point x="433.254" y="0" type="line"/>
      <point x="16" y="0" type="line"/>
      <point x="22.6992" y="25" type="line"/>
      <point x="38.3174" y="25" type="line" smooth="yes"/>
      <point x="107.088" y="32.6396"/>
      <point x="114.567" y="39.4395"/>
      <point x="125.908" y="81.7637" type="curve" smooth="yes"/>
      <point x="263.246" y="594.312" type="line" smooth="yes"/>
      <point x="274.328" y="635.673"/>
      <point x="268.588" y="647.15"/>
      <point x="206.922" y="651" type="curve" smooth="yes"/>
      <point x="190.435" y="651" type="line"/>
      <point x="197.134" y="676" type="line"/>
    </contour>
  </outline>
</glyph>
<glyph name="J" format="2">
  <advance width="570"/>
  <unicode hex="004A"/>
  <outline>
    <contour>
      <point x="614.463" y="576.465" type="curve" smooth="yes"/>
      <point x="497.644" y="140.487" type="line" smooth="yes"/>
      <point x="456.057" y="-14.7168"/>
      <point x="349.764" y="-96"/>
      <point x="177.086" y="-96" type="curve" smooth="yes"/>
      <point x="144.918" y="-96"/>
      <point x="93.2051" y="-92.8877"/>
      <point x="59.9521" y="-70.7412" type="curve" smooth="yes"/>
      <point x="23.0918" y="-46.1934"/>
      <point x="4.22949" y="4.58984"/>
      <point x="17.335" y="53.5" type="curve" smooth="yes"/>
      <point x="29.6133" y="99.3213"/>
      <point x="81.0264" y="143"/>
      <point x="128.816" y="143" type="curve" smooth="yes"/>
      <point x="178.409" y="143"/>
      <point x="207.589" y="99.2295"/>
      <point x="194.531" y="50.5" type="curve" smooth="yes"/>
      <point x="189.841" y="32.9941"/>
      <point x="183.695" y="21.4102"/>
      <point x="162.812" y="1.78418" type="curve" smooth="yes"/>
      <point x="161.802" y="0.835938"/>
      <point x="157.022" y="-3.77637"/>
      <point x="153.569" y="-7.9873" type="curve" smooth="yes"/>
      <point x="151.326" y="-10.7236"/>
      <point x="150.72" y="-11.9023"/>
      <point x="150.383" y="-13.5" type="curve" smooth="yes"/>
      <point x="149.959" y="-15.5029"/>
      <point x="148.058" y="-21.2959"/>
      <point x="158.131" y="-25.4072" type="curve" smooth="yes"/>
      <point x="163.693" y="-27.6777"/>
      <point x="170.241" y="-28"/>
      <point x="174.369" y="-28" type="curve" smooth="yes"/>
      <point x="223.048" y="-28"/>
      <point x="257.976" y="-18.75"/>
      <point x="274.119" y="41.499" type="curve" smooth="yes"/>
      <point x="423.097" y="597.489" type="line" smooth="yes"/>
      <point x="433.694" y="637.04"/>
      <point x="422.713" y="648.18"/>
      <point x="318.288" y="651" type="curve" smooth="yes"/>
      <point x="301.435" y="651" type="line"/>
      <point x="308.134" y="676" type="line"/>
      <point x="730.134" y="676" type="line"/>
      <point x="723.435" y="651" type="line"/>
      <point x="707.099" y="651" type="line" smooth="yes"/>
      <point x="641.941" y="646.732"/>
      <point x="631.237" y="639.067"/>
    </contour>
  </outline>
</glyph>
<glyph name="M" format="2">
  <advance width="1049"/>
  <unicode hex="004D"/>
  <outline>
    <contour>
      <point x="770.126" y="82.5762" type="curve" smooth="yes"/>
      <point x="847.917" y="503.516" type="line"/>
      <point x="490.197" y="0" type="line"/>
      <point x="439.914" y="0" type="line"/>
      <point x="313.426" y="490.488" type="line"/>
      <point x="210.549" y="106.547" type="line" smooth="yes"/>
      <point x="193.396" y="42.5303"/>
      <point x="204.639" y="30.2852"/>
      <point x="286.787" y="25" type="curve" smooth="yes"/>
      <point x="305.557" y="25" type="line"/>
      <point x="298.858" y="0" type="line"/>
      <point x="14" y="0" type="line"/>
      <point x="20.6992" y="25" type="line"/>
      <point x="36.4131" y="25" type="line" smooth="yes"/>
      <point x="107.556" y="32.5088"/>
      <point x="115.547" y="39.3613"/>
      <point x="129.459" y="91.2812" type="curve" smooth="yes"/>
      <point x="264.238" y="594.284" type="line" smooth="yes"/>
      <point x="275.452" y="636.135"/>
      <point x="271.107" y="645.243"/>
      <point x="206.501" y="651" type="curve" smooth="yes"/>
      <point x="190.435" y="651" type="line"/>
      <point x="197.134" y="676" type="line"/>
      <point x="487.417" y="676" type="line"/>
      <point x="588.408" y="231.354" type="line"/>
      <point x="890.824" y="676" type="line"/>
      <point x="1172.13" y="676" type="line"/>
      <point x="1165.43" y="651" type="line"/>
      <point x="1149.13" y="651" type="line" smooth="yes"/>
      <point x="1085.72" y="646.488"/>
      <point x="1074.04" y="638.32"/>
      <point x="1056.29" y="572.069" type="curve" smooth="yes"/>
      <point x="965.877" y="104.037" type="line" smooth="yes"/>
      <point x="948.248" y="38.2471"/>
      <point x="952.835" y="34.0986"/>
      <point x="1017.43" y="25" type="curve" smooth="yes"/>
      <point x="1032.7" y="25" type="line"/>
      <point x="1026" y="0" type="line"/>
      <point x="645.019" y="0" type="line"/>
      <point x="651.718" y="25" type="line"/>
      <point x="670.086" y="25" type="line" smooth="yes"/>
      <point x="748.998" y="31.2314"/>
      <point x="758.206" y="38.0879"/>
    </contour>
  </outline>
</glyph>
<glyph name="O" format="2">
  <advance width="848"/>
  <unicode hex="004F"/>
  <outline>
    <contour>
      <point x="613.592" y="691" type="curve" smooth="yes"/>
      <point x="840.813" y="691"/>
      <point x="957.665" y="539.896"/>
      <point x="903.031" y="336" type="curve" smooth="yes"/>
      <point x="847.518" y="128.82"/>
      <point x="652.156" y="-19"/>
      <point x="418.909" y="-19" type="curve" smooth="yes"/>
      <point x="185.734" y="-19"/>
      <point x="69.1074" y="127.292"/>
      <point x="124.775" y="335.047" type="curve" smooth="yes"/>
      <point x="180.131" y="541.635"/>
      <point x="376.282" y="691"/>
    </contour>
    <contour>
      <point x="594.262" y="623" type="curve" smooth="yes"/>
      <point x="449.998" y="623"/>
      <point x="372.945" y="470.033"/>
      <point x="334.505" y="326.574" type="curve" smooth="yes"/>
      <point x="298.587" y="192.524"/>
      <point x="295.529" y="49"/>
      <point x="437.13" y="49" type="curve" smooth="yes"/>
      <point x="578.729" y="49"/>
      <point x="652.664" y="192.812"/>
      <point x="689.263" y="329.402" type="curve" smooth="yes"/>
      <point x="741.361" y="523.836"/>
      <point x="698.192" y="623"/>
    </contour>
  </outline>
</glyph>
<glyph name="P" format="2">
  <advance width="681"/>
  <unicode hex="0050"/>
  <outline>
    <contour>
      <point x="368.873" y="268.233" type="curve"/>
      <point x="323.694" y="99.623" type="line" smooth="yes"/>
      <point x="306.551" y="35.6445"/>
      <point x="312.199" y="33.5811"/>
      <point x="395.818" y="25" type="curve" smooth="yes"/>
      <point x="415.21" y="25" type="line"/>
      <point x="408.511" y="0" type="line"/>
      <point x="16" y="0" type="line"/>
      <point x="22.6992" y="25" type="line"/>
      <point x="37.0674" y="25" type="line" smooth="yes"/>
      <point x="48.3799" y="27.0703"/>
      <point x="58.1533" y="28.7744"/>
      <point x="63.9033" y="29.4824" type="curve" smooth="yes"/>
      <point x="98.3164" y="33.7197"/>
      <point x="111.62" y="43.3662"/>
      <point x="127.911" y="104.165" type="curve" smooth="yes"/>
      <point x="253.284" y="572.066" type="line" smooth="yes"/>
      <point x="270.73" y="637.175"/>
      <point x="263.753" y="645.671"/>
      <point x="206.44" y="651" type="curve" smooth="yes"/>
      <point x="190.435" y="651" type="line"/>
      <point x="197.134" y="676" type="line"/>
      <point x="552.264" y="676" type="line" smooth="yes"/>
      <point x="746.342" y="676"/>
      <point x="831.987" y="604.545"/>
      <point x="797.689" y="476.543" type="curve" smooth="yes"/>
      <point x="775.181" y="392.539"/>
      <point x="709.249" y="325.775"/>
      <point x="611.997" y="291.312" type="curve" smooth="yes"/>
      <point x="561.757" y="273.507"/>
      <point x="521.892" y="269.379"/>
    </contour>
    <contour>
      <point x="454.688" y="588.5" type="curve" smooth="yes"/>
      <point x="387.612" y="338.169" type="line"/>
      <point x="461.086" y="339.347"/>
      <point x="494.023" y="346.273"/>
      <point x="519.247" y="360.775" type="curve" smooth="yes"/>
      <point x="550.027" y="378.471"/>
      <point x="572.915" y="410.207"/>
      <point x="589.338" y="471.5" type="curve" smooth="yes"/>
      <point x="620.046" y="586.104"/>
      <point x="575.45" y="606"/>
      <point x="500.561" y="606" type="curve" smooth="yes"/>
      <point x="487.794" y="606"/>
      <point x="477.822" y="604.629"/>
      <point x="471.207" y="602.784" type="curve" smooth="yes"/>
      <point x="456.105" y="598.479"/>
      <point x="455.661" y="591.156"/>
    </contour>
  </outline>
</glyph>
<glyph name="Q" format="2">
  <advance width="848"/>
  <unicode hex="0051"/>
  <outline>
    <contour>
      <point x="774.268" y="-77.7754" type="line"/>
      <point x="773.247" y="-134.606" type="line"/>
      <point x="756.924" y="-139.966" type="line" smooth="yes"/>
      <point x="673.85" y="-167.241"/>
      <point x="624.942" y="-176"/>
      <point x="562.341" y="-176" type="curve" smooth="yes"/>
      <point x="460.962" y="-176"/>
      <point x="371.863" y="-142.729"/>
      <point x="321.479" y="-82.874" type="curve" smooth="yes"/>
      <point x="301.938" y="-59.6592"/>
      <point x="292.422" y="-38.4844"/>
      <point x="281.584" y="1.55566" type="curve"/>
      <point x="209.522" y="28.6777"/>
      <point x="183.17" y="49.3047"/>
      <point x="153.443" y="93.1514" type="curve" smooth="yes"/>
      <point x="109.845" y="157.466"/>
      <point x="99.6748" y="241.371"/>
      <point x="123.889" y="331.738" type="curve" smooth="yes"/>
      <point x="179.444" y="539.074"/>
      <point x="378.545" y="691"/>
      <point x="609.153" y="691" type="curve" smooth="yes"/>
      <point x="841.504" y="691"/>
      <point x="958.343" y="542.426"/>
      <point x="902.651" y="334.585" type="curve" smooth="yes"/>
      <point x="879.412" y="247.854"/>
      <point x="827.102" y="158.604"/>
      <point x="737.631" y="87.1758" type="curve" smooth="yes"/>
      <point x="685.222" y="45.3359"/>
      <point x="646.179" y="24.7598"/>
      <point x="563.844" y="1.2334" type="curve"/>
      <point x="571.081" y="-22.0928"/>
      <point x="577.132" y="-32.6191"/>
      <point x="589.247" y="-47.126" type="curve" smooth="yes"/>
      <point x="611.725" y="-77.8311"/>
      <point x="647.774" y="-94"/>
      <point x="690.312" y="-94" type="curve" smooth="yes"/>
      <point x="707.209" y="-94"/>
      <point x="721.487" y="-91.5791"/>
      <point x="755.615" y="-82.6533" type="curve" smooth="yes"/>
    </contour>
    <contour>
      <point x="592.042" y="623" type="curve" smooth="yes"/>
      <point x="449.555" y="623"/>
      <point x="369.55" y="457.362"/>
      <point x="331.002" y="313.5" type="curve" smooth="yes"/>
      <point x="291.021" y="164.292"/>
      <point x="286.151" y="14"/>
      <point x="427.751" y="14" type="curve" smooth="yes"/>
      <point x="569.352" y="14"/>
      <point x="645.796" y="167.182"/>
      <point x="684.734" y="312.5" type="curve" smooth="yes"/>
      <point x="739.856" y="518.221"/>
      <point x="698.541" y="623"/>
    </contour>
  </outline>
</glyph>
<glyph name="R" format="2">
  <advance width="792"/>
  <unicode hex="0052"/>
  <outline>
    <contour>
      <point x="791.699" y="25" type="line"/>
      <point x="785" y="0" type="line"/>
      <point x="553.093" y="0" type="line"/>
      <point x="390.287" y="295.5" type="line"/>
      <point x="390.179" y="295.5" type="line"/>
      <point x="339.07" y="104.76" type="line" smooth="yes"/>
      <point x="321.28" y="38.3682"/>
      <point x="326.82" y="34.1816"/>
      <point x="402.716" y="25" type="curve" smooth="yes"/>
      <point x="420.571" y="25" type="line"/>
      <point x="413.873" y="0" type="line"/>
      <point x="26" y="0" type="line"/>
      <point x="32.6992" y="25" type="line"/>
      <point x="48.1924" y="25" type="line" smooth="yes"/>
      <point x="117.26" y="33.1719"/>
      <point x="123.745" y="36.3691"/>
      <point x="141.87" y="104.014" type="curve" smooth="yes"/>
      <point x="267.284" y="572.066" type="line" smooth="yes"/>
      <point x="285.078" y="638.474"/>
      <point x="278.501" y="646.495"/>
      <point x="216.755" y="651" type="curve" smooth="yes"/>
      <point x="200.435" y="651" type="line"/>
      <point x="207.134" y="676" type="line"/>
      <point x="559.522" y="676" type="line" smooth="yes"/>
      <point x="836.201" y="676"/>
      <point x="849.703" y="558.7"/>
      <point x="828.75" y="480.5" type="curve" smooth="yes"/>
      <point x="815.598" y="431.416"/>
      <point x="786.013" y="386.032"/>
      <point x="744.564" y="355.569" type="curve" smooth="yes"/>
      <point x="715.746" y="334.389"/>
      <point x="691.021" y="320.598"/>
      <point x="634.365" y="302.388" type="curve"/>
      <point x="750.468" y="36.8779" type="line" smooth="yes"/>
      <point x="755.026" y="27.7842"/>
      <point x="762.576" y="25"/>
      <point x="774.199" y="25" type="curve" smooth="yes"/>
    </contour>
    <contour>
      <point x="467.08" y="582.5" type="curve" smooth="yes"/>
      <point x="403.542" y="345.37" type="line"/>
      <point x="481.409" y="347.221"/>
      <point x="516.38" y="354.302"/>
      <point x="544.042" y="367.139" type="curve" smooth="yes"/>
      <point x="587.834" y="387.462"/>
      <point x="608.714" y="428.117"/>
      <point x="621.678" y="476.5" type="curve" smooth="yes"/>
      <point x="646.057" y="567.484"/>
      <point x="624.157" y="607"/>
      <point x="518.777" y="607" type="curve" smooth="yes"/>
      <point x="502.539" y="607"/>
      <point x="491.836" y="605.456"/>
      <point x="485.325" y="603.73" type="curve" smooth="yes"/>
      <point x="479.984" y="602.315"/>
      <point x="478.743" y="601.66"/>
      <point x="478.031" y="601.085" type="curve"/>
      <point x="474.947" y="597.605"/>
      <point x="468.108" y="586.335"/>
    </contour>
  </outline>
</glyph>
<glyph name="U" format="2">
  <advance width="792"/>
  <unicode hex="0055"/>
  <outline>
    <contour>
      <point x="849.298" y="583.312" type="curve" smooth="yes"/>
      <point x="763.849" y="264.411" type="line" smooth="yes"/>
      <point x="738.783" y="170.866"/>
      <point x="690.511" y="87.7354"/>
      <point x="627.687" y="44.1631" type="curve" smooth="yes"/>
      <point x="563.535" y="3.54688"/>
      <point x="475.331" y="-19"/>
      <point x="388.446" y="-19" type="curve" smooth="yes"/>
      <point x="303.377" y="-19"/>
      <point x="238.997" y="-0.237305"/>
      <point x="197.228" y="37.3262" type="curve" smooth="yes"/>
      <point x="145.003" y="84.293"/>
      <point x="134.937" y="137.85"/>
      <point x="162.969" y="242.466" type="curve" smooth="yes"/>
      <point x="252.452" y="576.423" type="line" smooth="yes"/>
      <point x="269.469" y="639.93"/>
      <point x="263.218" y="645.142"/>
      <point x="206.193" y="651" type="curve" smooth="yes"/>
      <point x="190.435" y="651" type="line"/>
      <point x="197.134" y="676" type="line"/>
      <point x="581.963" y="676" type="line"/>
      <point x="575.264" y="651" type="line"/>
      <point x="556.447" y="651" type="line" smooth="yes"/>
      <point x="509.832" y="649.285"/>
      <point x="492.033" y="647.05"/>
      <point x="480.228" y="639.365" type="curve" smooth="yes"/>
      <point x="467.257" y="630.925"/>
      <point x="456.881" y="615.342"/>
      <point x="446.469" y="576.486" type="curve" smooth="yes"/>
      <point x="356.977" y="242.495" type="line" smooth="yes"/>
      <point x="318.481" y="98.8301"/>
      <point x="367.533" y="65"/>
      <point x="454.71" y="65" type="curve" smooth="yes"/>
      <point x="560.733" y="65"/>
      <point x="643.294" y="109.326"/>
      <point x="684.868" y="264.482" type="curve" smooth="yes"/>
      <point x="766.585" y="569.455" type="line" smooth="yes"/>
      <point x="783.52" y="632.657"/>
      <point x="771.832" y="645.746"/>
      <point x="696.612" y="651" type="curve" smooth="yes"/>
      <point x="678.484" y="651" type="line"/>
      <point x="685.183" y="676" type="line"/>
      <point x="952.134" y="676" type="line"/>
      <point x="945.435" y="651" type="line"/>
      <point x="930.636" y="651" type="line" smooth="yes"/>
      <point x="874.174" y="642.535"/>
      <point x="862.819" y="633.774"/>
    </contour>
  </outline>
</glyph>
<glyph name="W" format="2">
  <advance width="1070"/>
  <unicode hex="0057"/>
  <outline>
    <contour>
      <point x="1232.13" y="676" type="line"/>
      <point x="1225.43" y="651" type="line"/>
      <point x="1209.51" y="651" type="line" smooth="yes"/>
      <point x="1185.68" y="648.884"/>
      <point x="1163.16" y="635.3"/>
      <point x="1141.62" y="598.971" type="curve" smooth="yes"/>
      <point x="768.693" y="-15" type="line"/>
      <point x="712.719" y="-15" type="line"/>
      <point x="660.1" y="429.562" type="line"/>
      <point x="354.174" y="-15" type="line"/>
      <point x="301.09" y="-15" type="line"/>
      <point x="249.365" y="598.562" type="line" smooth="yes"/>
      <point x="245.949" y="641.762"/>
      <point x="242.071" y="646.009"/>
      <point x="208.46" y="651" type="curve" smooth="yes"/>
      <point x="193.435" y="651" type="line"/>
      <point x="200.134" y="676" type="line"/>
      <point x="529.134" y="676" type="line"/>
      <point x="522.435" y="651" type="line"/>
      <point x="506.277" y="651" type="line" smooth="yes"/>
      <point x="483.27" y="648.976"/>
      <point x="474.97" y="647.512"/>
      <point x="467.286" y="645.028" type="curve" smooth="yes"/>
      <point x="459.763" y="642.585"/>
      <point x="456.764" y="641.179"/>
      <point x="453.438" y="631.649" type="curve" smooth="yes"/>
      <point x="453.078" y="630.619"/>
      <point x="453.28" y="631.763"/>
      <point x="451.864" y="626.479" type="curve" smooth="yes"/>
      <point x="450.261" y="620.495"/>
      <point x="449.909" y="614.729"/>
      <point x="450.618" y="598.829" type="curve" smooth="yes"/>
      <point x="473.823" y="281.622" type="line"/>
      <point x="648.114" y="537.632" type="line"/>
      <point x="637.002" y="626.837" type="line" smooth="yes"/>
      <point x="633.217" y="643.595"/>
      <point x="619.976" y="649.278"/>
      <point x="582.401" y="651" type="curve" smooth="yes"/>
      <point x="564.462" y="651" type="line"/>
      <point x="571.16" y="676" type="line"/>
      <point x="945.09" y="676" type="line"/>
      <point x="938.391" y="651" type="line"/>
      <point x="922.633" y="651" type="line" smooth="yes"/>
      <point x="904.827" y="614.415"/>
      <point x="900.179" y="619.926"/>
      <point x="896.525" y="615.021" type="curve" smooth="yes"/>
      <point x="875.6" y="613.562"/>
      <point x="868.652" y="612.119"/>
      <point x="861.622" y="610.164" type="curve" smooth="yes"/>
      <point x="852.606" y="607.657"/>
      <point x="848.588" y="605.413"/>
      <point x="846.199" y="596.5" type="curve" smooth="yes"/>
      <point x="843.479" y="586.344"/>
      <point x="846.461" y="550.945"/>
      <point x="846.816" y="545.787" type="curve" smooth="yes"/>
      <point x="869.129" y="261.28" type="line"/>
      <point x="1045.16" y="553.159" type="line" smooth="yes"/>
      <point x="1052.45" y="564.818"/>
      <point x="1058.11" y="578.285"/>
      <point x="1060.96" y="589.5" type="curve" smooth="yes"/>
      <point x="1062.58" y="595.896"/>
      <point x="1062.27" y="595.275"/>
      <point x="1062.46" y="596.7" type="curve" smooth="yes"/>
      <point x="1063.69" y="606.125"/>
      <point x="1058.92" y="607.964"/>
      <point x="1056.17" y="609.271" type="curve" smooth="yes"/>
      <point x="1053.84" y="629.246"/>
      <point x="1044.58" y="643.588"/>
      <point x="1024.96" y="651" type="curve" smooth="yes"/>
      <point x="1008.43" y="651" type="line"/>
      <point x="1015.13" y="676" type="line"/>
    </contour>
  </outline>
</glyph>
<glyph name="X" format="2">
  <advance width="792"/>
  <unicode hex="0058"/>
  <outline>
    <contour>
      <point x="939.134" y="676" type="line"/>
      <point x="932.435" y="651" type="line"/>
      <point x="916.583" y="651" type="line" smooth="yes"/>
      <point x="845.979" y="644.111"/>
      <point x="818.975" y="626.06"/>
      <point x="701.682" y="503.93" type="curve" smooth="yes"/>
      <point x="599.956" y="396.677" type="line"/>
      <point x="698" y="107.708" type="line" smooth="yes"/>
      <point x="724.074" y="35.584"/>
      <point x="732.157" y="25.835"/>
      <point x="758.714" y="25" type="curve" smooth="yes"/>
      <point x="775.699" y="25" type="line"/>
      <point x="769" y="0" type="line"/>
      <point x="366.024" y="0" type="line"/>
      <point x="372.723" y="25" type="line"/>
      <point x="390.838" y="25" type="line" smooth="yes"/>
      <point x="408.379" y="41.3828"/>
      <point x="425.611" y="58.6348"/>
      <point x="433.084" y="61.9854" type="curve" smooth="yes"/>
      <point x="437.161" y="62.0996"/>
      <point x="451.455" y="62.8174"/>
      <point x="463.778" y="66.2119" type="curve" smooth="yes"/>
      <point x="468.515" y="67.5176"/>
      <point x="474.229" y="69.0996"/>
      <point x="475.14" y="72.5" type="curve" smooth="yes"/>
      <point x="477.532" y="81.4307"/>
      <point x="471.986" y="104.901"/>
      <point x="466.573" y="117.198" type="curve" smooth="yes"/>
      <point x="406.107" y="257.484" type="line"/>
      <point x="372.549" y="227.067" type="line" smooth="yes"/>
      <point x="330.234" y="186.233"/>
      <point x="248.437" y="107.19"/>
      <point x="242.374" y="83.5" type="curve" smooth="yes"/>
      <point x="240.802" y="77.3574"/>
      <point x="240.839" y="74.9043"/>
      <point x="247.971" y="71.0479" type="curve" smooth="yes"/>
      <point x="252.764" y="51.3867"/>
      <point x="265.237" y="37.1797"/>
      <point x="291.912" y="25" type="curve" smooth="yes"/>
      <point x="307.699" y="25" type="line"/>
      <point x="301" y="0" type="line"/>
      <point x="16" y="0" type="line"/>
      <point x="22.6992" y="25" type="line"/>
      <point x="38.1133" y="25" type="line" smooth="yes"/>
      <point x="82.7705" y="30.4883"/>
      <point x="106.188" y="40.3193"/>
      <point x="144.606" y="77.4863" type="curve" smooth="yes"/>
      <point x="371.384" y="300.745" type="line"/>
      <point x="260.183" y="597.583" type="line" smooth="yes"/>
      <point x="243.06" y="642.33"/>
      <point x="235.115" y="648.503"/>
      <point x="207.481" y="651" type="curve" smooth="yes"/>
      <point x="191.435" y="651" type="line"/>
      <point x="198.134" y="676" type="line"/>
      <point x="609.098" y="676" type="line"/>
      <point x="602.398" y="651" type="line"/>
      <point x="584.1" y="651" type="line" smooth="yes"/>
      <point x="569.833" y="638.41"/>
      <point x="546.678" y="617.712"/>
      <point x="538.429" y="614.014" type="curve" smooth="yes"/>
      <point x="533.553" y="613.878"/>
      <point x="524.629" y="613.383"/>
      <point x="515.053" y="611.504" type="curve" smooth="yes"/>
      <point x="502.339" y="609.01"/>
      <point x="501.492" y="606.531"/>
      <point x="499.922" y="600.5" type="curve" smooth="yes"/>
      <point x="499.52" y="598.959"/>
      <point x="499.086" y="597.466"/>
      <point x="498.868" y="595.484" type="curve" smooth="yes"/>
      <point x="498.743" y="594.335"/>
      <point x="498.744" y="593.518"/>
      <point x="498.931" y="592.239" type="curve" smooth="yes"/>
      <point x="499.353" y="589.357"/>
      <point x="500.526" y="585.416"/>
      <point x="506.275" y="573.02" type="curve" smooth="yes"/>
      <point x="565.365" y="444.602" type="line"/>
      <point x="593.595" y="470.874"/>
      <point x="615.811" y="492.148"/>
      <point x="624.896" y="501.146" type="curve" smooth="yes"/>
      <point x="693.374" y="568.959"/>
      <point x="701.598" y="583.388"/>
      <point x="704.832" y="596.5" type="curve" smooth="yes"/>
      <point x="707.062" y="605.542"/>
      <point x="707.837" y="608.053"/>
      <point x="697.56" y="610.96" type="curve" smooth="yes"/>
      <point x="692.543" y="612.378"/>
      <point x="684.736" y="613.485"/>
      <point x="674.152" y="614.021" type="curve" smooth="yes"/>
      <point x="671.795" y="614.142" type="line"/>
      <point x="669.728" y="614.898" type="line" smooth="yes"/>
      <point x="672.169" y="629.479"/>
      <point x="664.449" y="607.638"/>
      <point x="663.002" y="651" type="curve" smooth="yes"/>
      <point x="647.435" y="651" type="line"/>
      <point x="654.134" y="676" type="line"/>
    </contour>
  </outline>
</glyph>
<glyph name="Y" format="2">
  <advance width="792"/>
  <unicode hex="0059"/>
  <outline>
    <contour>
      <point x="950.134" y="676" type="line"/>
      <point x="943.435" y="651" type="line"/>
      <point x="928.48" y="651" type="line" smooth="yes"/>
      <point x="898.414" y="646.506"/>
      <point x="881.889" y="638.467"/>
      <point x="863.913" y="618.131" type="curve" smooth="yes"/>
      <point x="588.653" y="293.537" type="line"/>
      <point x="537.857" y="103.964" type="line" smooth="yes"/>
      <point x="519.602" y="35.832"/>
      <point x="525.528" y="32.3271"/>
      <point x="616.089" y="25" type="curve" smooth="yes"/>
      <point x="636.699" y="25" type="line"/>
      <point x="630" y="0" type="line"/>
      <point x="192.647" y="0" type="line"/>
      <point x="199.346" y="25" type="line"/>
      <point x="219.794" y="25" type="line" smooth="yes"/>
      <point x="313.834" y="32.3516"/>
      <point x="322.887" y="36.8975"/>
      <point x="340.862" y="103.984" type="curve" smooth="yes"/>
      <point x="381.298" y="254.891" type="line"/>
      <point x="258.623" y="602.084" type="line" smooth="yes"/>
      <point x="249.565" y="633.588"/>
      <point x="232.825" y="649.295"/>
      <point x="205.907" y="651" type="curve" smooth="yes"/>
      <point x="189.435" y="651" type="line"/>
      <point x="196.134" y="676" type="line"/>
      <point x="590.853" y="676" type="line"/>
      <point x="584.154" y="651" type="line"/>
      <point x="527.749" y="615.007" type="line" smooth="yes"/>
      <point x="522.429" y="614.911"/>
      <point x="509.958" y="615.091"/>
      <point x="498.241" y="613.199" type="curve" smooth="yes"/>
      <point x="484.803" y="611.03"/>
      <point x="483.004" y="608.865"/>
      <point x="481.299" y="602.5" type="curve" smooth="yes"/>
      <point x="479.238" y="594.811"/>
      <point x="481.066" y="585.705"/>
      <point x="488.499" y="564.021" type="curve" smooth="yes"/>
      <point x="491.422" y="555.5"/>
      <point x="492.039" y="552.908"/>
      <point x="492.415" y="550.505" type="curve" smooth="yes"/>
      <point x="554.538" y="347.401" type="line"/>
      <point x="696.989" y="505.557" type="line" smooth="yes"/>
      <point x="741.711" y="556.509"/>
      <point x="754.541" y="583.555"/>
      <point x="756.492" y="591.5" type="curve" smooth="yes"/>
      <point x="758.675" y="600.384"/>
      <point x="758.99" y="603.688"/>
      <point x="749.837" y="607.42" type="curve" smooth="yes"/>
      <point x="744.521" y="627.069"/>
      <point x="728.727" y="640.899"/>
      <point x="704.632" y="651" type="curve" smooth="yes"/>
      <point x="688.435" y="651" type="line"/>
      <point x="695.134" y="676" type="line"/>
    </contour>
  </outline>
</glyph>
<glyph name="Z" format="2">
  <advance width="737"/>
  <unicode hex="005A"/>
  <outline>
    <contour>
      <point x="779.943" y="276" type="line"/>
      <point x="676.214" y="0" type="line"/>
      <point x="28" y="0" type="line"/>
      <point x="37.7314" y="36.3174" type="line"/>
      <point x="579.941" y="605.102" type="line"/>
      <point x="551.443" y="604.338"/>
      <point x="532.512" y="603.419"/>
      <point x="523.758" y="603.031" type="curve" smooth="yes"/>
      <point x="519.019" y="602.821"/>
      <point x="513.573" y="603.089"/>
      <point x="509.092" y="603.089" type="curve" smooth="yes"/>
      <point x="364.792" y="603.089"/>
      <point x="318.253" y="573.151"/>
      <point x="240.758" y="446.788" type="curve" smooth="yes"/>
      <point x="233.529" y="435" type="line"/>
      <point x="173.683" y="435" type="line"/>
      <point x="262.827" y="676" type="line"/>
      <point x="855.134" y="676" type="line"/>
      <point x="845.408" y="639.705" type="line"/>
      <point x="302.35" y="70" type="line"/>
      <point x="349.504" y="70" type="line" smooth="yes"/>
      <point x="452.009" y="70"/>
      <point x="541.859" y="84.4482"/>
      <point x="580.933" y="105.81" type="curve" smooth="yes"/>
      <point x="633.02" y="136.147"/>
      <point x="664.559" y="173.846"/>
      <point x="714.239" y="263.331" type="curve" smooth="yes"/>
      <point x="721.273" y="276" type="line"/>
    </contour>
  </outline>
</glyph>
<glyph name="bracketleft" format="2">
  <advance width="333"/>
  <unicode hex="005B"/>
  <outline>
    <contour>
      <point x="292.107" y="-98.5" type="line"/>
      <point x="273.887" y="-166.5" type="line"/>
      <point x="4.88672" y="-166.5" type="line"/>
      <point x="235.858" y="695.5" type="line"/>
      <point x="504.858" y="695.5" type="line"/>
      <point x="486.638" y="627.5" type="line"/>
      <point x="406.138" y="627.5" type="line" smooth="yes"/>
      <point x="385.434" y="627.196"/>
      <point x="375.834" y="625.976"/>
      <point x="368.62" y="623.241" type="curve" smooth="yes"/>
      <point x="364.372" y="621.631"/>
      <point x="360.907" y="619.581"/>
      <point x="357.062" y="613.656" type="curve" smooth="yes"/>
      <point x="352.503" y="606.63"/>
      <point x="347.779" y="594.44"/>
      <point x="342.57" y="575" type="curve" smooth="yes"/>
      <point x="171.619" y="-63" type="line" smooth="yes"/>
      <point x="167.754" y="-78.5127"/>
      <point x="167.519" y="-80.8477"/>
      <point x="167.217" y="-85.1738" type="curve" smooth="yes"/>
      <point x="166.612" y="-93.833"/>
      <point x="167.987" y="-95.7861"/>
      <point x="176.885" y="-97.3604" type="curve" smooth="yes"/>
      <point x="181.035" y="-98.0957"/>
      <point x="186.978" y="-98.5"/>
      <point x="194.607" y="-98.5" type="curve" smooth="yes"/>
    </contour>
  </outline>
</glyph>
<glyph name="bracketright" format="2">
  <advance width="333"/>
  <unicode hex="005D"/>
  <outline>
    <contour>
      <point x="-30.1133" y="-166.5" type="line"/>
      <point x="-11.8926" y="-98.5" type="line"/>
      <point x="85.6074" y="-98.5" type="line" smooth="yes"/>
      <point x="91.332" y="-98.3896"/>
      <point x="96.8613" y="-98.5801"/>
      <point x="104.499" y="-97.4258" type="curve" smooth="yes"/>
      <point x="112.98" y="-96.1426"/>
      <point x="116.104" y="-95.7422"/>
      <point x="121.243" y="-83.0391" type="curve" smooth="yes"/>
      <point x="123.245" y="-78.0908"/>
      <point x="125.376" y="-71.3721"/>
      <point x="127.619" y="-63" type="curve" smooth="yes"/>
      <point x="298.57" y="575" type="line" smooth="yes"/>
      <point x="304.019" y="596.374"/>
      <point x="305.589" y="606.63"/>
      <point x="304.795" y="613.656" type="curve" smooth="yes"/>
      <point x="304.125" y="619.581"/>
      <point x="301.759" y="621.631"/>
      <point x="298.374" y="623.241" type="curve" smooth="yes"/>
      <point x="292.626" y="625.976"/>
      <point x="282.021" y="627.5"/>
      <point x="263.138" y="627.5" type="curve" smooth="yes"/>
      <point x="182.638" y="627.5" type="line"/>
      <point x="200.858" y="695.5" type="line"/>
      <point x="469.858" y="695.5" type="line"/>
      <point x="238.887" y="-166.5" type="line"/>
    </contour>
  </outline>
</glyph>
<glyph name="grave" format="2">
  <advance width="333"/>
  <unicode hex="0060"/>
  <outline>
    <contour>
      <point x="421.285" y="510.5" type="line"/>
      <point x="321.806" y="510.5" type="line"/>
      <point x="199.849" y="601.128" type="line" smooth="yes"/>
      <point x="172.665" y="621.366"/>
      <point x="162.037" y="640.188"/>
      <point x="169.49" y="668" type="curve" smooth="yes"/>
      <point x="178.923" y="703.203"/>
      <point x="215.729" y="730.5"/>
      <point x="250.737" y="730.5" type="curve" smooth="yes"/>
      <point x="276.087" y="730.5"/>
      <point x="295.968" y="717.195"/>
      <point x="308.777" y="696.566" type="curve" smooth="yes"/>
    </contour>
  </outline>
</glyph>
<glyph name="c" format="2">
  <advance width="514"/>
  <unicode hex="0063"/>
  <outline>
    <contour>
      <point x="504.436" y="152.057" type="line"/>
      <point x="535.29" y="109.909" type="line"/>
      <point x="522.453" y="97.7041" type="line" smooth="yes"/>
      <point x="440.235" y="19.5312"/>
      <point x="369.815" y="-14"/>
      <point x="274.095" y="-14" type="curve" smooth="yes"/>
      <point x="118.63" y="-14"/>
      <point x="48.123" y="86.2969"/>
      <point x="84.8691" y="223.436" type="curve" smooth="yes"/>
      <point x="123.313" y="366.91"/>
      <point x="259.553" y="473"/>
      <point x="435.047" y="473" type="curve" smooth="yes"/>
      <point x="534.054" y="473"/>
      <point x="602.597" y="435.146"/>
      <point x="588.03" y="380.781" type="curve" smooth="yes"/>
      <point x="575.247" y="333.076"/>
      <point x="533.731" y="300.281"/>
      <point x="480.96" y="300.281" type="curve" smooth="yes"/>
      <point x="451.562" y="300.281"/>
      <point x="412.185" y="312.523"/>
      <point x="431.396" y="389.603" type="curve" smooth="yes"/>
      <point x="433.146" y="396.835"/>
      <point x="439.372" y="418.773"/>
      <point x="440.383" y="425.949" type="curve" smooth="yes"/>
      <point x="440.726" y="428.546"/>
      <point x="440.92" y="428.812"/>
      <point x="438.927" y="432.342" type="curve" smooth="yes"/>
      <point x="437.775" y="434.378"/>
      <point x="437.225" y="434.787"/>
      <point x="435.564" y="436" type="curve" smooth="yes"/>
      <point x="425.49" y="419.81"/>
      <point x="412.397" y="407"/>
      <point x="402.131" y="407" type="curve" smooth="yes"/>
      <point x="328.471" y="407"/>
      <point x="288.04" y="324.837"/>
      <point x="274.199" y="273.183" type="curve" smooth="yes"/>
      <point x="242.984" y="156.689"/>
      <point x="294.45" y="88"/>
      <point x="384.079" y="88" type="curve" smooth="yes"/>
      <point x="420.539" y="88"/>
      <point x="445.279" y="100.567"/>
      <point x="488.364" y="138.068" type="curve" smooth="yes"/>
    </contour>
  </outline>
</glyph>
<glyph name="d" format="2">
  <advance width="626"/>
  <unicode hex="0064"/>
  <outline>
    <contour>
      <point x="369.008" y="-18.6309" type="line"/>
      <point x="381.623" y="28.4502" type="line"/>
      <point x="326.807" y="-2.92285"/>
      <point x="281.347" y="-14"/>
      <point x="223.986" y="-14" type="curve" smooth="yes"/>
      <point x="102.68" y="-14"/>
      <point x="48.6133" y="88.127"/>
      <point x="84.3691" y="221.57" type="curve" smooth="yes"/>
      <point x="122.303" y="363.139"/>
      <point x="238.797" y="473"/>
      <point x="368.486" y="473" type="curve" smooth="yes"/>
      <point x="419.804" y="473"/>
      <point x="454.316" y="461.538"/>
      <point x="487.483" y="434.721" type="curve"/>
      <point x="525.473" y="576.5" type="line" smooth="yes"/>
      <point x="529.164" y="591.263"/>
      <point x="529.349" y="593.791"/>
      <point x="529.378" y="597.969" type="curve" smooth="yes"/>
      <point x="529.414" y="602.767"/>
      <point x="528.885" y="606.823"/>
      <point x="519.994" y="609.749" type="curve" smooth="yes"/>
      <point x="510.876" y="612.75"/>
      <point x="497.099" y="614.851"/>
      <point x="460.183" y="617.049" type="curve" smooth="yes"/>
      <point x="439.881" y="618.258" type="line"/>
      <point x="455.353" y="676" type="line"/>
      <point x="726.134" y="676" type="line"/>
      <point x="576.151" y="116.259" type="line" smooth="yes"/>
      <point x="572.618" y="101.7"/>
      <point x="572.349" y="96.5273"/>
      <point x="573.077" y="92.1875" type="curve" smooth="yes"/>
      <point x="573.622" y="88.9404"/>
      <point x="574.52" y="86.7383"/>
      <point x="577.94" y="84.4736" type="curve" smooth="yes"/>
      <point x="582.51" y="81.4463"/>
      <point x="590.433" y="79.0967"/>
      <point x="608.529" y="77.9629" type="curve" smooth="yes"/>
      <point x="624.604" y="76.8955" type="line"/>
      <point x="609.925" y="22.1133" type="line"/>
      <point x="529.852" y="12.127" type="line" smooth="yes"/>
      <point x="466.217" y="5.15332"/>
      <point x="441.944" y="0.530273"/>
      <point x="392.952" y="-12.3408" type="curve" smooth="yes"/>
    </contour>
    <contour>
      <point x="404.251" y="124.096" type="curve" smooth="yes"/>
      <point x="461.879" y="339.166" type="line"/>
      <point x="453.498" y="366.793"/>
      <point x="426.2" y="382"/>
      <point x="396.313" y="382" type="curve" smooth="yes"/>
      <point x="344.739" y="382"/>
      <point x="300.893" y="346.68"/>
      <point x="269.374" y="229.052" type="curve" smooth="yes"/>
      <point x="237.966" y="111.835"/>
      <point x="261.424" y="77"/>
      <point x="305.675" y="77" type="curve" smooth="yes"/>
      <point x="325.865" y="77"/>
      <point x="347.924" y="83.9072"/>
      <point x="376.079" y="102.276" type="curve" smooth="yes"/>
      <point x="395.355" y="114.853"/>
      <point x="404.249" y="124.088"/>
    </contour>
  </outline>
</glyph>
<glyph name="g" format="2">
  <advance width="570"/>
  <unicode hex="0067"/>
  <outline>
    <contour>
      <point x="649.266" y="363" type="line"/>
      <point x="587.191" y="363" type="line"/>
      <point x="595.778" y="341.897"/>
      <point x="596.269" y="318.227"/>
      <point x="588.446" y="289.033" type="curve" smooth="yes"/>
      <point x="573.733" y="234.125"/>
      <point x="535.291" y="191.464"/>
      <point x="478.493" y="164.882" type="curve" smooth="yes"/>
      <point x="433.171" y="142.05"/>
      <point x="401.831" y="136.502"/>
      <point x="348.054" y="136.502" type="curve" smooth="yes"/>
      <point x="287.085" y="137.502" type="line" smooth="yes"/>
      <point x="248.198" y="137.502"/>
      <point x="223.138" y="128.344"/>
      <point x="219.71" y="114.61" type="curve" smooth="yes"/>
      <point x="218.554" y="109.979"/>
      <point x="218.123" y="108.579"/>
      <point x="227.948" y="106.54" type="curve" smooth="yes"/>
      <point x="242.207" y="103.877"/>
      <point x="278.104" y="103"/>
      <point x="321.65" y="103" type="curve" smooth="yes"/>
      <point x="399.099" y="103" type="line" smooth="yes"/>
      <point x="509.396" y="103"/>
      <point x="566.64" y="50.9033"/>
      <point x="542.952" y="-37.5" type="curve" smooth="yes"/>
      <point x="524.893" y="-104.9"/>
      <point x="460.353" y="-206"/>
      <point x="204.833" y="-206" type="curve" smooth="yes"/>
      <point x="10.1299" y="-206"/>
      <point x="-9.59375" y="-140.3"/>
      <point x="2.14258" y="-96.5" type="curve" smooth="yes"/>
      <point x="12.6641" y="-57.2363"/>
      <point x="43.1445" y="-31.8379"/>
      <point x="83.6309" y="-17.123" type="curve"/>
      <point x="51.9023" y="-6.42969"/>
      <point x="43.5537" y="5.79883"/>
      <point x="48.6992" y="25" type="curve" smooth="yes"/>
      <point x="62.7285" y="77.3613"/>
      <point x="106.599" y="115.747"/>
      <point x="173.075" y="143.435" type="curve"/>
      <point x="152.096" y="156.526"/>
      <point x="138.406" y="169.301"/>
      <point x="127.586" y="187.715" type="curve" smooth="yes"/>
      <point x="109.849" y="217.903"/>
      <point x="105.526" y="255.743"/>
      <point x="115.857" y="294.301" type="curve" smooth="yes"/>
      <point x="144.499" y="401.193"/>
      <point x="257.719" y="473"/>
      <point x="401.74" y="473" type="curve" smooth="yes"/>
      <point x="464.359" y="473"/>
      <point x="494.281" y="464.6"/>
      <point x="528.413" y="451" type="curve"/>
      <point x="672.845" y="451" type="line"/>
    </contour>
    <contour>
      <point x="362.566" y="-52" type="curve" smooth="yes"/>
      <point x="160.868" y="-52" type="line"/>
      <point x="138.174" y="-67.4971"/>
      <point x="131.129" y="-74.1602"/>
      <point x="127.019" y="-89.5" type="curve" smooth="yes"/>
      <point x="116.408" y="-129.1"/>
      <point x="172.45" y="-139"/>
      <point x="251.363" y="-139" type="curve" smooth="yes"/>
      <point x="325.305" y="-139"/>
      <point x="404.676" y="-128.1"/>
      <point x="416.358" y="-84.5" type="curve" smooth="yes"/>
      <point x="421.664" y="-64.7002"/>
      <point x="409.859" y="-52"/>
    </contour>
    <contour>
      <point x="384.056" y="407" type="curve" smooth="yes"/>
      <point x="344.456" y="407"/>
      <point x="313.859" y="391.342"/>
      <point x="290.009" y="302.328" type="curve" smooth="yes"/>
      <point x="266.169" y="213.356"/>
      <point x="288.856" y="199.5"/>
      <point x="328.456" y="199.5" type="curve" smooth="yes"/>
      <point x="368.055" y="199.5"/>
      <point x="398.469" y="214.475"/>
      <point x="422.009" y="302.328" type="curve" smooth="yes"/>
      <point x="445.635" y="390.504"/>
      <point x="423.654" y="407"/>
    </contour>
  </outline>
</glyph>
<glyph name="h" format="2">
  <advance width="626"/>
  <unicode hex="0068"/>
  <outline>
    <contour>
      <point x="424.134" y="676" type="line"/>
      <point x="355.659" y="420.451" type="line"/>
      <point x="421.467" y="458.697"/>
      <point x="473.642" y="473"/>
      <point x="529.24" y="473" type="curve" smooth="yes"/>
      <point x="620.74" y="473"/>
      <point x="666.16" y="414.855"/>
      <point x="642.196" y="325.42" type="curve" smooth="yes"/>
      <point x="580.323" y="94.5068" type="line" smooth="yes"/>
      <point x="575.821" y="75.7988"/>
      <point x="576.189" y="70.2949"/>
      <point x="577.902" y="65.5479" type="curve" smooth="yes"/>
      <point x="578.749" y="63.2021"/>
      <point x="579.871" y="61.6064"/>
      <point x="582.226" y="60.0107" type="curve" smooth="yes"/>
      <point x="585.319" y="57.915"/>
      <point x="590.65" y="55.8301"/>
      <point x="602.658" y="54.8789" type="curve" smooth="yes"/>
      <point x="618.371" y="53.6338" type="line"/>
      <point x="604" y="0" type="line"/>
      <point x="318.029" y="0" type="line"/>
      <point x="332.001" y="52.1426" type="line"/>
      <point x="353.152" y="53.8037" type="line" smooth="yes"/>
      <point x="382.479" y="56.1084"/>
      <point x="397.357" y="61.0449"/>
      <point x="405.118" y="90.0088" type="curve" smooth="yes"/>
      <point x="464.371" y="311.146" type="line" smooth="yes"/>
      <point x="477.346" y="359.566"/>
      <point x="460.402" y="371"/>
      <point x="434.187" y="371" type="curve" smooth="yes"/>
      <point x="411.802" y="371"/>
      <point x="382.497" y="362.312"/>
      <point x="350.696" y="343.539" type="curve" smooth="yes"/>
      <point x="341.857" y="338.321"/>
      <point x="335.089" y="334.373"/>
      <point x="331.827" y="331.509" type="curve"/>
      <point x="267.118" y="90.0088" type="line" smooth="yes"/>
      <point x="266.249" y="86.1846"/>
      <point x="262.052" y="72.79"/>
      <point x="267.374" y="64.8838" type="curve" smooth="yes"/>
      <point x="268.146" y="63.7705"/>
      <point x="269.049" y="62.8447"/>
      <point x="270.219" y="61.9609" type="curve" smooth="yes"/>
      <point x="274.343" y="58.8486"/>
      <point x="283.413" y="55.5986"/>
      <point x="302.752" y="53.7705" type="curve" smooth="yes"/>
      <point x="322.556" y="51.8975" type="line"/>
      <point x="308.65" y="0" type="line"/>
      <point x="16" y="0" type="line"/>
      <point x="30.1074" y="52.6504" type="line"/>
      <point x="44.8867" y="55.3027" type="line" smooth="yes"/>
      <point x="62.0596" y="58.5879"/>
      <point x="70.0195" y="60.6631"/>
      <point x="75.9121" y="63.292" type="curve" smooth="yes"/>
      <point x="80.3203" y="65.2607"/>
      <point x="83.0605" y="66.9062"/>
      <point x="86.2305" y="72.4385" type="curve" smooth="yes"/>
      <point x="88.7539" y="76.8438"/>
      <point x="91.6602" y="84.5703"/>
      <point x="94.6406" y="95.6904" type="curve" smooth="yes"/>
      <point x="223.473" y="576.5" type="line" smooth="yes"/>
      <point x="227.216" y="591.312"/>
      <point x="227.71" y="594.719"/>
      <point x="227.845" y="599.067" type="curve" smooth="yes"/>
      <point x="227.961" y="602.823"/>
      <point x="227.871" y="606.396"/>
      <point x="221.801" y="609.609" type="curve" smooth="yes"/>
      <point x="217.202" y="612.043"/>
      <point x="210.296" y="614.28"/>
      <point x="195.552" y="617.325" type="curve" smooth="yes"/>
      <point x="182.153" y="620.092" type="line"/>
      <point x="197.134" y="676" type="line"/>
    </contour>
  </outline>
</glyph>
<glyph name="i" format="2">
  <advance width="313"/>
  <unicode hex="0069"/>
  <outline>
    <contour>
      <point x="366.524" y="461" type="line"/>
      <point x="268.542" y="95.3232" type="line" smooth="yes"/>
      <point x="264.937" y="80.208"/>
      <point x="265.021" y="74.8555"/>
      <point x="266.331" y="70.6924" type="curve" smooth="yes"/>
      <point x="267.067" y="68.3525"/>
      <point x="268.24" y="66.6377"/>
      <point x="270.359" y="65.0566" type="curve" smooth="yes"/>
      <point x="273.406" y="62.7842"/>
      <point x="279.337" y="60.377"/>
      <point x="290.737" y="58.8242" type="curve" smooth="yes"/>
      <point x="305.187" y="56.6777" type="line"/>
      <point x="290" y="0" type="line"/>
      <point x="16" y="0" type="line"/>
      <point x="30.8203" y="55.3086" type="line"/>
      <point x="45.1104" y="58.5205" type="line" smooth="yes"/>
      <point x="62.7607" y="62.3564"/>
      <point x="71.1689" y="64.6504"/>
      <point x="77.2852" y="67.3848" type="curve" smooth="yes"/>
      <point x="80.8535" y="68.9795"/>
      <point x="84.6299" y="70.5527"/>
      <point x="88.2646" y="77.7236" type="curve" smooth="yes"/>
      <point x="90.418" y="81.9746"/>
      <point x="92.7822" y="88.7568"/>
      <point x="95.2754" y="98.0615" type="curve" smooth="yes"/>
      <point x="167.75" y="368.54" type="line" smooth="yes"/>
      <point x="171.151" y="382.245"/>
      <point x="171.587" y="386.256"/>
      <point x="171.319" y="390.363" type="curve" smooth="yes"/>
      <point x="170.983" y="395.503"/>
      <point x="169.046" y="397.265"/>
      <point x="165.541" y="399.242" type="curve" smooth="yes"/>
      <point x="161.064" y="401.77"/>
      <point x="153.056" y="404.272"/>
      <point x="139.062" y="407.047" type="curve" smooth="yes"/>
      <point x="125.773" y="409.68" type="line"/>
      <point x="139.524" y="461" type="line"/>
    </contour>
    <contour>
      <point x="340.653" y="691" type="curve" smooth="yes"/>
      <point x="393.454" y="691"/>
      <point x="423.591" y="647.849"/>
      <point x="409.563" y="595.5" type="curve" smooth="yes"/>
      <point x="395.252" y="542.087"/>
      <point x="342.878" y="501"/>
      <point x="288.742" y="501" type="curve" smooth="yes"/>
      <point x="235.621" y="501"/>
      <point x="205.084" y="541.461"/>
      <point x="219.832" y="596.5" type="curve" smooth="yes"/>
      <point x="233.738" y="648.4"/>
      <point x="288.01" y="691"/>
    </contour>
  </outline>
</glyph>
<glyph name="k" format="2">
  <advance width="626"/>
  <unicode hex="006B"/>
  <outline>
    <contour>
      <point x="457.524" y="461" type="line"/>
      <point x="706.524" y="461" type="line"/>
      <point x="692.741" y="409.561" type="line"/>
      <point x="676.967" y="407.773" type="line" smooth="yes"/>
      <point x="618.535" y="401.154"/>
      <point x="592.052" y="387.312"/>
      <point x="480.094" y="301.812" type="curve"/>
      <point x="602.34" y="66.25" type="line" smooth="yes"/>
      <point x="606.407" y="58.8164"/>
      <point x="606.909" y="59"/>
      <point x="611.309" y="59" type="curve" smooth="yes"/>
      <point x="628.809" y="59" type="line"/>
      <point x="613" y="0" type="line"/>
      <point x="344" y="0" type="line"/>
      <point x="359.645" y="58.3857" type="line"/>
      <point x="376.681" y="58.9893" type="line" smooth="yes"/>
      <point x="391.017" y="59.8896"/>
      <point x="397.245" y="60.7402"/>
      <point x="402.027" y="62.5762" type="curve"/>
      <point x="401.079" y="69.75"/>
      <point x="395.983" y="82.7461"/>
      <point x="390.721" y="95.5195" type="curve" smooth="yes"/>
      <point x="306.18" y="212.096" type="line"/>
      <point x="299.859" y="208.469" type="line"/>
      <point x="271.197" y="101.5" type="line" smooth="yes"/>
      <point x="266.902" y="84.5439"/>
      <point x="266.341" y="80.624"/>
      <point x="266.369" y="75.5439" type="curve" smooth="yes"/>
      <point x="266.417" y="67.0811"/>
      <point x="269.715" y="66.127"/>
      <point x="278.612" y="64.0645" type="curve" smooth="yes"/>
      <point x="286.233" y="62.2979"/>
      <point x="299.047" y="60.5732"/>
      <point x="316.801" y="58.8086" type="curve" smooth="yes"/>
      <point x="339.162" y="56.5869" type="line"/>
      <point x="324" y="0" type="line"/>
      <point x="22" y="0" type="line"/>
      <point x="36.5205" y="54.1914" type="line"/>
      <point x="52.8018" y="55.5547" type="line" smooth="yes"/>
      <point x="74.6885" y="57.3887"/>
      <point x="87.4893" y="65.2695"/>
      <point x="95.6406" y="95.6904" type="curve" smooth="yes"/>
      <point x="224.473" y="576.5" type="line" smooth="yes"/>
      <point x="233.169" y="608.954"/>
      <point x="224.008" y="615.195"/>
      <point x="203.305" y="617.067" type="curve" smooth="yes"/>
      <point x="187.721" y="618.477" type="line"/>
      <point x="203.134" y="676" type="line"/>
      <point x="425.134" y="676" type="line"/>
      <point x="316.279" y="269.749" type="line"/>
      <point x="475.697" y="367.874" type="line" smooth="yes"/>
      <point x="488.016" y="378.357"/>
      <point x="494.473" y="386.693"/>
      <point x="497.565" y="391.957" type="curve" smooth="yes"/>
      <point x="498.243" y="393.188" type="line"/>
      <point x="498.243" y="393.188"/>
      <point x="497.777" y="391.94"/>
      <point x="498.484" y="393.69" type="curve"/>
      <point x="497.71" y="394.499"/>
      <point x="493.749" y="397.393"/>
      <point x="480.277" y="399.135" type="curve" smooth="yes"/>
      <point x="478.615" y="399.35" type="line"/>
      <point x="477.118" y="399.898" type="line" smooth="yes"/>
      <point x="475.281" y="400.57"/>
      <point x="472.791" y="400.155"/>
      <point x="456.428" y="403.282" type="curve" smooth="yes"/>
      <point x="442.759" y="405.895" type="line"/>
    </contour>
    <contour>
      <point x="503.199" y="411.163" type="curve" smooth="yes"/>
      <point x="503.186" y="411.178" type="line"/>
      <point x="503.158" y="411.093"/>
      <point x="503.127" y="411"/>
      <point x="503.127" y="411" type="curve"/>
      <point x="503.127" y="411"/>
      <point x="503.513" y="410.824"/>
    </contour>
  </outline>
</glyph>
<glyph name="o" format="2">
  <advance width="570"/>
  <unicode hex="006F"/>
  <outline>
    <contour>
      <point x="412.883" y="473" type="curve" smooth="yes"/>
      <point x="569.318" y="473"/>
      <point x="644.744" y="368.518"/>
      <point x="607.369" y="229.033" type="curve" smooth="yes"/>
      <point x="570.229" y="90.4229"/>
      <point x="438.81" y="-14"/>
      <point x="282.392" y="-14" type="curve" smooth="yes"/>
      <point x="123.843" y="-14"/>
      <point x="49.0518" y="89.7637"/>
      <point x="87.1191" y="231.832" type="curve" smooth="yes"/>
      <point x="123.437" y="367.371"/>
      <point x="258.085" y="473"/>
    </contour>
    <contour>
      <point x="396.485" y="407" type="curve" smooth="yes"/>
      <point x="348.228" y="407"/>
      <point x="311.849" y="391.302"/>
      <point x="264.714" y="215.391" type="curve" smooth="yes"/>
      <point x="226.314" y="72.083"/>
      <point x="252.591" y="52"/>
      <point x="300.076" y="52" type="curve" smooth="yes"/>
      <point x="346.79" y="52"/>
      <point x="383.439" y="72.5488"/>
      <point x="423.909" y="223.583" type="curve" smooth="yes"/>
      <point x="467.217" y="385.211"/>
      <point x="442.428" y="407"/>
    </contour>
  </outline>
</glyph>
<glyph name="p" format="2">
  <advance width="591"/>
  <unicode hex="0070"/>
  <outline>
    <contour>
      <point x="370.524" y="461" type="line"/>
      <point x="362.252" y="430.128" type="line"/>
      <point x="399.204" y="460.681"/>
      <point x="437.011" y="473"/>
      <point x="482.24" y="473" type="curve" smooth="yes"/>
      <point x="604.34" y="473"/>
      <point x="659.642" y="375.599"/>
      <point x="622.878" y="238.396" type="curve" smooth="yes"/>
      <point x="584.17" y="93.9336"/>
      <point x="470.391" y="-13"/>
      <point x="346.017" y="-13" type="curve" smooth="yes"/>
      <point x="305.517" y="-13"/>
      <point x="281.089" y="-1.98145"/>
      <point x="255.67" y="24.8936" type="curve"/>
      <point x="228.502" y="-76.5" type="line" smooth="yes"/>
      <point x="212.621" y="-135.769"/>
      <point x="222.032" y="-146.609"/>
      <point x="270.429" y="-149.021" type="curve" smooth="yes"/>
      <point x="286.851" y="-149.84" type="line"/>
      <point x="272.07" y="-205" type="line"/>
      <point x="-35.9297" y="-205" type="line"/>
      <point x="-20.8369" y="-148.675" type="line"/>
      <point x="-5.56152" y="-146.238" type="line" smooth="yes"/>
      <point x="12.6406" y="-143.111"/>
      <point x="21.2549" y="-141.032"/>
      <point x="27.6416" y="-138.282" type="curve" smooth="yes"/>
      <point x="35.1445" y="-135.053"/>
      <point x="37.1748" y="-131.353"/>
      <point x="39.1592" y="-127.428" type="curve" smooth="yes"/>
      <point x="39.2803" y="-127.189"/>
      <point x="42.3369" y="-121.9"/>
      <point x="46.7314" y="-105.5" type="curve" smooth="yes"/>
      <point x="173.163" y="366.348" type="line" smooth="yes"/>
      <point x="176.721" y="380.739"/>
      <point x="177.152" y="385.026"/>
      <point x="176.87" y="389.344" type="curve" smooth="yes"/>
      <point x="176.508" y="394.884"/>
      <point x="174.354" y="396.803"/>
      <point x="170.941" y="398.683" type="curve" smooth="yes"/>
      <point x="166.494" y="401.129"/>
      <point x="158.621" y="403.425"/>
      <point x="144.44" y="405.639" type="curve" smooth="yes"/>
      <point x="130.283" y="407.849" type="line"/>
      <point x="144.524" y="461" type="line"/>
    </contour>
    <contour>
      <point x="338.474" y="333.92" type="curve" smooth="yes"/>
      <point x="280.913" y="119.102" type="line"/>
      <point x="286.656" y="91.5"/>
      <point x="305.591" y="77"/>
      <point x="329.132" y="77" type="curve" smooth="yes"/>
      <point x="369.462" y="77"/>
      <point x="406.524" y="113.919"/>
      <point x="436.399" y="225.413" type="curve" smooth="yes"/>
      <point x="469.017" y="347.144"/>
      <point x="452.865" y="381"/>
      <point x="419.589" y="381" type="curve" smooth="yes"/>
      <point x="404.137" y="381"/>
      <point x="383.171" y="373.058"/>
      <point x="360.688" y="355.603" type="curve" smooth="yes"/>
      <point x="345.044" y="343.458"/>
      <point x="338.476" y="333.927"/>
    </contour>
  </outline>
</glyph>
<glyph name="r" format="2">
  <advance width="479"/>
  <unicode hex="0072"/>
  <outline>
    <contour>
      <point x="376.524" y="461" type="line"/>
      <point x="363.515" y="412.446" type="line"/>
      <point x="409.991" y="452.756"/>
      <point x="451.113" y="473"/>
      <point x="497.24" y="473" type="curve" smooth="yes"/>
      <point x="551.565" y="473"/>
      <point x="585.504" y="434.8"/>
      <point x="570.15" y="377.5" type="curve" smooth="yes"/>
      <point x="557.053" y="328.617"/>
      <point x="513.514" y="293"/>
      <point x="467.009" y="293" type="curve" smooth="yes"/>
      <point x="436.438" y="293"/>
      <point x="418.845" y="303.56"/>
      <point x="404.301" y="336.508" type="curve" smooth="yes"/>
      <point x="400.667" y="344.74"/>
      <point x="397.414" y="350.497"/>
      <point x="394.306" y="351.992" type="curve"/>
      <point x="375.96" y="351.458"/>
      <point x="343.388" y="322.404"/>
      <point x="330.552" y="274.5" type="curve" smooth="yes"/>
      <point x="279.91" y="85.5" type="line" smooth="yes"/>
      <point x="265.744" y="32.6348"/>
      <point x="271.197" y="27.2275"/>
      <point x="320.066" y="23.9629" type="curve" smooth="yes"/>
      <point x="336.133" y="22.8896" type="line"/>
      <point x="320.622" y="-35" type="line"/>
      <point x="19.6221" y="-35" type="line"/>
      <point x="34.6553" y="21.1055" type="line"/>
      <point x="49.7246" y="23.7178" type="line" smooth="yes"/>
      <point x="69.6836" y="27.4873"/>
      <point x="76.1133" y="29.5879"/>
      <point x="82.0781" y="32.8027" type="curve" smooth="yes"/>
      <point x="86.8887" y="35.3945"/>
      <point x="88.8096" y="37.6426"/>
      <point x="90.9111" y="40.8428" type="curve" smooth="yes"/>
      <point x="93.9746" y="45.5049"/>
      <point x="97.0947" y="52.6016"/>
      <point x="100.818" y="66.5" type="curve" smooth="yes"/>
      <point x="179.596" y="360.5" type="line" smooth="yes"/>
      <point x="183.827" y="377.718"/>
      <point x="183.918" y="382.587"/>
      <point x="182.914" y="387.214" type="curve" smooth="yes"/>
      <point x="182.293" y="390.078"/>
      <point x="180.795" y="392.363"/>
      <point x="178.472" y="394.117" type="curve" smooth="yes"/>
      <point x="174.607" y="397.035"/>
      <point x="166.143" y="400.095"/>
      <point x="151.843" y="402.168" type="curve" smooth="yes"/>
      <point x="137.324" y="404.272" type="line"/>
      <point x="152.524" y="461" type="line"/>
    </contour>
  </outline>
</glyph>
<glyph name="u" format="2">
  <advance width="591"/>
  <unicode hex="0075"/>
  <outline>
    <contour>
      <point x="337.604" y="-20.1387" type="line"/>
      <point x="351.767" y="32.7158" type="line"/>
      <point x="296.396" y="-2.12207"/>
      <point x="258.568" y="-14"/>
      <point x="211.749" y="-14" type="curve" smooth="yes"/>
      <point x="120.673" y="-14"/>
      <point x="75.5635" y="39.4219"/>
      <point x="100.178" y="131.286" type="curve" smooth="yes"/>
      <point x="162.465" y="363.743" type="line" smooth="yes"/>
      <point x="165.97" y="377.761"/>
      <point x="166.681" y="382.732"/>
      <point x="166.451" y="387.154" type="curve" smooth="yes"/>
      <point x="166.125" y="393.469"/>
      <point x="162.274" y="395.079"/>
      <point x="160.873" y="395.825" type="curve" smooth="yes"/>
      <point x="156.938" y="397.92"/>
      <point x="151.207" y="399.817"/>
      <point x="137.951" y="402.324" type="curve" smooth="yes"/>
      <point x="124.542" y="405.085" type="line"/>
      <point x="139.524" y="461" type="line"/>
      <point x="362.524" y="461" type="line"/>
      <point x="275.155" y="134.933" type="line" smooth="yes"/>
      <point x="264.091" y="93.6416"/>
      <point x="273.178" y="86"/>
      <point x="300.544" y="86" type="curve" smooth="yes"/>
      <point x="321.807" y="86"/>
      <point x="340.254" y="93.2295"/>
      <point x="373.206" y="116.461" type="curve"/>
      <point x="439.706" y="364.643" type="line" smooth="yes"/>
      <point x="443.184" y="378.86"/>
      <point x="443.433" y="383.414"/>
      <point x="442.772" y="387.604" type="curve" smooth="yes"/>
      <point x="442.264" y="390.829"/>
      <point x="441.033" y="393.37"/>
      <point x="437.12" y="395.543" type="curve" smooth="yes"/>
      <point x="431.862" y="398.464"/>
      <point x="423.448" y="400.615"/>
      <point x="403.835" y="402.056" type="curve" smooth="yes"/>
      <point x="388.076" y="403.344" type="line"/>
      <point x="403.524" y="461" type="line"/>
      <point x="639.524" y="461" type="line"/>
      <point x="545.705" y="110.861" type="line" smooth="yes"/>
      <point x="542.152" y="96.2832"/>
      <point x="541.643" y="90.2568"/>
      <point x="542.418" y="85.7197" type="curve" smooth="yes"/>
      <point x="543.217" y="81.0459"/>
      <point x="545.622" y="79.1357"/>
      <point x="548.562" y="77.7217" type="curve" smooth="yes"/>
      <point x="552.914" y="75.625"/>
      <point x="560.199" y="73.9082"/>
      <point x="574.931" y="73.2803" type="curve" smooth="yes"/>
      <point x="591.446" y="72.5752" type="line"/>
      <point x="577.688" y="21.2295" type="line"/>
      <point x="497.931" y="13.1055" type="line" smooth="yes"/>
      <point x="430.949" y="6.09473"/>
      <point x="408.816" y="2.5791"/>
      <point x="363.042" y="-12.0234" type="curve" smooth="yes"/>
    </contour>
  </outline>
</glyph>
<glyph name="v" format="2">
  <advance width="570"/>
  <unicode hex="0076"/>
  <outline>
    <contour>
      <point x="492.524" y="461" type="line"/>
      <point x="678.524" y="461" type="line"/>
      <point x="664.203" y="407.55" type="line"/>
      <point x="648.007" y="406.125" type="line" smooth="yes"/>
      <point x="626.238" y="404.209"/>
      <point x="621.175" y="402.798"/>
      <point x="593.404" y="364.839" type="curve" smooth="yes"/>
      <point x="292.553" y="-14" type="line"/>
      <point x="242.96" y="-14" type="line"/>
      <point x="195.11" y="271.961" type="line" smooth="yes"/>
      <point x="185.961" y="332.539"/>
      <point x="168.675" y="391.075"/>
      <point x="165.727" y="399.739" type="curve" smooth="yes"/>
      <point x="165.076" y="401.652"/>
      <point x="164.756" y="402.34"/>
      <point x="160.041" y="403.613" type="curve" smooth="yes"/>
      <point x="157.19" y="404.384"/>
      <point x="152.455" y="405.259"/>
      <point x="145.074" y="406.188" type="curve" smooth="yes"/>
      <point x="130.333" y="408.037" type="line"/>
      <point x="144.524" y="461" type="line"/>
      <point x="429.524" y="461" type="line"/>
      <point x="414.266" y="404.052" type="line"/>
      <point x="398.423" y="402.135" type="line" smooth="yes"/>
      <point x="389.357" y="401.039"/>
      <point x="381.854" y="400.317"/>
      <point x="378.385" y="400.028" type="curve" smooth="yes"/>
      <point x="369.662" y="399.302"/>
      <point x="362.326" y="397.965"/>
      <point x="359.259" y="395.708" type="curve"/>
      <point x="359.141" y="395.562"/>
      <point x="358.802" y="395.07"/>
      <point x="358.438" y="393.5" type="curve" smooth="yes"/>
      <point x="357.978" y="391.514"/>
      <point x="358.159" y="392.143"/>
      <point x="358.104" y="391.264" type="curve" smooth="yes"/>
      <point x="358.041" y="390.26"/>
      <point x="358.062" y="390.478"/>
      <point x="358.055" y="389.831" type="curve" smooth="yes"/>
      <point x="358.021" y="386.435"/>
      <point x="358.309" y="382.117"/>
      <point x="359.657" y="368.698" type="curve" smooth="yes"/>
      <point x="401.251" y="207.41" type="line"/>
      <point x="507.426" y="347.891" type="line" smooth="yes"/>
      <point x="519.485" y="366.25"/>
      <point x="525.706" y="378.771"/>
      <point x="527.562" y="386.5" type="curve" smooth="yes"/>
      <point x="529.615" y="395.045"/>
      <point x="530.281" y="396.679"/>
      <point x="519.449" y="399.181" type="curve" smooth="yes"/>
      <point x="513.747" y="400.498"/>
      <point x="505.041" y="401.471"/>
      <point x="493.407" y="402.019" type="curve" smooth="yes"/>
      <point x="476.929" y="402.795" type="line"/>
    </contour>
  </outline>
</glyph>
<glyph name="w" format="2">
  <advance width="827"/>
  <unicode hex="0077"/>
  <outline>
    <contour>
      <point x="765.524" y="461" type="line"/>
      <point x="935.524" y="461" type="line"/>
      <point x="920.531" y="405.045" type="line"/>
      <point x="905.604" y="402.314" type="line" smooth="yes"/>
      <point x="887.396" y="398.984"/>
      <point x="881.461" y="396.479"/>
      <point x="857.923" y="362.872" type="curve" smooth="yes"/>
      <point x="553.367" y="-49" type="line"/>
      <point x="505.705" y="-49" type="line"/>
      <point x="488.812" y="227.572" type="line"/>
      <point x="271.465" y="-49" type="line"/>
      <point x="220.475" y="-49" type="line"/>
      <point x="179.494" y="366.594" type="line" smooth="yes"/>
      <point x="176.556" y="392.658"/>
      <point x="173.906" y="419.422"/>
      <point x="168.809" y="430.04" type="curve" smooth="yes"/>
      <point x="167.165" y="433.465"/>
      <point x="165.614" y="434.77"/>
      <point x="162.531" y="436" type="curve" smooth="yes"/>
      <point x="160.938" y="436.228"/>
      <point x="158.498" y="436.502"/>
      <point x="154.248" y="436.846" type="curve" smooth="yes"/>
      <point x="140.354" y="437.97" type="line"/>
      <point x="146.524" y="461" type="line"/>
      <point x="403.524" y="461" type="line"/>
      <point x="388.338" y="404.322" type="line"/>
      <point x="372.737" y="402.176" type="line" smooth="yes"/>
      <point x="367.677" y="401.329"/>
      <point x="365.203" y="401.104"/>
      <point x="360.176" y="399.873" type="curve" smooth="yes"/>
      <point x="347.286" y="396.718"/>
      <point x="347.76" y="394.7"/>
      <point x="346.902" y="391.5" type="curve" smooth="yes"/>
      <point x="345.543" y="386.428"/>
      <point x="344.317" y="372.13"/>
      <point x="355.611" y="282.692" type="curve" smooth="yes"/>
      <point x="370.476" y="269.019"/>
      <point x="388.667" y="249.531"/>
      <point x="397.101" y="229.02" type="curve" smooth="yes"/>
      <point x="399.461" y="207.063" type="line"/>
      <point x="481.406" y="330.174" type="line"/>
      <point x="480.773" y="343.444" type="line" smooth="yes"/>
      <point x="480.263" y="367.396"/>
      <point x="479.976" y="382.913"/>
      <point x="477.735" y="391.794" type="curve" smooth="yes"/>
      <point x="476.274" y="397.582"/>
      <point x="475.345" y="398.489"/>
      <point x="468.927" y="399.875" type="curve" smooth="yes"/>
      <point x="465.747" y="400.562"/>
      <point x="461.701" y="401.116"/>
      <point x="452.455" y="402.092" type="curve" smooth="yes"/>
      <point x="437.172" y="403.703" type="line"/>
      <point x="452.524" y="461" type="line"/>
      <point x="721.524" y="461" type="line"/>
      <point x="706.071" y="403.327" type="line"/>
      <point x="689.607" y="402.055" type="line" smooth="yes"/>
      <point x="658.685" y="399.221"/>
      <point x="657.83" y="397.221"/>
      <point x="656.243" y="396.436" type="curve" smooth="yes"/>
      <point x="656.087" y="396.358"/>
      <point x="655.974" y="395.5"/>
      <point x="655.974" y="395.5" type="curve" smooth="yes"/>
      <point x="653.354" y="385.72"/>
      <point x="654.746" y="314.39"/>
      <point x="655.186" y="294.325" type="curve" smooth="yes"/>
      <point x="655.981" y="221.869" type="line"/>
      <point x="717.615" y="262.837" type="line" smooth="yes"/>
      <point x="717.968" y="263.38"/>
      <point x="785.43" y="365.076"/>
      <point x="792.682" y="383.539" type="curve" smooth="yes"/>
      <point x="792.888" y="384.083" type="line"/>
      <point x="793" y="384.414" type="line" smooth="yes"/>
      <point x="793.021" y="384.48"/>
      <point x="793.026" y="384.5"/>
      <point x="793.026" y="384.5" type="curve" smooth="yes"/>
      <point x="795.212" y="394.614"/>
      <point x="795.317" y="395.666"/>
      <point x="784.9" y="398.676" type="curve" smooth="yes"/>
      <point x="780.355" y="399.988"/>
      <point x="773.828" y="401.159"/>
      <point x="765.362" y="402.102" type="curve" smooth="yes"/>
      <point x="750.195" y="403.79" type="line"/>
    </contour>
  </outline>
</glyph>
<glyph name="z" format="2">
  <advance width="514"/>
  <unicode hex="007A"/>
  <outline>
    <contour>
      <point x="483.493" y="195" type="line"/>
      <point x="544.087" y="195" type="line"/>
      <point x="462.959" y="-35" type="line"/>
      <point x="11.6221" y="-35" type="line"/>
      <point x="24.2695" y="12.2021" type="line"/>
      <point x="365.878" y="393.902" type="line"/>
      <point x="238.92" y="392.172"/>
      <point x="218.742" y="373.721"/>
      <point x="178.017" y="297.046" type="curve" smooth="yes"/>
      <point x="171.088" y="284" type="line"/>
      <point x="113.214" y="284" type="line"/>
      <point x="169.366" y="461" type="line"/>
      <point x="609.524" y="461" type="line"/>
      <point x="598.12" y="418.439" type="line"/>
      <point x="266.685" y="67.001" type="line"/>
      <point x="356.312" y="67.1123"/>
      <point x="388.986" y="77.3926"/>
      <point x="428.801" y="116.949" type="curve" smooth="yes"/>
      <point x="448.448" y="136.47"/>
      <point x="459.313" y="150.977"/>
      <point x="476.483" y="182.238" type="curve" smooth="yes"/>
    </contour>
  </outline>
</glyph>
<glyph name="bar" format="2">
  <advance width="220"/>
  <unicode hex="007C"/>
  <outline>
    <contour>
      <point x="38.7197" y="-36.5" type="line"/>
      <point x="238.342" y="708.5" type="line"/>
      <point x="361.342" y="708.5" type="line"/>
      <point x="161.72" y="-36.5" type="line"/>
    </contour>
  </outline>
</glyph>
<glyph name="braceright" format="2">
  <advance width="394"/>
  <unicode hex="007D"/>
  <outline>
    <contour>
      <point x="177.869" y="132" type="line" smooth="yes"/>
      <point x="196.539" y="201.675"/>
      <point x="223.685" y="238.484"/>
      <point x="286.046" y="261.848" type="curve"/>
      <point x="235.728" y="284.886"/>
      <point x="228.558" y="321.172"/>
      <point x="247.536" y="392" type="curve" smooth="yes"/>
      <point x="293.355" y="563" type="line" smooth="yes"/>
      <point x="312.136" y="633.09"/>
      <point x="293.107" y="655.278"/>
      <point x="229.744" y="668.849" type="curve" smooth="yes"/>
      <point x="216.479" y="671.689" type="line"/>
      <point x="228.27" y="715.695" type="line"/>
      <point x="245.912" y="715.499" type="line" smooth="yes"/>
      <point x="335.931" y="714.496"/>
      <point x="376.911" y="707.3"/>
      <point x="407.611" y="683.76" type="curve" smooth="yes"/>
      <point x="440.613" y="658.455"/>
      <point x="448.043" y="617.816"/>
      <point x="431.748" y="557" type="curve" smooth="yes"/>
      <point x="383.785" y="378" type="line" smooth="yes"/>
      <point x="367.506" y="317.246"/>
      <point x="377.298" y="298.477"/>
      <point x="450.952" y="278.989" type="curve" smooth="yes"/>
      <point x="515.166" y="262" type="line"/>
      <point x="441.848" y="245.011" type="line" smooth="yes"/>
      <point x="357.75" y="225.523"/>
      <point x="337.899" y="206.754"/>
      <point x="321.62" y="146" type="curve" smooth="yes"/>
      <point x="273.657" y="-33" type="line" smooth="yes"/>
      <point x="257.604" y="-92.916"/>
      <point x="227.466" y="-135.68"/>
      <point x="181.322" y="-160.76" type="curve" smooth="yes"/>
      <point x="137.872" y="-184.378"/>
      <point x="92.2373" y="-191.495"/>
      <point x="2.61621" y="-192.499" type="curve" smooth="yes"/>
      <point x="-15.1328" y="-192.697" type="line"/>
      <point x="-3.37793" y="-148.828" type="line"/>
      <point x="11.2734" y="-145.882" type="line" smooth="yes"/>
      <point x="89.3418" y="-130.187"/>
      <point x="114.574" y="-104.221"/>
      <point x="132.05" y="-39" type="curve" smooth="yes"/>
    </contour>
  </outline>
</glyph>
<glyph name="asciitilde" format="2">
  <advance width="520"/>
  <unicode hex="007E"/>
  <outline>
    <contour>
      <point x="522.902" y="333.335" type="line"/>
      <point x="584.871" y="262.746" type="line"/>
      <point x="572.182" y="249.828" type="line" smooth="yes"/>
      <point x="506.791" y="183.256"/>
      <point x="462.982" y="157.5"/>
      <point x="410.202" y="157.5" type="curve" smooth="yes"/>
      <point x="374.016" y="157.5"/>
      <point x="346.16" y="167.241"/>
      <point x="306.258" y="192.624" type="curve" smooth="yes"/>
      <point x="267.757" y="217.114"/>
      <point x="242.821" y="225.5"/>
      <point x="211.423" y="225.5" type="curve" smooth="yes"/>
      <point x="187.083" y="225.5"/>
      <point x="173.263" y="217.067"/>
      <point x="147.331" y="190.786" type="curve" smooth="yes"/>
      <point x="131.963" y="175.211" type="line"/>
      <point x="71.8105" y="243.239" type="line"/>
      <point x="82.3623" y="255.737" type="line" smooth="yes"/>
      <point x="136.646" y="320.037"/>
      <point x="186.312" y="348.5"/>
      <point x="246.38" y="348.5" type="curve" smooth="yes"/>
      <point x="283.083" y="348.5"/>
      <point x="309.742" y="338.517"/>
      <point x="375.825" y="304.994" type="curve" smooth="yes"/>
      <point x="413.285" y="285.99"/>
      <point x="428.354" y="280.5"/>
      <point x="443.16" y="280.5" type="curve" smooth="yes"/>
      <point x="464.844" y="280.5"/>
      <point x="486.612" y="298.747"/>
      <point x="507.625" y="318.773" type="curve" smooth="yes"/>
    </contour>
  </outline>
</glyph>
<glyph name="uni0592" format="2">
  <advance width="0"/>
  <unicode hex="0592"/>
  <outline>
    <contour>
      <point x="101.808" y="630" type="curve" smooth="yes"/>
      <point x="70.9873" y="630"/>
      <point x="54.0352" y="655.105"/>
      <point x="61.9111" y="684.5" type="curve" smooth="yes"/>
      <point x="69.9385" y="714.459"/>
      <point x="100.417" y="740"/>
      <point x="131.282" y="740" type="curve" smooth="yes"/>
      <point x="162.192" y="740"/>
      <point x="178.937" y="714.452"/>
      <point x="170.911" y="684.5" type="curve" smooth="yes"/>
      <point x="163.034" y="655.104"/>
      <point x="132.598" y="630"/>
    </contour>
    <contour>
      <point x="199.622" y="745" type="curve" smooth="yes"/>
      <point x="168.97" y="745"/>
      <point x="150.783" y="769.86"/>
      <point x="158.993" y="800.5" type="curve" smooth="yes"/>
      <point x="167.059" y="830.6"/>
      <point x="198.527" y="855"/>
      <point x="229.097" y="855" type="curve" smooth="yes"/>
      <point x="259.664" y="855"/>
      <point x="278.058" y="830.596"/>
      <point x="269.993" y="800.5" type="curve" smooth="yes"/>
      <point x="261.78" y="769.848"/>
      <point x="230.262" y="745"/>
    </contour>
    <contour>
      <point x="235.808" y="630" type="curve" smooth="yes"/>
      <point x="204.987" y="630"/>
      <point x="188.035" y="655.105"/>
      <point x="195.911" y="684.5" type="curve" smooth="yes"/>
      <point x="203.938" y="714.459"/>
      <point x="234.417" y="740"/>
      <point x="265.282" y="740" type="curve" smooth="yes"/>
      <point x="296.192" y="740"/>
      <point x="312.937" y="714.452"/>
      <point x="304.911" y="684.5" type="curve" smooth="yes"/>
      <point x="297.034" y="655.104"/>
      <point x="266.598" y="630"/>
    </contour>
  </outline>
</glyph>
<glyph name="uni0594" format="2">
  <advance width="0"/>
  <unicode hex="0594"/>
  <outline>
    <contour>
      <point x="198.282" y="740" type="curve" smooth="yes"/>
      <point x="228.935" y="740"/>
      <point x="247.121" y="715.14"/>
      <point x="238.911" y="684.5" type="curve" smooth="yes"/>
      <point x="230.846" y="654.4"/>
      <point x="199.377" y="630"/>
      <point x="168.808" y="630" type="curve" smooth="yes"/>
      <point x="138.24" y="630"/>
      <point x="119.847" y="654.404"/>
      <point x="127.911" y="684.5" type="curve" smooth="yes"/>
      <point x="136.124" y="715.152"/>
      <point x="167.643" y="740"/>
    </contour>
    <contour>
      <point x="229.097" y="855" type="curve" smooth="yes"/>
      <point x="259.664" y="855"/>
      <point x="278.058" y="830.596"/>
      <point x="269.993" y="800.5" type="curve" smooth="yes"/>
      <point x="261.78" y="769.848"/>
      <point x="230.262" y="745"/>
      <point x="199.622" y="745" type="curve" smooth="yes"/>
      <point x="168.97" y="745"/>
      <point x="150.783" y="769.86"/>
      <point x="158.993" y="800.5" type="curve" smooth="yes"/>
      <point x="167.059" y="830.6"/>
      <point x="198.527" y="855"/>
    </contour>
  </outline>
</glyph>
<glyph name="uni0595" format="2">
  <advance width="0"/>
  <unicode hex="0595"/>
  <outline>
    <contour>
      <point x="121.612" y="633" type="curve" smooth="yes"/>
      <point x="97.6123" y="633" type="line" smooth="yes"/>
      <point x="80.6621" y="633"/>
      <point x="67.4883" y="645.6"/>
      <point x="72.5518" y="664.5" type="curve" smooth="yes"/>
      <point x="114.353" y="820.5" type="line" smooth="yes"/>
      <point x="119.535" y="839.844"/>
      <point x="139.778" y="852"/>
      <point x="156.293" y="852" type="curve" smooth="yes"/>
      <point x="180.293" y="852" type="line" smooth="yes"/>
      <point x="197.243" y="852"/>
      <point x="210.417" y="839.4"/>
      <point x="205.353" y="820.5" type="curve" smooth="yes"/>
      <point x="163.553" y="664.5" type="line" smooth="yes"/>
      <point x="158.369" y="645.156"/>
      <point x="138.126" y="633"/>
    </contour>
    <contour>
      <point x="248.282" y="740" type="curve" smooth="yes"/>
      <point x="278.935" y="740"/>
      <point x="297.121" y="715.14"/>
      <point x="288.911" y="684.5" type="curve" smooth="yes"/>
      <point x="280.846" y="654.4"/>
      <point x="249.377" y="630"/>
      <point x="218.808" y="630" type="curve" smooth="yes"/>
      <point x="188.24" y="630"/>
      <point x="169.847" y="654.404"/>
      <point x="177.911" y="684.5" type="curve" smooth="yes"/>
      <point x="186.124" y="715.152"/>
      <point x="217.643" y="740"/>
    </contour>
    <contour>
      <point x="279.097" y="855" type="curve" smooth="yes"/>
      <point x="309.664" y="855"/>
      <point x="328.058" y="830.596"/>
      <point x="319.993" y="800.5" type="curve" smooth="yes"/>
      <point x="311.78" y="769.848"/>
      <point x="280.262" y="745"/>
      <point x="249.622" y="745" type="curve" smooth="yes"/>
      <point x="218.97" y="745"/>
      <point x="200.783" y="769.86"/>
      <point x="208.993" y="800.5" type="curve" smooth="yes"/>
      <point x="217.059" y="830.6"/>
      <point x="248.527" y="855"/>
    </contour>
  </outline>
</glyph>
<glyph name="uni0598" format="2">
  <advance width="0"/>
  <unicode hex="0598"/>
  <outline>
    <contour>
      <point x="120.127" y="733.045" type="line" smooth="yes"/>
      <point x="119.772" y="733.529"/>
      <point x="118.011" y="736"/>
      <point x="113.211" y="736" type="curve" smooth="yes"/>
      <point x="106.896" y="736"/>
      <point x="100.325" y="730.83"/>
      <point x="98.6289" y="724.5" type="curve" smooth="yes"/>
      <point x="94.627" y="709.562"/>
      <point x="104.495" y="697"/>
      <point x="118.761" y="697" type="curve" smooth="yes"/>
      <point x="137.174" y="697"/>
      <point x="148.19" y="681.809"/>
      <point x="143.284" y="663.5" type="curve" smooth="yes"/>
      <point x="138.351" y="645.086"/>
      <point x="119.116" y="630"/>
      <point x="100.808" y="630" type="curve" smooth="yes"/>
      <point x="48.9482" y="630"/>
      <point x="17.7334" y="672.64"/>
      <point x="31.6289" y="724.5" type="curve" smooth="yes"/>
      <point x="45.7354" y="777.145"/>
      <point x="99.8213" y="820"/>
      <point x="151.719" y="820" type="curve" smooth="yes"/>
      <point x="178.575" y="820"/>
      <point x="199.147" y="808.826"/>
      <point x="211.527" y="791.915" type="curve" smooth="yes"/>
      <point x="268.163" y="715.915" type="line" smooth="yes"/>
      <point x="268.518" y="715.431"/>
      <point x="270.248" y="713"/>
      <point x="275.048" y="713" type="curve" smooth="yes"/>
      <point x="281.363" y="713"/>
      <point x="287.933" y="718.17"/>
      <point x="289.629" y="724.5" type="curve" smooth="yes"/>
      <point x="293.632" y="739.438"/>
      <point x="283.764" y="752"/>
      <point x="269.498" y="752" type="curve" smooth="yes"/>
      <point x="249.697" y="752"/>
      <point x="240.163" y="767.544"/>
      <point x="244.974" y="785.5" type="curve" smooth="yes"/>
      <point x="249.727" y="803.236"/>
      <point x="267.803" y="820"/>
      <point x="287.719" y="820" type="curve" smooth="yes"/>
      <point x="339.618" y="820"/>
      <point x="370.734" y="777.143"/>
      <point x="356.629" y="724.5" type="curve" smooth="yes"/>
      <point x="342.733" y="672.64"/>
      <point x="288.668" y="630"/>
      <point x="236.808" y="630" type="curve" smooth="yes"/>
      <point x="209.951" y="630"/>
      <point x="189.41" y="641.134"/>
      <point x="177.03" y="658.045" type="curve" smooth="yes"/>
    </contour>
  </outline>
</glyph>
<glyph name="uni059D" format="2">
  <advance width="0"/>
  <unicode hex="059D"/>
  <outline>
    <contour>
      <point x="153.288" y="656.824" type="curve" smooth="yes"/>
      <point x="146.48" y="641.026"/>
      <point x="130.193" y="630"/>
      <point x="114.808" y="630" type="curve" smooth="yes"/>
      <point x="99.0576" y="630"/>
      <point x="86.3555" y="642.831"/>
      <point x="91.8125" y="661.729" type="curve" smooth="yes"/>
      <point x="113.839" y="738.005"/>
      <point x="166.495" y="827.369"/>
      <point x="244.971" y="875.42" type="curve" smooth="yes"/>
      <point x="255.019" y="881.572"/>
      <point x="265.253" y="885"/>
      <point x="275.135" y="885" type="curve" smooth="yes"/>
      <point x="301.38" y="885"/>
      <point x="316.926" y="863.694"/>
      <point x="309.907" y="837.5" type="curve" smooth="yes"/>
      <point x="303.532" y="813.709"/>
      <point x="284.376" y="801.322"/>
      <point x="276.676" y="797.877" type="curve" smooth="yes"/>
      <point x="220.174" y="772.601"/>
      <point x="191.018" y="744.368"/>
    </contour>
  </outline>
</glyph>
<glyph name="uni059F" format="2">
  <advance width="0"/>
  <unicode hex="059F"/>
  <outline>
    <contour>
      <point x="150.701" y="727.066" type="line"/>
      <point x="165.444" y="684.418" type="line" smooth="yes"/>
      <point x="166.775" y="680.031"/>
      <point x="167.495" y="674.419"/>
      <point x="165.829" y="668.201" type="curve" smooth="yes"/>
      <point x="161.796" y="653.148"/>
      <point x="148.223" y="645.76"/>
      <point x="140.226" y="643.035" type="curve" smooth="yes"/>
      <point x="108.546" y="633.035" type="line" smooth="yes"/>
      <point x="103.407" y="631.284"/>
      <point x="99.46" y="630.676"/>
      <point x="95.7334" y="630.676" type="curve" smooth="yes"/>
      <point x="82.4053" y="630.676"/>
      <point x="76.0381" y="639.568"/>
      <point x="74.8496" y="650.66" type="curve" smooth="yes"/>
      <point x="72.7168" y="683.412" type="line"/>
      <point x="65.6416" y="681.983"/>
      <point x="58.4717" y="681.212"/>
      <point x="51.3633" y="681.212" type="curve" smooth="yes"/>
      <point x="40.5137" y="681.212"/>
      <point x="29.9131" y="683.078"/>
      <point x="20.042" y="687.084" type="curve" smooth="yes"/>
      <point x="-17.4951" y="702.315"/>
      <point x="-32.8564" y="741.688"/>
      <point x="-21.6025" y="783.688" type="curve" smooth="yes"/>
      <point x="-18.502" y="795.26"/>
      <point x="-13.3604" y="807.041"/>
      <point x="-6.13477" y="818.48" type="curve" smooth="yes"/>
      <point x="20.1699" y="860.129"/>
      <point x="66.6152" y="886.091"/>
      <point x="108.614" y="886.091" type="curve" smooth="yes"/>
      <point x="120.188" y="886.091"/>
      <point x="131.624" y="884.191"/>
      <point x="141.867" y="879.902" type="curve" smooth="yes"/>
      <point x="179.644" y="864.084"/>
      <point x="193.365" y="824.014"/>
      <point x="182.407" y="783.117" type="curve" smooth="yes"/>
      <point x="177.611" y="765.221"/>
      <point x="167.732" y="746.607"/>
      <point x="153.425" y="730.145" type="curve" smooth="yes"/>
    </contour>
    <contour>
      <point x="112.04" y="777.336" type="curve" smooth="yes"/>
      <point x="115.271" y="789.39"/>
      <point x="110.689" y="802.053"/>
      <point x="99.0596" y="807.143" type="curve" smooth="yes"/>
      <point x="96.0234" y="808.471"/>
      <point x="92.917" y="808.844"/>
      <point x="89.4902" y="808.844" type="curve" smooth="yes"/>
      <point x="76.8652" y="808.844"/>
      <point x="62.7402" y="800.936"/>
      <point x="54.5576" y="787.674" type="curve" smooth="yes"/>
      <point x="52.4258" y="784.217"/>
      <point x="50.8184" y="780.641"/>
      <point x="49.8887" y="777.174" type="curve" smooth="yes"/>
      <point x="46.4834" y="764.465"/>
      <point x="51.1924" y="752.411"/>
      <point x="62.3447" y="747.966" type="curve" smooth="yes"/>
      <point x="65.457" y="746.725"/>
      <point x="68.7881" y="746.146"/>
      <point x="72.2559" y="746.146" type="curve" smooth="yes"/>
      <point x="84.9639" y="746.146"/>
      <point x="99.2441" y="754.404"/>
      <point x="107.083" y="766.714" type="curve" smooth="yes"/>
      <point x="109.305" y="770.202"/>
      <point x="111.116" y="773.885"/>
    </contour>
    <contour>
      <point x="343.968" y="808.844" type="curve" smooth="yes"/>
      <point x="340.542" y="808.844"/>
      <point x="337.232" y="808.47"/>
      <point x="333.487" y="807.143" type="curve" smooth="yes"/>
      <point x="319.137" y="802.055"/>
      <point x="307.763" y="789.39"/>
      <point x="304.532" y="777.336" type="curve" smooth="yes"/>
      <point x="303.608" y="773.886"/>
      <point x="303.446" y="770.2"/>
      <point x="303.798" y="766.714" type="curve" smooth="yes"/>
      <point x="305.041" y="754.392"/>
      <point x="314.883" y="746.146"/>
      <point x="327.603" y="746.146" type="curve" smooth="yes"/>
      <point x="331.068" y="746.146"/>
      <point x="334.714" y="746.726"/>
      <point x="338.489" y="747.966" type="curve" smooth="yes"/>
      <point x="352.037" y="752.415"/>
      <point x="363.188" y="764.454"/>
      <point x="366.598" y="777.174" type="curve" smooth="yes"/>
      <point x="367.525" y="780.639"/>
      <point x="367.836" y="784.218"/>
      <point x="367.556" y="787.674" type="curve" smooth="yes"/>
      <point x="366.479" y="800.95"/>
      <point x="356.6" y="808.844"/>
    </contour>
    <contour>
      <point x="313.697" y="681.212" type="curve" smooth="yes"/>
      <point x="306.587" y="681.212"/>
      <point x="299.832" y="681.983"/>
      <point x="293.522" y="683.412" type="curve"/>
      <point x="273.838" y="650.66" type="line" smooth="yes"/>
      <point x="268.941" y="643.045"/>
      <point x="257.923" y="630.676"/>
      <point x="242.245" y="630.676" type="curve" smooth="yes"/>
      <point x="238.519" y="630.676"/>
      <point x="234.897" y="631.284"/>
      <point x="230.696" y="633.035" type="curve" smooth="yes"/>
      <point x="204.376" y="643.035" type="line" smooth="yes"/>
      <point x="196.594" y="646.279"/>
      <point x="188.546" y="654.343"/>
      <point x="192.259" y="668.201" type="curve" smooth="yes"/>
      <point x="193.972" y="674.594"/>
      <point x="197.814" y="680.225"/>
      <point x="201.335" y="684.418" type="curve" smooth="yes"/>
      <point x="238.954" y="727.091" type="line"/>
      <point x="237.858" y="730.145" type="line" smooth="yes"/>
      <point x="232.337" y="746.59"/>
      <point x="232.469" y="765.219"/>
      <point x="237.265" y="783.117" type="curve" smooth="yes"/>
      <point x="248.221" y="824.008"/>
      <point x="283.425" y="864.087"/>
      <point x="329.67" y="879.902" type="curve" smooth="yes"/>
      <point x="342.213" y="884.191"/>
      <point x="354.667" y="886.091"/>
      <point x="366.24" y="886.091" type="curve" smooth="yes"/>
      <point x="408.236" y="886.091"/>
      <point x="440.772" y="860.125"/>
      <point x="444.757" y="818.48" type="curve" smooth="yes"/>
      <point x="445.852" y="807.04"/>
      <point x="444.681" y="795.261"/>
      <point x="441.579" y="783.688" type="curve" smooth="yes"/>
      <point x="430.326" y="741.691"/>
      <point x="393.86" y="702.315"/>
      <point x="348.166" y="687.084" type="curve" smooth="yes"/>
      <point x="336.145" y="683.077"/>
      <point x="324.55" y="681.212"/>
    </contour>
  </outline>
</glyph>
<glyph name="uni05A0" format="2">
  <advance width="0"/>
  <unicode hex="05A0"/>
  <outline>
    <contour>
      <point x="221.483" y="808.844" type="curve" smooth="yes"/>
      <point x="217.878" y="808.844"/>
      <point x="214.43" y="808.531"/>
      <point x="210.376" y="807.107" type="curve" smooth="yes"/>
      <point x="196.133" y="802.104"/>
      <point x="185.208" y="789.558"/>
      <point x="181.8" y="776.837" type="curve" smooth="yes"/>
      <point x="180.867" y="773.357"/>
      <point x="180.513" y="769.871"/>
      <point x="180.829" y="766.428" type="curve" smooth="yes"/>
      <point x="181.966" y="754.088"/>
      <point x="191.718" y="746.146"/>
      <point x="205.087" y="746.146" type="curve" smooth="yes"/>
      <point x="208.731" y="746.146"/>
      <point x="212.515" y="746.671"/>
      <point x="216.6" y="748.001" type="curve" smooth="yes"/>
      <point x="230.151" y="752.414"/>
      <point x="241.188" y="764.454"/>
      <point x="244.597" y="777.174" type="curve" smooth="yes"/>
      <point x="245.525" y="780.639"/>
      <point x="245.836" y="784.218"/>
      <point x="245.556" y="787.674" type="curve" smooth="yes"/>
      <point x="244.48" y="800.934"/>
      <point x="234.77" y="808.844"/>
    </contour>
    <contour>
      <point x="191.53" y="681.212" type="curve" smooth="yes"/>
      <point x="184.519" y="681.212"/>
      <point x="177.804" y="681.941"/>
      <point x="171.437" y="683.269" type="curve"/>
      <point x="151.838" y="650.66" type="line" smooth="yes"/>
      <point x="146.755" y="642.756"/>
      <point x="135.781" y="630.676"/>
      <point x="119.89" y="630.676" type="curve" smooth="yes"/>
      <point x="117.402" y="630.676"/>
      <point x="113.284" y="630.984"/>
      <point x="107.891" y="632.959" type="curve" smooth="yes"/>
      <point x="82.293" y="643.066" type="line" smooth="yes"/>
      <point x="72.8848" y="646.989"/>
      <point x="66.4434" y="655.608"/>
      <point x="69.8447" y="668.301" type="curve" smooth="yes"/>
      <point x="71.7061" y="675.249"/>
      <point x="75.6582" y="680.717"/>
      <point x="79.9023" y="685.037" type="curve" smooth="yes"/>
      <point x="116.693" y="727.918" type="line"/>
      <point x="116.445" y="728.771"/>
      <point x="116.003" y="729.736"/>
      <point x="115.693" y="730.628" type="curve" smooth="yes"/>
      <point x="109.92" y="747.218"/>
      <point x="110.023" y="765.205"/>
      <point x="114.851" y="783.222" type="curve" smooth="yes"/>
      <point x="125.853" y="824.279"/>
      <point x="161.575" y="864.139"/>
      <point x="207.671" y="879.902" type="curve" smooth="yes"/>
      <point x="220.213" y="884.191"/>
      <point x="232.668" y="886.091"/>
      <point x="244.241" y="886.091" type="curve" smooth="yes"/>
      <point x="286.236" y="886.091"/>
      <point x="318.772" y="860.125"/>
      <point x="322.757" y="818.48" type="curve" smooth="yes"/>
      <point x="323.852" y="807.04"/>
      <point x="322.681" y="795.261"/>
      <point x="319.579" y="783.688" type="curve" smooth="yes"/>
      <point x="308.326" y="741.691"/>
      <point x="271.86" y="702.314"/>
      <point x="226.166" y="687.084" type="curve" smooth="yes"/>
      <point x="214.145" y="683.077"/>
      <point x="202.514" y="681.212"/>
    </contour>
  </outline>
</glyph>
<glyph name="uni05A1" format="2">
  <advance width="0"/>
  <unicode hex="05A1"/>
  <outline>
    <contour>
      <point x="185.802" y="755" type="line"/>
      <point x="187.302" y="755" type="line" smooth="yes"/>
      <point x="191.879" y="755.174"/>
      <point x="200.127" y="754.957"/>
      <point x="208.262" y="757.938" type="curve" smooth="yes"/>
      <point x="212.756" y="759.584"/>
      <point x="216.699" y="762.029"/>
      <point x="220.354" y="768.237" type="curve" smooth="yes"/>
      <point x="222.158" y="771.302"/>
      <point x="224.56" y="776.49"/>
      <point x="226.706" y="784.5" type="curve" smooth="yes"/>
      <point x="236.353" y="820.5" type="line" smooth="yes"/>
      <point x="241.417" y="839.4"/>
      <point x="260.943" y="852"/>
      <point x="277.293" y="852" type="curve" smooth="yes"/>
      <point x="302.293" y="852" type="line" smooth="yes"/>
      <point x="318.675" y="852"/>
      <point x="331.401" y="839.345"/>
      <point x="326.353" y="820.5" type="curve" smooth="yes"/>
      <point x="313.759" y="773.5" type="line" smooth="yes"/>
      <point x="296.932" y="710.7"/>
      <point x="252.274" y="695"/>
      <point x="211.225" y="695" type="curve" smooth="yes"/>
      <point x="169.725" y="695" type="line"/>
      <point x="161.553" y="664.5" type="line" smooth="yes"/>
      <point x="156.488" y="645.6"/>
      <point x="136.962" y="633"/>
      <point x="120.612" y="633" type="curve" smooth="yes"/>
      <point x="95.6123" y="633" type="line" smooth="yes"/>
      <point x="79.2305" y="633"/>
      <point x="66.5029" y="645.655"/>
      <point x="71.5518" y="664.5" type="curve" smooth="yes"/>
      <point x="113.353" y="820.5" type="line" smooth="yes"/>
      <point x="118.454" y="839.539"/>
      <point x="137.751" y="852"/>
      <point x="154.293" y="852" type="curve" smooth="yes"/>
      <point x="179.293" y="852" type="line" smooth="yes"/>
      <point x="195.643" y="852"/>
      <point x="208.417" y="839.4"/>
      <point x="203.353" y="820.5" type="curve" smooth="yes"/>
    </contour>
  </outline>
</glyph>
<glyph name="uni05A3" format="2">
  <advance width="0"/>
  <unicode hex="05A3"/>
  <outline>
    <contour>
      <point x="27.667" y="-130" type="line"/>
      <point x="51.1123" y="-42.5" type="line" smooth="yes"/>
      <point x="55.9893" y="-24.2998"/>
      <point x="74.0049" y="-10"/>
      <point x="92.3203" y="-10" type="curve" smooth="yes"/>
      <point x="97.3203" y="-10" type="line" smooth="yes"/>
      <point x="115.521" y="-10"/>
      <point x="126.02" y="-24.1846"/>
      <point x="121.112" y="-42.5" type="curve" smooth="yes"/>
      <point x="82.2598" y="-187.5" type="line" smooth="yes"/>
      <point x="77.3828" y="-205.7"/>
      <point x="59.3662" y="-220"/>
      <point x="41.0508" y="-220" type="curve" smooth="yes"/>
      <point x="-158.949" y="-220" type="line" smooth="yes"/>
      <point x="-177.148" y="-220"/>
      <point x="-187.648" y="-205.815"/>
      <point x="-182.74" y="-187.5" type="curve" smooth="yes"/>
      <point x="-176.042" y="-162.5" type="line" smooth="yes"/>
      <point x="-171.165" y="-144.3"/>
      <point x="-153.148" y="-130"/>
      <point x="-134.833" y="-130" type="curve" smooth="yes"/>
    </contour>
  </outline>
</glyph>
<glyph name="uni05A5" format="2">
  <advance width="0"/>
  <unicode hex="05A5"/>
  <outline>
    <contour>
      <point x="12.8398" y="-36.8242" type="curve" smooth="yes"/>
      <point x="19.6484" y="-21.0264"/>
      <point x="35.9346" y="-10"/>
      <point x="51.3203" y="-10" type="curve" smooth="yes"/>
      <point x="67.0703" y="-10"/>
      <point x="79.7734" y="-22.8311"/>
      <point x="74.3164" y="-41.7275" type="curve" smooth="yes"/>
      <point x="52.29" y="-118.005"/>
      <point x="-0.366211" y="-207.369"/>
      <point x="-78.8418" y="-255.42" type="curve" smooth="yes"/>
      <point x="-88.8896" y="-261.572"/>
      <point x="-99.125" y="-265"/>
      <point x="-109.007" y="-265" type="curve" smooth="yes"/>
      <point x="-135.252" y="-265"/>
      <point x="-150.798" y="-243.694"/>
      <point x="-143.779" y="-217.5" type="curve" smooth="yes"/>
      <point x="-137.404" y="-193.709"/>
      <point x="-118.247" y="-181.322"/>
      <point x="-110.547" y="-177.877" type="curve" smooth="yes"/>
      <point x="-54.0459" y="-152.601"/>
      <point x="-24.8887" y="-124.368"/>
    </contour>
  </outline>
</glyph>
<glyph name="uni05A6" format="2">
  <advance width="0"/>
  <unicode hex="05A6"/>
  <outline>
    <contour>
      <point x="72.8398" y="-36.8242" type="curve" smooth="yes"/>
      <point x="79.6484" y="-21.0264"/>
      <point x="95.9346" y="-10"/>
      <point x="111.32" y="-10" type="curve" smooth="yes"/>
      <point x="127.07" y="-10"/>
      <point x="139.773" y="-22.8311"/>
      <point x="134.316" y="-41.7275" type="curve" smooth="yes"/>
      <point x="112.29" y="-118.005"/>
      <point x="59.6338" y="-207.369"/>
      <point x="-18.8418" y="-255.42" type="curve" smooth="yes"/>
      <point x="-28.8896" y="-261.572"/>
      <point x="-39.125" y="-265"/>
      <point x="-49.0068" y="-265" type="curve" smooth="yes"/>
      <point x="-75.252" y="-265"/>
      <point x="-90.7979" y="-243.694"/>
      <point x="-83.7793" y="-217.5" type="curve" smooth="yes"/>
      <point x="-82.834" y="-213.974"/>
      <point x="-81.6084" y="-210.699"/>
      <point x="-80.1816" y="-207.666" type="curve"/>
      <point x="-97.7246" y="-225.944"/>
      <point x="-117.312" y="-242.237"/>
      <point x="-138.842" y="-255.42" type="curve" smooth="yes"/>
      <point x="-148.89" y="-261.572"/>
      <point x="-159.125" y="-265"/>
      <point x="-169.007" y="-265" type="curve" smooth="yes"/>
      <point x="-195.252" y="-265"/>
      <point x="-210.798" y="-243.694"/>
      <point x="-203.779" y="-217.5" type="curve" smooth="yes"/>
      <point x="-197.404" y="-193.709"/>
      <point x="-178.247" y="-181.322"/>
      <point x="-170.547" y="-177.877" type="curve" smooth="yes"/>
      <point x="-114.046" y="-152.598"/>
      <point x="-84.8887" y="-124.368"/>
      <point x="-47.1602" y="-36.8242" type="curve" smooth="yes"/>
      <point x="-40.3516" y="-21.0264"/>
      <point x="-24.0654" y="-10"/>
      <point x="-8.67969" y="-10" type="curve" smooth="yes"/>
      <point x="7.07031" y="-10"/>
      <point x="19.7725" y="-22.8311"/>
      <point x="14.3164" y="-41.7275" type="curve" smooth="yes"/>
      <point x="1.03906" y="-87.7051"/>
      <point x="-23.3662" y="-138.438"/>
      <point x="-57.8467" y="-182.011" type="curve"/>
      <point x="-54.9688" y="-180.081"/>
      <point x="-52.4189" y="-178.715"/>
      <point x="-50.5469" y="-177.877" type="curve" smooth="yes"/>
      <point x="5.9541" y="-152.598"/>
      <point x="35.1113" y="-124.368"/>
    </contour>
  </outline>
</glyph>
<glyph name="uni05A7" format="2">
  <advance width="0"/>
  <unicode hex="05A7"/>
  <outline>
    <contour>
      <point x="30.2646" y="-169.427" type="line" smooth="yes"/>
      <point x="30.9512" y="-170.505"/>
      <point x="34.7637" y="-176.096"/>
      <point x="36.9639" y="-180.75" type="curve" smooth="yes"/>
      <point x="41.71" y="-190.789"/>
      <point x="40.8008" y="-199.808"/>
      <point x="40.083" y="-204.772" type="curve" smooth="yes"/>
      <point x="39.5254" y="-208.632"/>
      <point x="38.6758" y="-212.072"/>
      <point x="38.0244" y="-214.5" type="curve" smooth="yes"/>
      <point x="34.0059" y="-229.5" type="line" smooth="yes"/>
      <point x="32.9688" y="-231.896"/>
      <point x="30.2168" y="-239.213"/>
      <point x="28.8486" y="-241.487" type="curve" smooth="yes"/>
      <point x="20.0771" y="-256.075"/>
      <point x="5.68359" y="-264"/>
      <point x="-5.73828" y="-264" type="curve" smooth="yes"/>
      <point x="-135.738" y="-264" type="line"/>
      <point x="-141.715" y="-262.167"/>
      <point x="-156.962" y="-261.361"/>
      <point x="-158.261" y="-241.487" type="curve" smooth="yes"/>
      <point x="-158.559" y="-236.938"/>
      <point x="-157.958" y="-233.096"/>
      <point x="-156.994" y="-229.5" type="curve" smooth="yes"/>
      <point x="-152.439" y="-212.5" type="line" smooth="yes"/>
      <point x="-148.11" y="-196.343"/>
      <point x="-132.387" y="-179"/>
      <point x="-112.963" y="-179" type="curve" smooth="yes"/>
      <point x="-58.2119" y="-179" type="line"/>
      <point x="-104.422" y="-115.874" type="line" smooth="yes"/>
      <point x="-106.372" y="-113.134"/>
      <point x="-110.589" y="-107.753"/>
      <point x="-113.334" y="-101.525" type="curve" smooth="yes"/>
      <point x="-117.666" y="-91.6992"/>
      <point x="-116.708" y="-83.0928"/>
      <point x="-115.996" y="-78.3047" type="curve" smooth="yes"/>
      <point x="-115.736" y="-76.5566"/>
      <point x="-115.216" y="-73.5801"/>
      <point x="-114.122" y="-69.5" type="curve" smooth="yes"/>
      <point x="-110.104" y="-54.5" type="line" smooth="yes"/>
      <point x="-105.374" y="-36.8496"/>
      <point x="-88.6592" y="-20"/>
      <point x="-70.3594" y="-20" type="curve" smooth="yes"/>
      <point x="59.6406" y="-20" type="line" smooth="yes"/>
      <point x="77.9404" y="-20"/>
      <point x="85.626" y="-36.8496"/>
      <point x="80.8965" y="-54.5" type="curve" smooth="yes"/>
      <point x="76.6094" y="-70.5" type="line" smooth="yes"/>
      <point x="71.8799" y="-88.1504"/>
      <point x="55.165" y="-105"/>
      <point x="36.8652" y="-105" type="curve" smooth="yes"/>
      <point x="-16.8857" y="-105" type="line"/>
    </contour>
  </outline>
</glyph>
<glyph name="uni05A9" format="2">
  <advance width="0"/>
  <unicode hex="05A9"/>
  <outline>
    <contour>
      <point x="273.398" y="727.911" type="curve"/>
      <point x="287.208" y="685.037" type="line" smooth="yes"/>
      <point x="289.137" y="680.717"/>
      <point x="290.158" y="675.249"/>
      <point x="288.297" y="668.301" type="curve" smooth="yes"/>
      <point x="284.247" y="653.188"/>
      <point x="270.424" y="645.827"/>
      <point x="262.324" y="643.066" type="curve" smooth="yes"/>
      <point x="231.311" y="632.959" type="line" smooth="yes"/>
      <point x="227.328" y="631.74"/>
      <point x="222.587" y="630.676"/>
      <point x="218.089" y="630.676" type="curve" smooth="yes"/>
      <point x="202.197" y="630.676"/>
      <point x="197.696" y="642.756"/>
      <point x="196.85" y="650.66" type="curve" smooth="yes"/>
      <point x="194.727" y="683.269" type="line"/>
      <point x="187.647" y="681.941"/>
      <point x="180.541" y="681.212"/>
      <point x="173.53" y="681.212" type="curve" smooth="yes"/>
      <point x="162.55" y="681.212"/>
      <point x="151.914" y="683.078"/>
      <point x="142.041" y="687.084" type="curve" smooth="yes"/>
      <point x="104.505" y="702.315"/>
      <point x="89.1436" y="741.688"/>
      <point x="100.397" y="783.688" type="curve" smooth="yes"/>
      <point x="103.498" y="795.26"/>
      <point x="108.64" y="807.041"/>
      <point x="115.865" y="818.48" type="curve" smooth="yes"/>
      <point x="142.17" y="860.129"/>
      <point x="188.615" y="886.091"/>
      <point x="230.614" y="886.091" type="curve" smooth="yes"/>
      <point x="242.188" y="886.091"/>
      <point x="253.624" y="884.191"/>
      <point x="263.867" y="879.902" type="curve" smooth="yes"/>
      <point x="301.521" y="864.137"/>
      <point x="315.879" y="824.284"/>
      <point x="304.876" y="783.222" type="curve" smooth="yes"/>
      <point x="300.049" y="765.207"/>
      <point x="290.406" y="747.292"/>
      <point x="275.85" y="730.628" type="curve" smooth="yes"/>
      <point x="274.74" y="729.358"/>
      <point x="273.933" y="728.532"/>
    </contour>
    <contour>
      <point x="234.506" y="776.837" type="curve" smooth="yes"/>
      <point x="237.913" y="789.551"/>
      <point x="233.708" y="802.104"/>
      <point x="222.151" y="807.107" type="curve" smooth="yes"/>
      <point x="218.86" y="808.532"/>
      <point x="215.581" y="808.844"/>
      <point x="211.976" y="808.844" type="curve" smooth="yes"/>
      <point x="198.694" y="808.844"/>
      <point x="184.728" y="800.916"/>
      <point x="176.558" y="787.674" type="curve" smooth="yes"/>
      <point x="174.425" y="784.217"/>
      <point x="172.818" y="780.641"/>
      <point x="171.89" y="777.174" type="curve" smooth="yes"/>
      <point x="168.484" y="764.465"/>
      <point x="173.076" y="752.41"/>
      <point x="184.253" y="748.001" type="curve" smooth="yes"/>
      <point x="187.627" y="746.671"/>
      <point x="191.127" y="746.146"/>
      <point x="194.772" y="746.146" type="curve" smooth="yes"/>
      <point x="208.133" y="746.146"/>
      <point x="222.157" y="754.104"/>
      <point x="229.898" y="766.428" type="curve" smooth="yes"/>
      <point x="232.062" y="769.873"/>
      <point x="233.573" y="773.355"/>
    </contour>
  </outline>
</glyph>
<glyph name="uni05AA" format="2">
  <advance width="0"/>
  <unicode hex="05AA"/>
  <outline>
    <contour>
      <point x="-137.635" y="-105" type="curve" smooth="yes"/>
      <point x="-125.577" y="-60" type="line" smooth="yes"/>
      <point x="-118.824" y="-34.7969"/>
      <point x="-99.5244" y="-10"/>
      <point x="-80.6797" y="-10" type="curve" smooth="yes"/>
      <point x="-54.6797" y="-10" type="line" smooth="yes"/>
      <point x="-35.6406" y="-10"/>
      <point x="-29.7578" y="-34.5508"/>
      <point x="-36.5771" y="-60" type="curve" smooth="yes"/>
      <point x="-47.8311" y="-102" type="line" smooth="yes"/>
      <point x="-48.2764" y="-103.661"/>
      <point x="-39.4951" y="-105"/>
      <point x="-28.1348" y="-105" type="curve" smooth="yes"/>
      <point x="-16.7871" y="-105"/>
      <point x="-7.27637" y="-103.662"/>
      <point x="-6.83105" y="-102" type="curve" smooth="yes"/>
      <point x="4.42285" y="-60" type="line" smooth="yes"/>
      <point x="11.1758" y="-34.7969"/>
      <point x="30.4756" y="-10"/>
      <point x="49.3203" y="-10" type="curve" smooth="yes"/>
      <point x="75.3203" y="-10" type="line" smooth="yes"/>
      <point x="94.3594" y="-10"/>
      <point x="100.242" y="-34.5508"/>
      <point x="93.4229" y="-60" type="curve" smooth="yes"/>
      <point x="81.3652" y="-105" type="line" smooth="yes"/>
      <point x="73.3252" y="-135.008"/>
      <point x="33.3281" y="-153.506"/>
      <point x="2.38672" y="-160.9" type="curve"/>
      <point x="-13.4492" y="-220" type="line" smooth="yes"/>
      <point x="-15.7324" y="-228.524"/>
      <point x="-32.7773" y="-235"/>
      <point x="-50.9678" y="-235" type="curve" smooth="yes"/>
      <point x="-74.9678" y="-235" type="line" smooth="yes"/>
      <point x="-93.124" y="-235"/>
      <point x="-106.73" y="-228.515"/>
      <point x="-104.449" y="-220" type="curve" smooth="yes"/>
      <point x="-88.7363" y="-161.359" type="line"/>
      <point x="-118.822" y="-154.164"/>
      <point x="-145.467" y="-134.229"/>
    </contour>
  </outline>
</glyph>
<glyph name="uni05AD" format="2">
  <advance width="0"/>
  <unicode hex="05AD"/>
  <outline>
    <contour>
      <point x="-32.5742" y="-36.8242" type="curve" smooth="yes"/>
      <point x="-41.7588" y="-124.373"/>
      <point x="-27.7441" y="-152.594"/>
      <point x="15.2227" y="-177.877" type="curve" smooth="yes"/>
      <point x="21.0771" y="-181.322"/>
      <point x="33.5957" y="-193.709"/>
      <point x="27.2207" y="-217.5" type="curve" smooth="yes"/>
      <point x="20.1885" y="-243.745"/>
      <point x="-6.8125" y="-265"/>
      <point x="-33.0068" y="-265" type="curve" smooth="yes"/>
      <point x="-38.5938" y="-265"/>
      <point x="-48.9941" y="-263.695"/>
      <point x="-58.0371" y="-255.42" type="curve" smooth="yes"/>
      <point x="-110.658" y="-207.265"/>
      <point x="-115.474" y="-118.004"/>
      <point x="-96.6777" y="-41.7275" type="curve" smooth="yes"/>
      <point x="-92.7969" y="-25.9805"/>
      <point x="-75.5801" y="-10"/>
      <point x="-56.6797" y="-10" type="curve" smooth="yes"/>
      <point x="-41.3027" y="-10"/>
      <point x="-30.9258" y="-21.1084"/>
    </contour>
  </outline>
</glyph>
<glyph name="afii57799" format="2">
  <advance width="0"/>
  <unicode hex="05B0"/>
  <outline>
    <contour>
      <point x="-33.4932" y="-125" type="curve" smooth="yes"/>
      <point x="-2.8418" y="-125"/>
      <point x="15.3447" y="-149.86"/>
      <point x="7.13477" y="-180.5" type="curve" smooth="yes"/>
      <point x="-0.929688" y="-210.6"/>
      <point x="-32.3984" y="-235"/>
      <point x="-62.9678" y="-235" type="curve" smooth="yes"/>
      <point x="-93.5352" y="-235"/>
      <point x="-111.929" y="-210.596"/>
      <point x="-103.865" y="-180.5" type="curve" smooth="yes"/>
      <point x="-95.6514" y="-149.848"/>
      <point x="-64.1328" y="-125"/>
    </contour>
    <contour>
      <point x="-2.67969" y="-10" type="curve" smooth="yes"/>
      <point x="27.8877" y="-10"/>
      <point x="46.2812" y="-34.4043"/>
      <point x="38.2168" y="-64.5" type="curve" smooth="yes"/>
      <point x="30.0039" y="-95.1523"/>
      <point x="-1.51465" y="-120"/>
      <point x="-32.1543" y="-120" type="curve" smooth="yes"/>
      <point x="-62.8066" y="-120"/>
      <point x="-80.9922" y="-95.1396"/>
      <point x="-72.7832" y="-64.5" type="curve" smooth="yes"/>
      <point x="-64.7178" y="-34.4004"/>
      <point x="-33.249" y="-10"/>
    </contour>
  </outline>
</glyph>
<glyph name="afii57793" format="2">
  <advance width="0"/>
  <unicode hex="05B4"/>
  <outline>
    <contour>
      <point x="-2.67969" y="-10" type="curve" smooth="yes"/>
      <point x="27.8877" y="-10"/>
      <point x="46.2812" y="-34.4043"/>
      <point x="38.2168" y="-64.5" type="curve" smooth="yes"/>
      <point x="30.0039" y="-95.1523"/>
      <point x="-1.51465" y="-120"/>
      <point x="-32.1543" y="-120" type="curve" smooth="yes"/>
      <point x="-62.8066" y="-120"/>
      <point x="-80.9922" y="-95.1396"/>
      <point x="-72.7832" y="-64.5" type="curve" smooth="yes"/>
      <point x="-64.7178" y="-34.4004"/>
      <point x="-33.249" y="-10"/>
    </contour>
  </outline>
</glyph>
<glyph name="afii57806" format="2">
  <advance width="0"/>
  <unicode hex="05B9"/>
  <outline>
    <contour>
      <point x="192.924" y="720" type="curve" smooth="yes"/>
      <point x="223.576" y="720"/>
      <point x="241.762" y="695.14"/>
      <point x="233.553" y="664.5" type="curve" smooth="yes"/>
      <point x="225.487" y="634.4"/>
      <point x="194.019" y="610"/>
      <point x="163.449" y="610" type="curve" smooth="yes"/>
      <point x="132.882" y="610"/>
      <point x="114.488" y="634.404"/>
      <point x="122.552" y="664.5" type="curve" smooth="yes"/>
      <point x="130.766" y="695.152"/>
      <point x="162.284" y="720"/>
    </contour>
  </outline>
</glyph>
<glyph name="afii57796" format="2">
  <advance width="0"/>
  <unicode hex="05BB"/>
  <outline>
    <contour>
      <point x="71.5059" y="-125" type="curve" smooth="yes"/>
      <point x="102.416" y="-125"/>
      <point x="119.161" y="-150.548"/>
      <point x="111.135" y="-180.5" type="curve" smooth="yes"/>
      <point x="103.259" y="-209.896"/>
      <point x="72.8223" y="-235"/>
      <point x="42.0322" y="-235" type="curve" smooth="yes"/>
      <point x="11.2119" y="-235"/>
      <point x="-5.74121" y="-209.895"/>
      <point x="2.13477" y="-180.5" type="curve" smooth="yes"/>
      <point x="10.1631" y="-150.541"/>
      <point x="40.6416" y="-125"/>
    </contour>
    <contour>
      <point x="-88.3242" y="-122.5" type="curve" smooth="yes"/>
      <point x="-80.1104" y="-91.8477"/>
      <point x="-48.5918" y="-67"/>
      <point x="-17.9521" y="-67" type="curve" smooth="yes"/>
      <point x="12.6992" y="-67"/>
      <point x="30.8857" y="-91.8604"/>
      <point x="22.6758" y="-122.5" type="curve" smooth="yes"/>
      <point x="14.4629" y="-153.152"/>
      <point x="-17.0557" y="-178"/>
      <point x="-47.6953" y="-178" type="curve" smooth="yes"/>
      <point x="-78.3477" y="-178"/>
      <point x="-96.5342" y="-153.14"/>
    </contour>
    <contour>
      <point x="-176.783" y="-64.5" type="curve" smooth="yes"/>
      <point x="-168.906" y="-35.1045"/>
      <point x="-138.47" y="-10"/>
      <point x="-107.68" y="-10" type="curve" smooth="yes"/>
      <point x="-76.8594" y="-10"/>
      <point x="-59.9062" y="-35.1055"/>
      <point x="-67.7832" y="-64.5" type="curve" smooth="yes"/>
      <point x="-75.8105" y="-94.459"/>
      <point x="-106.289" y="-120"/>
      <point x="-137.154" y="-120" type="curve" smooth="yes"/>
      <point x="-168.063" y="-120"/>
      <point x="-184.809" y="-94.4521"/>
    </contour>
  </outline>
</glyph>
<glyph name="afii57807" format="2">
  <advance width="0"/>
  <unicode hex="05BC"/>
  <outline>
    <contour>
      <point x="25.0186" y="300.5" type="curve" smooth="yes"/>
      <point x="31.5566" y="324.9"/>
      <point x="53.0244" y="345.827"/>
      <point x="77.0674" y="352.929" type="curve"/>
      <point x="77.8896" y="356" type="line"/>
      <point x="95.3896" y="356" type="line" smooth="yes"/>
      <point x="126.042" y="356"/>
      <point x="144.229" y="331.14"/>
      <point x="136.019" y="300.5" type="curve" smooth="yes"/>
      <point x="127.806" y="269.848"/>
      <point x="96.2871" y="245"/>
      <point x="65.6475" y="245" type="curve" smooth="yes"/>
      <point x="34.9951" y="245"/>
      <point x="16.8086" y="269.86"/>
    </contour>
  </outline>
</glyph>
<glyph name="afii57839" format="2">
  <advance width="0"/>
  <unicode hex="05BD"/>
  <outline>
    <contour>
      <point x="-103.109" y="-215" type="curve" smooth="yes"/>
      <point x="-61.5771" y="-60" type="line" smooth="yes"/>
      <point x="-53.9639" y="-31.5879"/>
      <point x="-32.8701" y="-10"/>
      <point x="-14.6797" y="-10" type="curve" smooth="yes"/>
      <point x="9.32031" y="-10" type="line" smooth="yes"/>
      <point x="27.4766" y="-10"/>
      <point x="37.0283" y="-31.6182"/>
      <point x="29.4229" y="-60" type="curve" smooth="yes"/>
      <point x="-12.1094" y="-215" type="line" smooth="yes"/>
      <point x="-14.3936" y="-223.524"/>
      <point x="-31.4375" y="-230"/>
      <point x="-49.6279" y="-230" type="curve" smooth="yes"/>
      <point x="-73.6279" y="-230" type="line" smooth="yes"/>
      <point x="-91.7842" y="-230"/>
      <point x="-105.391" y="-223.515"/>
    </contour>
  </outline>
</glyph>
<glyph name="afii57841" format="2">
  <advance width="0"/>
  <unicode hex="05BF"/>
  <outline>
    <contour>
      <point x="63.7676" y="676.5" type="line" smooth="yes"/>
      <point x="68.6445" y="694.7"/>
      <point x="86.6611" y="709"/>
      <point x="104.976" y="709" type="curve" smooth="yes"/>
      <point x="274.976" y="709" type="line" smooth="yes"/>
      <point x="293.176" y="709"/>
      <point x="303.675" y="694.815"/>
      <point x="298.768" y="676.5" type="curve" smooth="yes"/>
      <point x="292.069" y="651.5" type="line" smooth="yes"/>
      <point x="287.192" y="633.3"/>
      <point x="269.176" y="619"/>
      <point x="250.86" y="619" type="curve" smooth="yes"/>
      <point x="80.8604" y="619" type="line" smooth="yes"/>
      <point x="62.6602" y="619"/>
      <point x="52.1611" y="633.185"/>
      <point x="57.0693" y="651.5" type="curve" smooth="yes"/>
    </contour>
  </outline>
</glyph>
<glyph name="afii57803" format="2">
  <advance width="0"/>
  <unicode hex="05C2"/>
  <outline>
    <contour>
      <point x="360.404" y="704.999" type="curve"/>
      <point x="360.404" y="705" type="line"/>
      <point x="390.971" y="705"/>
      <point x="409.365" y="680.596"/>
      <point x="401.301" y="650.5" type="curve" smooth="yes"/>
      <point x="393.088" y="619.848"/>
      <point x="361.569" y="595"/>
      <point x="330.93" y="595" type="curve" smooth="yes"/>
      <point x="300.83" y="595"/>
      <point x="283.11" y="619.931"/>
      <point x="291.301" y="650.5" type="curve" smooth="yes"/>
      <point x="299.311" y="680.391"/>
      <point x="330.269" y="704.731"/>
    </contour>
  </outline>
</glyph>
<glyph name="afii57664" format="2">
  <advance width="628"/>
  <unicode hex="05D0"/>
  <outline>
    <contour>
      <point x="348.599" y="629.363" type="curve" smooth="yes"/>
      <point x="347.916" y="627.823"/>
      <point x="347.25" y="626.132"/>
      <point x="346.811" y="624.494" type="curve" smooth="yes"/>
      <point x="344.587" y="616.194"/>
      <point x="345.151" y="611.046"/>
      <point x="345.969" y="607.923" type="curve" smooth="yes"/>
      <point x="350.572" y="546.609"/>
      <point x="371.998" y="513.565"/>
      <point x="412.103" y="471.762" type="curve" smooth="yes"/>
      <point x="484.493" y="391.946" type="line"/>
      <point x="494.995" y="405.059"/>
      <point x="517.202" y="432.832"/>
      <point x="524.318" y="442.138" type="curve" smooth="yes"/>
      <point x="524.513" y="442.392"/>
      <point x="524.98" y="442.932"/>
      <point x="525.37" y="443.943" type="curve" smooth="yes"/>
      <point x="525.436" y="444.112"/>
      <point x="525.526" y="444.423"/>
      <point x="525.526" y="444.423" type="curve" smooth="yes"/>
      <point x="525.848" y="445.622"/>
      <point x="525.197" y="446.898"/>
      <point x="524.494" y="447.685" type="curve" smooth="yes"/>
      <point x="499.387" y="475.743"/>
      <point x="488.393" y="494.72"/>
      <point x="491.962" y="536.288" type="curve" smooth="yes"/>
      <point x="492.449" y="541.968"/>
      <point x="493.737" y="547.915"/>
      <point x="495.291" y="553.714" type="curve" smooth="yes"/>
      <point x="502.196" y="579.483"/>
      <point x="516.782" y="606.59"/>
      <point x="525.373" y="618" type="curve" smooth="yes"/>
      <point x="539.85" y="625.693"/>
      <point x="557.279" y="630.381"/>
      <point x="574.016" y="633.384" type="curve" smooth="yes"/>
      <point x="578.065" y="635.559"/>
      <point x="586.779" y="639.939"/>
      <point x="595.178" y="642.428" type="curve" smooth="yes"/>
      <point x="599.109" y="643.593"/>
      <point x="603.306" y="644.903"/>
      <point x="607.353" y="644.407" type="curve" smooth="yes"/>
      <point x="615.232" y="643.441"/>
      <point x="623.26" y="643.062"/>
      <point x="628.344" y="630.39" type="curve" smooth="yes"/>
      <point x="631.901" y="622.284"/>
      <point x="632.498" y="612.447"/>
      <point x="635.278" y="600.621" type="curve" smooth="yes"/>
      <point x="636.277" y="596.371"/>
      <point x="638.814" y="590.967"/>
      <point x="650.047" y="582.992" type="curve" smooth="yes"/>
      <point x="663.103" y="573.726"/>
      <point x="714.074" y="546.755"/>
      <point x="715.47" y="496.817" type="curve" smooth="yes"/>
      <point x="715.887" y="481.889"/>
      <point x="714.216" y="468.13"/>
      <point x="710.773" y="455.283" type="curve" smooth="yes"/>
      <point x="701.46" y="420.525"/>
      <point x="680.65" y="394.283"/>
      <point x="661.58" y="370.037" type="curve" smooth="yes"/>
      <point x="650.923" y="356.49"/>
      <point x="641.302" y="346.956"/>
      <point x="625.999" y="341.581" type="curve" smooth="yes"/>
      <point x="621.467" y="339.99"/>
      <point x="617.688" y="339.436"/>
      <point x="614.369" y="339.436" type="curve" smooth="yes"/>
      <point x="610.032" y="339.436"/>
      <point x="599.946" y="340.495"/>
      <point x="595.755" y="351.024" type="curve" smooth="yes"/>
      <point x="590.731" y="363.646"/>
      <point x="581.969" y="374.083"/>
      <point x="569.274" y="382.389" type="curve"/>
      <point x="568.831" y="382.575"/>
      <point x="568.81" y="382.611"/>
      <point x="568.31" y="382.674" type="curve" smooth="yes"/>
      <point x="568.078" y="382.704"/>
      <point x="567.965" y="382.696"/>
      <point x="567.965" y="382.696" type="curve"/>
      <point x="567.965" y="382.696"/>
      <point x="567.856" y="382.722"/>
      <point x="567.617" y="382.672" type="curve"/>
      <point x="567.627" y="382.658"/>
      <point x="567.61" y="382.617"/>
      <point x="567.536" y="382.526" type="curve" smooth="yes"/>
      <point x="524.528" y="331.015" type="line"/>
      <point x="588.477" y="268.594"/>
      <point x="631.715" y="221.247"/>
      <point x="615.351" y="135.83" type="curve" smooth="yes"/>
      <point x="614.709" y="132.481"/>
      <point x="613.888" y="128.935"/>
      <point x="612.975" y="125.527" type="curve" smooth="yes"/>
      <point x="602.459" y="86.2822"/>
      <point x="574.213" y="40.8975"/>
      <point x="531.2" y="13.875" type="curve" smooth="yes"/>
      <point x="525.944" y="10.4189"/>
      <point x="523.224" y="8.71191"/>
      <point x="517.694" y="5.98242" type="curve" smooth="yes"/>
      <point x="511.53" y="2.94043"/>
      <point x="503.901" y="-0.0664062"/>
      <point x="495.786" y="-0.0664062" type="curve"/>
      <point x="490.048" y="1.30469"/>
      <point x="476.882" y="0.712891"/>
      <point x="473.056" y="18.8955" type="curve" smooth="yes"/>
      <point x="471.309" y="27.2061"/>
      <point x="471.108" y="32.5547"/>
      <point x="476.708" y="65.7617" type="curve" smooth="yes"/>
      <point x="484.069" y="109.414"/>
      <point x="394.665" y="196.444"/>
      <point x="335.176" y="261.134" type="curve" smooth="yes"/>
      <point x="309.921" y="288.596"/>
      <point x="280.671" y="324.024"/>
      <point x="264.944" y="340.616" type="curve"/>
      <point x="251.786" y="329.025"/>
      <point x="239.601" y="316.279"/>
      <point x="236.09" y="303.177" type="curve" smooth="yes"/>
      <point x="235.968" y="302.721"/>
      <point x="235.694" y="301.693"/>
      <point x="235.627" y="301.24" type="curve" smooth="yes"/>
      <point x="229.63" y="260.67"/>
      <point x="284.27" y="229.054"/>
      <point x="307.835" y="175.619" type="curve" smooth="yes"/>
      <point x="312.605" y="164.802"/>
      <point x="317.401" y="141.451"/>
      <point x="308.338" y="107.625" type="curve" smooth="yes"/>
      <point x="301.145" y="80.7783"/>
      <point x="284.992" y="50.3301"/>
      <point x="254.829" y="28.4844" type="curve" smooth="yes"/>
      <point x="226.472" y="7.94531"/>
      <point x="200.583" y="0"/>
      <point x="169.5" y="0" type="curve" smooth="yes"/>
      <point x="80.5" y="0" type="line" smooth="yes"/>
      <point x="80.1494" y="0"/>
      <point x="79.0938" y="-0.0126953"/>
      <point x="78.7422" y="-0.0126953" type="curve" smooth="yes"/>
      <point x="56.1982" y="-0.0126953"/>
      <point x="52.0566" y="5.56445"/>
      <point x="53.0527" y="9.28223" type="curve"/>
      <point x="54.0684" y="10.4678"/>
      <point x="53.6758" y="12.0889"/>
      <point x="58.9912" y="15.1211" type="curve" smooth="yes"/>
      <point x="60.0928" y="15.75"/>
      <point x="61.6357" y="16.5488"/>
      <point x="64.8945" y="17.9619" type="curve" smooth="yes"/>
      <point x="67.9209" y="19.2734"/>
      <point x="73.4131" y="22.8271"/>
      <point x="77.416" y="25" type="curve" smooth="yes"/>
      <point x="79.3994" y="27.1709"/>
      <point x="80.1387" y="29.1748"/>
      <point x="80.6143" y="31.1152" type="curve" smooth="yes"/>
      <point x="80.7822" y="31.8018"/>
      <point x="81.5371" y="34.1299"/>
      <point x="80.8398" y="37.8027" type="curve" smooth="yes"/>
      <point x="80.7148" y="38.459"/>
      <point x="80.3779" y="39.748"/>
      <point x="79.8809" y="41.0449" type="curve" smooth="yes"/>
      <point x="76.8271" y="49.0098"/>
      <point x="62.3408" y="79.4141"/>
      <point x="77.7275" y="136.84" type="curve" smooth="yes"/>
      <point x="79.623" y="143.914"/>
      <point x="81.9482" y="151.402"/>
      <point x="84.7588" y="159.338" type="curve" smooth="yes"/>
      <point x="113.591" y="240.727"/>
      <point x="137.285" y="276.297"/>
      <point x="218.945" y="348.453" type="curve"/>
      <point x="201.035" y="378.624"/>
      <point x="173.981" y="411.975"/>
      <point x="177.698" y="453.159" type="curve" smooth="yes"/>
      <point x="179.111" y="468.812"/>
      <point x="181.391" y="483.445"/>
      <point x="185.22" y="497.738" type="curve" smooth="yes"/>
      <point x="192.735" y="525.787"/>
      <point x="206.344" y="551.746"/>
      <point x="226.897" y="579.035" type="curve" smooth="yes"/>
      <point x="241.722" y="598.717"/>
      <point x="271.058" y="623.975"/>
      <point x="291.49" y="634.492" type="curve" smooth="yes"/>
      <point x="298.455" y="638.073"/>
      <point x="302.499" y="639.779"/>
      <point x="309.689" y="641.771" type="curve" smooth="yes"/>
      <point x="310.564" y="642.013"/>
      <point x="313.145" y="642.636"/>
      <point x="314.077" y="642.823" type="curve" smooth="yes"/>
      <point x="314.961" y="643.001"/>
      <point x="317.46" y="643.401"/>
      <point x="318.483" y="643.515" type="curve" smooth="yes"/>
      <point x="319.379" y="643.613"/>
      <point x="321.851" y="643.769"/>
      <point x="322.928" y="643.769" type="curve" smooth="yes"/>
      <point x="340.699" y="643.769"/>
      <point x="351.136" y="638.496"/>
      <point x="349.016" y="630.586" type="curve" smooth="yes"/>
      <point x="348.955" y="630.357"/>
      <point x="348.699" y="629.592"/>
    </contour>
  </outline>
</glyph>
<glyph name="afii57666" format="2">
  <advance width="409"/>
  <unicode hex="05D2"/>
  <outline>
    <contour>
      <point x="240.718" y="40" type="line" smooth="yes"/>
      <point x="219.269" y="17.9268"/>
      <point x="208.507" y="0"/>
      <point x="173.5" y="0" type="curve" smooth="yes"/>
      <point x="45.5" y="0" type="line" smooth="yes"/>
      <point x="23.7705" y="0"/>
      <point x="12.457" y="11.8467"/>
      <point x="17.2197" y="29.6191" type="curve" smooth="yes"/>
      <point x="18.5391" y="34.5449"/>
      <point x="21.0186" y="39.2812"/>
      <point x="23.916" y="43.582" type="curve" smooth="yes"/>
      <point x="101.845" y="154.813" type="line" smooth="yes"/>
      <point x="116.912" y="175.743"/>
      <point x="135.727" y="184.902"/>
      <point x="157.044" y="184.902" type="curve" smooth="yes"/>
      <point x="288.732" y="184.902" type="line" smooth="yes"/>
      <point x="306.987" y="184.902"/>
      <point x="313.701" y="189.219"/>
      <point x="316.736" y="200.548" type="curve" smooth="yes"/>
      <point x="338.576" y="282.054"/>
      <point x="350.555" y="322.925"/>
      <point x="377.454" y="397.128" type="curve" smooth="yes"/>
      <point x="378.741" y="401.931"/>
      <point x="376.218" y="402.686"/>
      <point x="373.063" y="403.158" type="curve" smooth="yes"/>
      <point x="318.05" y="408.215"/>
      <point x="260.801" y="413.312"/>
      <point x="236.739" y="441.768" type="curve" smooth="yes"/>
      <point x="226.729" y="453.607"/>
      <point x="219.474" y="470.85"/>
      <point x="218.229" y="490.479" type="curve" smooth="yes"/>
      <point x="216.903" y="511.361"/>
      <point x="222.763" y="535.338"/>
      <point x="226.445" y="546.417" type="curve" smooth="yes"/>
      <point x="235.17" y="572.664"/>
      <point x="253.372" y="600.832"/>
      <point x="263.68" y="611.598" type="curve" smooth="yes"/>
      <point x="270.054" y="618.254"/>
      <point x="284.804" y="634.417"/>
      <point x="300.862" y="640.893" type="curve" smooth="yes"/>
      <point x="306.304" y="643.192"/>
      <point x="311.079" y="644.209"/>
      <point x="315.018" y="643.999" type="curve" smooth="yes"/>
      <point x="316.854" y="643.901"/>
      <point x="323.729" y="644.309"/>
      <point x="331.012" y="638.513" type="curve" smooth="yes"/>
      <point x="339.151" y="632.442"/>
      <point x="346.187" y="621.809"/>
      <point x="350.026" y="616.992" type="curve" smooth="yes"/>
      <point x="360.656" y="603.659"/>
      <point x="400.036" y="597.958"/>
      <point x="414.658" y="595.741" type="curve" smooth="yes"/>
      <point x="471.656" y="581.962"/>
      <point x="484.555" y="545.869"/>
      <point x="482.602" y="518.354" type="curve" smooth="yes"/>
      <point x="482.229" y="513.116"/>
      <point x="481.208" y="507.861"/>
      <point x="479.834" y="502.734" type="curve" smooth="yes"/>
      <point x="472.362" y="474.848"/>
      <point x="450.375" y="442.312"/>
      <point x="441.658" y="409.78" type="curve" smooth="yes"/>
      <point x="441.157" y="407.912"/>
      <point x="440.723" y="406.156"/>
      <point x="440.312" y="404.296" type="curve" smooth="yes"/>
      <point x="422.453" y="322.915"/>
      <point x="437.339" y="220.02"/>
      <point x="430.326" y="173.3" type="curve" smooth="yes"/>
      <point x="427.945" y="157.435"/>
      <point x="425.367" y="143.388"/>
      <point x="421.728" y="129.805" type="curve" smooth="yes"/>
      <point x="411.636" y="92.1445"/>
      <point x="393.599" y="62.2422"/>
      <point x="375.368" y="35.6621" type="curve" smooth="yes"/>
      <point x="371.405" y="29.8838"/>
      <point x="362.835" y="17.1465"/>
      <point x="351.492" y="8.61523" type="curve" smooth="yes"/>
      <point x="345.332" y="3.78027"/>
      <point x="337.028" y="-0.512695"/>
      <point x="328.641" y="-0.512695" type="curve"/>
      <point x="322.496" y="1.4082"/>
      <point x="315.987" y="0.0927734"/>
      <point x="309.995" y="10.123" type="curve" smooth="yes"/>
      <point x="304.065" y="20.0508"/>
      <point x="303.923" y="35.0361"/>
      <point x="304.641" y="42.4238" type="curve" smooth="yes"/>
      <point x="306.661" y="63.2021"/>
      <point x="308.752" y="84.1699"/>
      <point x="310.042" y="101.547" type="curve"/>
    </contour>
  </outline>
</glyph>
<glyph name="afii57667" format="2">
  <advance width="593"/>
  <unicode hex="05D3"/>
  <outline>
    <contour>
      <point x="354.354" y="601.819" type="curve" smooth="yes"/>
      <point x="630.757" y="601.819" type="line" smooth="yes"/>
      <point x="704.31" y="601.819"/>
      <point x="702.766" y="556.213"/>
      <point x="692.446" y="513.016" type="curve" smooth="yes"/>
      <point x="691.516" y="509.117"/>
      <point x="690.754" y="505.412"/>
      <point x="689.688" y="501.433" type="curve" smooth="yes"/>
      <point x="683.848" y="479.639"/>
      <point x="666.772" y="428.574"/>
      <point x="605.535" y="418.707" type="curve"/>
      <point x="599.68" y="368.286"/>
      <point x="582.994" y="217.605"/>
      <point x="575.351" y="166.011" type="curve" smooth="yes"/>
      <point x="573.865" y="155.985"/>
      <point x="571.59" y="146.031"/>
      <point x="570.236" y="140.981" type="curve" smooth="yes"/>
      <point x="562.692" y="112.824"/>
      <point x="546.779" y="71.4443"/>
      <point x="513.099" y="29.0859" type="curve" smooth="yes"/>
      <point x="506.31" y="20.5488"/>
      <point x="504.879" y="18.8252"/>
      <point x="498.135" y="13.0576" type="curve" smooth="yes"/>
      <point x="485.911" y="2.15723"/>
      <point x="471.567" y="-4.68652"/>
      <point x="458.263" y="-4.68652" type="curve" smooth="yes"/>
      <point x="435.128" y="-4.68652"/>
      <point x="423.684" y="13.8242"/>
      <point x="430.351" y="38.709" type="curve" smooth="yes"/>
      <point x="430.448" y="39.0732"/>
      <point x="430.731" y="40.0723"/>
      <point x="430.84" y="40.4355" type="curve" smooth="yes"/>
      <point x="538.69" y="416.944" type="line"/>
      <point x="237.22" y="416.944" type="line" smooth="yes"/>
      <point x="182.489" y="416.944"/>
      <point x="166.499" y="472.797"/>
      <point x="168.441" y="500.543" type="curve" smooth="yes"/>
      <point x="169.067" y="509.487"/>
      <point x="170.573" y="518.659"/>
      <point x="173.152" y="528.285" type="curve" smooth="yes"/>
      <point x="182.918" y="564.731"/>
      <point x="203.171" y="598.905"/>
      <point x="219.627" y="619.027" type="curve" smooth="yes"/>
      <point x="225.401" y="626.089"/>
      <point x="228.046" y="629.846"/>
      <point x="235.368" y="635.372" type="curve" smooth="yes"/>
      <point x="241.425" y="640.14"/>
      <point x="249.714" y="644.51"/>
      <point x="258.34" y="644.51" type="curve"/>
      <point x="264.521" y="642.733"/>
      <point x="270.922" y="643.996"/>
      <point x="277.028" y="634.097" type="curve" smooth="yes"/>
      <point x="278.508" y="631.878"/>
      <point x="280.192" y="628.422"/>
      <point x="281.875" y="621.751" type="curve" smooth="yes"/>
      <point x="285.667" y="606.727"/>
      <point x="295.925" y="601.688"/>
      <point x="330.914" y="601.688" type="curve" smooth="yes"/>
      <point x="337.558" y="601.688"/>
      <point x="345.785" y="601.819"/>
    </contour>
  </outline>
</glyph>
<glyph name="afii57669" format="2">
  <advance width="301"/>
  <unicode hex="05D5"/>
  <outline>
    <contour>
      <point x="391.565" y="496.839" type="curve" smooth="yes"/>
      <point x="382.923" y="464.583"/>
      <point x="364.701" y="433.901"/>
      <point x="336.851" y="407.681" type="curve" smooth="yes"/>
      <point x="335.847" y="406.735"/>
      <point x="331.66" y="402.226"/>
      <point x="328.964" y="397.751" type="curve" smooth="yes"/>
      <point x="328.605" y="397.156"/>
      <point x="328.847" y="397.672"/>
      <point x="328.121" y="396.236" type="curve" smooth="yes"/>
      <point x="327.914" y="395.826"/>
      <point x="328.209" y="396.646"/>
      <point x="327.546" y="394.965" type="curve" smooth="yes"/>
      <point x="327.284" y="394.302"/>
      <point x="327.729" y="395.9"/>
      <point x="327.215" y="393.979" type="curve" smooth="yes"/>
      <point x="327.144" y="393.715"/>
      <point x="327.068" y="393.229"/>
      <point x="327.04" y="392.963" type="curve" smooth="yes"/>
      <point x="319.94" y="325.17"/>
      <point x="305.972" y="214.273"/>
      <point x="297.5" y="159.104" type="curve" smooth="yes"/>
      <point x="295.651" y="147.723"/>
      <point x="293.016" y="136.424"/>
      <point x="291.479" y="130.69" type="curve" smooth="yes"/>
      <point x="284.036" y="102.913"/>
      <point x="268.273" y="62.0908"/>
      <point x="234.745" y="20.3037" type="curve" smooth="yes"/>
      <point x="228.334" y="13.1738"/>
      <point x="226.979" y="11.7344"/>
      <point x="220.489" y="6.91797" type="curve" smooth="yes"/>
      <point x="209.276" y="-0.210938"/>
      <point x="195.567" y="-4.68652"/>
      <point x="182.263" y="-4.68652" type="curve" smooth="yes"/>
      <point x="159.128" y="-4.68652"/>
      <point x="145.955" y="7.37305"/>
      <point x="150.298" y="23.582" type="curve" smooth="yes"/>
      <point x="150.436" y="24.0947"/>
      <point x="150.89" y="25.7305"/>
      <point x="151.042" y="26.2422" type="curve" smooth="yes"/>
      <point x="195.684" y="172.592"/>
      <point x="239.455" y="319.555"/>
      <point x="260.264" y="392.765" type="curve" smooth="yes"/>
      <point x="260.313" y="392.939"/>
      <point x="260.634" y="393.948"/>
      <point x="260.682" y="394.124" type="curve" smooth="yes"/>
      <point x="262.093" y="399.393"/>
      <point x="260.288" y="404.86"/>
      <point x="255.632" y="406.148" type="curve" smooth="yes"/>
      <point x="223.368" y="409.894"/>
      <point x="204.512" y="413.901"/>
      <point x="194.312" y="417.296" type="curve" smooth="yes"/>
      <point x="180.813" y="431.201"/>
      <point x="168.837" y="455.085"/>
      <point x="168.925" y="485.724" type="curve" smooth="yes"/>
      <point x="168.674" y="505.464"/>
      <point x="173.287" y="528.553"/>
      <point x="178.157" y="546.727" type="curve" smooth="yes"/>
      <point x="179.298" y="550.983"/>
      <point x="180.485" y="554.691"/>
      <point x="181.584" y="558.154" type="curve" smooth="yes"/>
      <point x="189.356" y="582.379"/>
      <point x="206.254" y="607.896"/>
      <point x="216.264" y="617.896" type="curve" smooth="yes"/>
      <point x="219.115" y="620.604"/>
      <point x="233.608" y="635.133"/>
      <point x="247.794" y="641.507" type="curve" smooth="yes"/>
      <point x="252.531" y="642.839"/>
      <point x="258.734" y="644.128"/>
      <point x="265.521" y="644.01" type="curve" smooth="yes"/>
      <point x="267.382" y="643.979"/>
      <point x="274.239" y="644.16"/>
      <point x="282.317" y="641.38" type="curve" smooth="yes"/>
      <point x="290.702" y="636.396"/>
      <point x="295.268" y="627.803"/>
      <point x="297.451" y="623.924" type="curve" smooth="yes"/>
      <point x="301.581" y="604.567"/>
      <point x="324.52" y="597.083"/>
      <point x="333.123" y="593.936" type="curve" smooth="yes"/>
      <point x="387.939" y="581.78"/>
      <point x="396.644" y="543.33"/>
      <point x="395.823" y="522.966" type="curve" smooth="yes"/>
      <point x="395.362" y="514.27"/>
      <point x="393.88" y="505.477"/>
    </contour>
  </outline>
</glyph>
<glyph name="afii57670" format="2">
  <advance width="326"/>
  <unicode hex="05D6"/>
  <outline>
    <contour>
      <point x="179.313" y="299.153" type="curve" smooth="yes"/>
      <point x="200.034" y="349.694"/>
      <point x="216.754" y="372.597"/>
      <point x="236.509" y="410.304" type="curve" smooth="yes"/>
      <point x="237.216" y="411.653"/>
      <point x="238.89" y="414.707"/>
      <point x="239.63" y="417.471" type="curve" smooth="yes"/>
      <point x="239.971" y="418.744"/>
      <point x="240.772" y="420.987"/>
      <point x="239.076" y="421.443" type="curve" smooth="yes"/>
      <point x="219.538" y="426.7"/>
      <point x="203.036" y="435.365"/>
      <point x="190.451" y="447.616" type="curve" smooth="yes"/>
      <point x="177.455" y="460.269"/>
      <point x="170.874" y="477.388"/>
      <point x="169.678" y="495.836" type="curve" smooth="yes"/>
      <point x="168.695" y="510.98"/>
      <point x="171.99" y="527.485"/>
      <point x="175.687" y="541.28" type="curve" smooth="yes"/>
      <point x="176.759" y="545.28"/>
      <point x="177.934" y="548.915"/>
      <point x="179.078" y="552.534" type="curve" smooth="yes"/>
      <point x="187.479" y="579.096"/>
      <point x="205.958" y="606.944"/>
      <point x="216.291" y="618" type="curve" smooth="yes"/>
      <point x="219.026" y="620.367"/>
      <point x="232.609" y="633.173"/>
      <point x="246.346" y="638.869" type="curve" smooth="yes"/>
      <point x="251.548" y="641.746"/>
      <point x="258.321" y="644.449"/>
      <point x="265.249" y="644.245" type="curve" smooth="yes"/>
      <point x="266.997" y="644.193"/>
      <point x="272.091" y="643.48"/>
      <point x="273.644" y="643.003" type="curve" smooth="yes"/>
      <point x="280.637" y="640.967"/>
      <point x="288.905" y="635.677"/>
      <point x="300.611" y="617.945" type="curve" smooth="yes"/>
      <point x="302.013" y="615.823"/>
      <point x="302.235" y="615.906"/>
      <point x="302.645" y="615.553" type="curve" smooth="yes"/>
      <point x="304.787" y="613.702"/>
      <point x="302.757" y="615.395"/>
      <point x="303.895" y="614.564" type="curve" smooth="yes"/>
      <point x="311.605" y="608.926"/>
      <point x="327.867" y="603.879"/>
      <point x="342.915" y="602.102" type="curve" smooth="yes"/>
      <point x="381.366" y="597.559"/>
      <point x="409.995" y="582.588"/>
      <point x="423.911" y="552.369" type="curve" smooth="yes"/>
      <point x="433.812" y="530.869"/>
      <point x="426.492" y="497.888"/>
      <point x="422.845" y="484.279" type="curve" smooth="yes"/>
      <point x="420.231" y="474.526"/>
      <point x="416.922" y="464.705"/>
      <point x="412.765" y="455.144" type="curve" smooth="yes"/>
      <point x="410.846" y="450.733"/>
      <point x="401.515" y="427.419"/>
      <point x="387.946" y="413.612" type="curve" smooth="yes"/>
      <point x="375.737" y="401.189"/>
      <point x="363.884" y="399.742"/>
      <point x="358.799" y="399.742" type="curve" smooth="yes"/>
      <point x="354.763" y="399.742"/>
      <point x="350.787" y="400.514"/>
      <point x="346.375" y="402.541" type="curve" smooth="yes"/>
      <point x="339.489" y="405.705"/>
      <point x="331.423" y="408.297"/>
      <point x="320.256" y="408.297" type="curve" smooth="yes"/>
      <point x="317.993" y="408.297"/>
      <point x="315.361" y="408.17"/>
      <point x="312.729" y="407.9" type="curve" smooth="yes"/>
      <point x="311.738" y="407.798" type="line"/>
      <point x="310.77" y="407.798" type="line" smooth="yes"/>
      <point x="308.088" y="407.502"/>
      <point x="305.815" y="407.553"/>
      <point x="300.735" y="398.471" type="curve" smooth="yes"/>
      <point x="300.156" y="397.438"/>
      <point x="299.441" y="396.359"/>
      <point x="298.23" y="393.464" type="curve" smooth="yes"/>
      <point x="294.123" y="383.646"/>
      <point x="291.446" y="375.442"/>
      <point x="289.427" y="367.906" type="curve" smooth="yes"/>
      <point x="280.818" y="335.778"/>
      <point x="287.043" y="317.521"/>
      <point x="286.612" y="276.601" type="curve" smooth="yes"/>
      <point x="286.307" y="247.61"/>
      <point x="285.207" y="223.41"/>
      <point x="276.735" y="191.791" type="curve" smooth="yes"/>
      <point x="271.77" y="173.258"/>
      <point x="264.45" y="152.323"/>
      <point x="253.658" y="126.228" type="curve" smooth="yes"/>
      <point x="239.197" y="91.2588"/>
      <point x="226.628" y="67.5566"/>
      <point x="206.708" y="35.9326" type="curve" smooth="yes"/>
      <point x="201.743" y="28.0508"/>
      <point x="189.379" y="9.7041"/>
      <point x="173.561" y="-0.227539" type="curve" smooth="yes"/>
      <point x="168.211" y="-3.7373"/>
      <point x="160.693" y="-7.1709"/>
      <point x="153.355" y="-7.1709" type="curve"/>
      <point x="150.465" y="-6.4668"/>
      <point x="135.088" y="-7.81055"/>
      <point x="132.785" y="13.7363" type="curve" smooth="yes"/>
      <point x="131.963" y="20.3984"/>
      <point x="132.509" y="31.7568"/>
      <point x="137.369" y="49.8945" type="curve" smooth="yes"/>
      <point x="146.804" y="85.1035"/>
      <point x="151.695" y="116.591"/>
      <point x="154.027" y="144.669" type="curve" smooth="yes"/>
      <point x="157.911" y="191.478"/>
      <point x="155.739" y="220.995"/>
      <point x="166.743" y="262.062" type="curve" smooth="yes"/>
      <point x="169.833" y="273.594"/>
      <point x="173.866" y="285.866"/>
    </contour>
  </outline>
</glyph>
<glyph name="afii57672" format="2">
  <advance width="646"/>
  <unicode hex="05D8"/>
  <outline>
    <contour>
      <point x="226.516" y="417.816" type="curve" smooth="yes"/>
      <point x="206.244" y="423.927"/>
      <point x="200.343" y="428.957"/>
      <point x="189.743" y="441.661" type="curve" smooth="yes"/>
      <point x="178.878" y="454.686"/>
      <point x="171.495" y="471.697"/>
      <point x="170.214" y="490.376" type="curve" smooth="yes"/>
      <point x="169.186" y="505.369"/>
      <point x="172.444" y="521.714"/>
      <point x="176.104" y="535.372" type="curve" smooth="yes"/>
      <point x="177.165" y="539.333"/>
      <point x="178.331" y="542.932"/>
      <point x="179.466" y="546.516" type="curve" smooth="yes"/>
      <point x="187.796" y="572.815"/>
      <point x="206.192" y="600.396"/>
      <point x="216.506" y="611.337" type="curve" smooth="yes"/>
      <point x="219.451" y="614.461"/>
      <point x="234.342" y="631.267"/>
      <point x="248.653" y="638.743" type="curve" smooth="yes"/>
      <point x="253.757" y="641.534"/>
      <point x="260.364" y="644.243"/>
      <point x="267.117" y="643.999" type="curve" smooth="yes"/>
      <point x="268.96" y="643.933"/>
      <point x="275.818" y="644.297"/>
      <point x="283.067" y="638.488" type="curve" smooth="yes"/>
      <point x="291.171" y="632.4"/>
      <point x="295.812" y="621.787"/>
      <point x="297.641" y="616.977" type="curve" smooth="yes"/>
      <point x="302.742" y="603.55"/>
      <point x="327.034" y="598.073"/>
      <point x="335.725" y="595.727" type="curve" smooth="yes"/>
      <point x="366.776" y="588.146"/>
      <point x="390.066" y="573.356"/>
      <point x="401.702" y="551.15" type="curve" smooth="yes"/>
      <point x="412.997" y="529.598"/>
      <point x="399.275" y="501.123"/>
      <point x="395.625" y="487.5" type="curve" smooth="yes"/>
      <point x="393.069" y="477.963"/>
      <point x="386.262" y="464.388"/>
      <point x="381.917" y="455" type="curve" smooth="yes"/>
      <point x="373.659" y="437.158"/>
      <point x="365.418" y="418.98"/>
      <point x="341.02" y="405" type="curve" smooth="yes"/>
      <point x="334.526" y="401.28"/>
      <point x="333.182" y="389.783"/>
      <point x="324.846" y="389.783" type="curve" smooth="yes"/>
      <point x="322.395" y="389.783"/>
      <point x="316.181" y="391.062"/>
      <point x="314.052" y="391.759" type="curve" smooth="yes"/>
      <point x="300.287" y="396.258"/>
      <point x="301.323" y="398.415"/>
      <point x="287.39" y="399.179" type="curve" smooth="yes"/>
      <point x="287.314" y="399.183"/>
      <point x="287.006" y="399.232"/>
      <point x="286.866" y="399.212" type="curve" smooth="yes"/>
      <point x="286.77" y="399.198" type="line" smooth="yes"/>
      <point x="286.178" y="398.985"/>
      <point x="284.777" y="397.782"/>
      <point x="283.807" y="396.588" type="curve" smooth="yes"/>
      <point x="262.976" y="369.368"/>
      <point x="249.009" y="344.988"/>
      <point x="240.237" y="310.653" type="curve" smooth="yes"/>
      <point x="228.748" y="265.682"/>
      <point x="225.123" y="240.236"/>
      <point x="220.686" y="190.293" type="curve"/>
      <point x="220.685" y="190.292"/>
      <point x="218.636" y="184.866"/>
      <point x="227.12" y="184.866" type="curve" smooth="yes"/>
      <point x="598.633" y="184.854" type="line"/>
      <point x="598.633" y="184.848"/>
      <point x="605.306" y="186.511"/>
      <point x="606.845" y="190.32" type="curve" smooth="yes"/>
      <point x="613.701" y="207.297"/>
      <point x="618.902" y="223.048"/>
      <point x="622.968" y="238.221" type="curve" smooth="yes"/>
      <point x="637.031" y="290.707"/>
      <point x="634.791" y="331.844"/>
      <point x="609.275" y="368.084" type="curve" smooth="yes"/>
      <point x="589.397" y="396.319"/>
      <point x="556.606" y="414.475"/>
      <point x="528.207" y="414.475" type="curve" smooth="yes"/>
      <point x="521.606" y="414.475"/>
      <point x="513.522" y="413.516"/>
      <point x="504.909" y="409.803" type="curve" smooth="yes"/>
      <point x="480.379" y="399.226"/>
      <point x="446.01" y="356.958"/>
      <point x="411.202" y="283.257" type="curve" smooth="yes"/>
      <point x="407.727" y="275.896"/>
      <point x="407.089" y="274.428"/>
      <point x="402.812" y="269.023" type="curve" smooth="yes"/>
      <point x="393.862" y="257.718"/>
      <point x="381.191" y="250.91"/>
      <point x="367.243" y="250.91" type="curve" smooth="yes"/>
      <point x="365.778" y="250.91"/>
      <point x="362.162" y="251.281"/>
      <point x="360.757" y="251.453" type="curve" smooth="yes"/>
      <point x="354.046" y="252.276"/>
      <point x="332.67" y="257.898"/>
      <point x="339.681" y="284.064" type="curve" smooth="yes"/>
      <point x="340.063" y="285.491"/>
      <point x="341.512" y="289.327"/>
      <point x="342.056" y="290.748" type="curve" smooth="yes"/>
      <point x="383.215" y="398.237"/>
      <point x="444.206" y="513.241"/>
      <point x="503.27" y="600" type="curve"/>
      <point x="504.019" y="600.675"/>
      <point x="513.684" y="615.406"/>
      <point x="549.381" y="615.406" type="curve" smooth="yes"/>
      <point x="550.397" y="615.406"/>
      <point x="553.456" y="615.284"/>
      <point x="554.446" y="615.201" type="curve" smooth="yes"/>
      <point x="653.283" y="606.961"/>
      <point x="719.857" y="544.191"/>
      <point x="716.289" y="383.453" type="curve" smooth="yes"/>
      <point x="715.4" y="343.429"/>
      <point x="708.167" y="301.664"/>
      <point x="697.054" y="260.189" type="curve" smooth="yes"/>
      <point x="675.313" y="179.055"/>
      <point x="639.082" y="99.583"/>
      <point x="605.237" y="35.9238" type="curve"/>
      <point x="604.87" y="35.4922"/>
      <point x="589.42" y="0"/>
      <point x="547.429" y="0" type="curve" smooth="yes"/>
      <point x="123.066" y="0.0107422" type="line"/>
      <point x="122.894" y="0.0947266"/>
      <point x="85.5586" y="1.75488"/>
      <point x="92.3008" y="34.6045" type="curve" smooth="yes"/>
      <point x="111.249" y="126.919"/>
      <point x="121.24" y="165.033"/>
      <point x="140.782" y="252.91" type="curve" smooth="yes"/>
      <point x="141.081" y="254.253"/>
      <point x="142.087" y="258.309"/>
      <point x="142.447" y="259.653" type="curve" smooth="yes"/>
      <point x="159.01" y="321.466"/>
      <point x="209.801" y="393.275"/>
      <point x="226.039" y="414.715" type="curve" smooth="yes"/>
      <point x="226.387" y="415.173"/>
      <point x="227.342" y="416.288"/>
      <point x="227.898" y="417.333" type="curve"/>
      <point x="227.65" y="417.448"/>
      <point x="227.246" y="417.597"/>
    </contour>
  </outline>
</glyph>
<glyph name="afii57673" format="2">
  <advance width="301"/>
  <unicode hex="05D9"/>
  <outline>
    <contour>
      <point x="370.275" y="397.969" type="curve" smooth="yes"/>
      <point x="349.879" y="354.97"/>
      <point x="310.924" y="314.144"/>
      <point x="292.917" y="296.104" type="curve" smooth="yes"/>
      <point x="290.095" y="293.276"/>
      <point x="275.692" y="278.012"/>
      <point x="262.543" y="271.163" type="curve" smooth="yes"/>
      <point x="257.765" y="268.675"/>
      <point x="251.787" y="266.471"/>
      <point x="245.453" y="266.471" type="curve" smooth="yes"/>
      <point x="241.926" y="266.471"/>
      <point x="234.848" y="266.973"/>
      <point x="229.719" y="272.792" type="curve" smooth="yes"/>
      <point x="228.386" y="274.403"/>
      <point x="222.422" y="279.491"/>
      <point x="222.842" y="292.616" type="curve" smooth="yes"/>
      <point x="222.938" y="295.607"/>
      <point x="223.342" y="298.782"/>
      <point x="224.443" y="302.893" type="curve" smooth="yes"/>
      <point x="226.329" y="309.933"/>
      <point x="231.354" y="322.487"/>
      <point x="243.793" y="338.091" type="curve" smooth="yes"/>
      <point x="265.008" y="364.703"/>
      <point x="268.913" y="370.667"/>
      <point x="271.095" y="378.811" type="curve" smooth="yes"/>
      <point x="272.701" y="384.806"/>
      <point x="271.73" y="389.779"/>
      <point x="270.329" y="393.653" type="curve" smooth="yes"/>
      <point x="264.935" y="408.558"/>
      <point x="250.336" y="403.289"/>
      <point x="222.424" y="418.447" type="curve" smooth="yes"/>
      <point x="192.394" y="434.755"/>
      <point x="176.631" y="457.817"/>
      <point x="171.787" y="494.227" type="curve" smooth="yes"/>
      <point x="168.684" y="517.545"/>
      <point x="175.313" y="545.545"/>
      <point x="178.741" y="558.34" type="curve" smooth="yes"/>
      <point x="179.795" y="562.271"/>
      <point x="182.024" y="570.217"/>
      <point x="185.002" y="578.019" type="curve" smooth="yes"/>
      <point x="192.641" y="598.034"/>
      <point x="203.956" y="622.727"/>
      <point x="225.29" y="642.343" type="curve" smooth="yes"/>
      <point x="230.445" y="642.219"/>
      <point x="236.76" y="642.079"/>
      <point x="246.24" y="641.991" type="curve" smooth="yes"/>
      <point x="251.719" y="644.197"/>
      <point x="256.512" y="645.377"/>
      <point x="260.398" y="644.985" type="curve" smooth="yes"/>
      <point x="264.393" y="644.584"/>
      <point x="270.726" y="645.207"/>
      <point x="278.087" y="637.846" type="curve" smooth="yes"/>
      <point x="283.912" y="632.02"/>
      <point x="286.921" y="623.052"/>
      <point x="288.871" y="617.771" type="curve" smooth="yes"/>
      <point x="294.559" y="602.359"/>
      <point x="302.35" y="596.58"/>
      <point x="324.639" y="591.622" type="curve" smooth="yes"/>
      <point x="352.062" y="585.521"/>
      <point x="381.452" y="567.679"/>
      <point x="391.374" y="531.898" type="curve" smooth="yes"/>
      <point x="398.983" y="504.453"/>
      <point x="397.244" y="476.726"/>
      <point x="390.137" y="450.2" type="curve" smooth="yes"/>
      <point x="385.274" y="432.055"/>
      <point x="378.14" y="414.546"/>
    </contour>
  </outline>
</glyph>
<glyph name="afii57675" format="2">
  <advance width="571"/>
  <unicode hex="05DB"/>
  <outline>
    <contour>
      <point x="167.98" y="195" type="curve" smooth="yes"/>
      <point x="538.516" y="195" type="line"/>
      <point x="540.021" y="200.102"/>
      <point x="541.508" y="205.271"/>
      <point x="542.808" y="210.121" type="curve" smooth="yes"/>
      <point x="556.589" y="261.554"/>
      <point x="557.447" y="300.576"/>
      <point x="549.988" y="332.835" type="curve" smooth="yes"/>
      <point x="542.55" y="364.997"/>
      <point x="518.168" y="392.176"/>
      <point x="488.208" y="405.997" type="curve" smooth="yes"/>
      <point x="467.555" y="415.524"/>
      <point x="438.868" y="422.532"/>
      <point x="358.134" y="422.532" type="curve" smooth="yes"/>
      <point x="349.166" y="422.532"/>
      <point x="340.27" y="422.486"/>
      <point x="331.563" y="422.486" type="curve" smooth="yes"/>
      <point x="284.249" y="422.486"/>
      <point x="269.074" y="424.596"/>
      <point x="256.664" y="428.074" type="curve" smooth="yes"/>
      <point x="197.578" y="444.641"/>
      <point x="195.777" y="479.966"/>
      <point x="196.452" y="506.817" type="curve" smooth="yes"/>
      <point x="196.758" y="518.951"/>
      <point x="198.715" y="530.959"/>
      <point x="201.813" y="542.521" type="curve" smooth="yes"/>
      <point x="209.431" y="570.949"/>
      <point x="224.095" y="597.271"/>
      <point x="241.991" y="619.381" type="curve" smooth="yes"/>
      <point x="246.975" y="625.538"/>
      <point x="249.869" y="628.864"/>
      <point x="256.198" y="633.879" type="curve" smooth="yes"/>
      <point x="262.558" y="639.229"/>
      <point x="271.405" y="644.51"/>
      <point x="281.07" y="644.51" type="curve"/>
      <point x="287.217" y="642.749"/>
      <point x="293.416" y="644.033"/>
      <point x="299.713" y="634.326" type="curve" smooth="yes"/>
      <point x="301.22" y="632.172"/>
      <point x="303.437" y="628.509"/>
      <point x="305.071" y="621.921" type="curve" smooth="yes"/>
      <point x="310.509" y="600.001"/>
      <point x="330.418" y="604.785"/>
      <point x="382.535" y="601.756" type="curve" smooth="yes"/>
      <point x="443.998" y="598.184"/>
      <point x="581.519" y="605.251"/>
      <point x="629.812" y="530.948" type="curve" smooth="yes"/>
      <point x="664.995" y="467.294"/>
      <point x="646.614" y="360.263"/>
      <point x="618.474" y="255.242" type="curve" smooth="yes"/>
      <point x="614.35" y="239.851"/>
      <point x="609.942" y="224.246"/>
      <point x="605.336" y="208.496" type="curve"/>
      <point x="605.874" y="208.496" type="line"/>
      <point x="600.443" y="191.191" type="line" smooth="yes"/>
      <point x="592.535" y="165.991"/>
      <point x="578.51" y="147.192"/>
      <point x="577.813" y="146.166" type="curve" smooth="yes"/>
      <point x="487.408" y="29.0186" type="line" smooth="yes"/>
      <point x="485.347" y="26.8818"/>
      <point x="482.037" y="23.3252"/>
      <point x="480.706" y="22.0488" type="curve" smooth="yes"/>
      <point x="465.021" y="7.02539"/>
      <point x="448.382" y="0"/>
      <point x="427.375" y="0" type="curve" smooth="yes"/>
      <point x="53.7305" y="0" type="line" smooth="yes"/>
      <point x="32.2607" y="0"/>
      <point x="21.207" y="12.1621"/>
      <point x="26.0947" y="30.4043" type="curve" smooth="yes"/>
      <point x="27.4189" y="35.3447"/>
      <point x="29.7627" y="40.4775"/>
      <point x="34.1465" y="46.4883" type="curve" smooth="yes"/>
      <point x="113.007" y="162.764" type="line" smooth="yes"/>
      <point x="124.638" y="181.37"/>
      <point x="142.145" y="195"/>
    </contour>
  </outline>
</glyph>
